<?xml version="1.0" encoding="UTF-8"?>
<svg xmlns="http://www.w3.org/2000/svg" xmlns:xlink="http://www.w3.org/1999/xlink" viewBox="0 0 193.42 159.34">
  <defs>
    <style>
      .cls-1 {
        fill: #ff8e0f;
      }

      .cls-1, .cls-2, .cls-3, .cls-4, .cls-5, .cls-6, .cls-7, .cls-8, .cls-9, .cls-10, .cls-11, .cls-12, .cls-13, .cls-14, .cls-15, .cls-16, .cls-17, .cls-18, .cls-19, .cls-20, .cls-21, .cls-22, .cls-23, .cls-24, .cls-25, .cls-26, .cls-27, .cls-28, .cls-29, .cls-30, .cls-31 {
        stroke-width: 0px;
      }

      .cls-2 {
        fill: url(#linear-gradient-6);
      }

      .cls-2, .cls-3, .cls-4, .cls-5, .cls-9, .cls-10, .cls-11, .cls-25, .cls-26, .cls-31 {
        mix-blend-mode: multiply;
      }

      .cls-3 {
        fill: url(#linear-gradient-7);
      }

      .cls-4 {
        fill: url(#linear-gradient-5);
      }

      .cls-5 {
        fill: url(#linear-gradient-9);
      }

      .cls-6 {
        fill: url(#radial-gradient-8);
      }

      .cls-6, .cls-7, .cls-24 {
        mix-blend-mode: screen;
      }

      .cls-7 {
        fill: url(#radial-gradient-5);
      }

      .cls-8, .cls-17, .cls-22 {
        fill: #fff;
      }

      .cls-8, .cls-22 {
        opacity: .2;
      }

      .cls-9 {
        fill: url(#linear-gradient-10);
      }

      .cls-10 {
        fill: url(#linear-gradient-11);
      }

      .cls-11, .cls-23 {
        fill: #878080;
      }

      .cls-12 {
        fill: url(#linear-gradient);
      }

      .cls-13 {
        fill: url(#radial-gradient);
      }

      .cls-14 {
        fill: url(#radial-gradient-10);
      }

      .cls-15 {
        fill: #d3c9c7;
      }

      .cls-16 {
        fill: #615b5b;
      }

      .cls-17 {
        opacity: .05;
      }

      .cls-18 {
        fill: url(#radial-gradient-2);
      }

      .cls-19 {
        fill: url(#radial-gradient-3);
      }

      .cls-20 {
        fill: url(#radial-gradient-4);
      }

      .cls-21 {
        fill: url(#radial-gradient-7);
      }

      .cls-22 {
        mix-blend-mode: overlay;
      }

      .cls-24 {
        fill: url(#radial-gradient-11);
      }

      .cls-25 {
        fill: url(#radial-gradient-6);
      }

      .cls-26 {
        fill: url(#radial-gradient-9);
      }

      .cls-27 {
        fill: url(#linear-gradient-4);
      }

      .cls-28 {
        fill: url(#linear-gradient-2);
      }

      .cls-29 {
        fill: url(#linear-gradient-3);
      }

      .cls-30 {
        fill: url(#linear-gradient-8);
      }

      .cls-32 {
        isolation: isolate;
      }

      .cls-31 {
        fill: url(#radial-gradient-12);
      }
    </style>
    <linearGradient id="linear-gradient" x1="143.06" y1="55.22" x2="129.73" y2="83.95" gradientUnits="userSpaceOnUse">
      <stop offset="0" stop-color="#f8c316"/>
      <stop offset="1" stop-color="#ff8e0f"/>
    </linearGradient>
    <radialGradient id="radial-gradient" cx="131.75" cy="66.58" fx="131.75" fy="66.58" r="16" gradientUnits="userSpaceOnUse">
      <stop offset=".09" stop-color="#f8ff17"/>
      <stop offset=".18" stop-color="#f8e916"/>
      <stop offset=".29" stop-color="#f8d416"/>
      <stop offset=".39" stop-color="#f8c716"/>
      <stop offset=".49" stop-color="#f8c316"/>
      <stop offset=".65" stop-color="#f1ac10"/>
      <stop offset=".96" stop-color="#e07301"/>
      <stop offset="1" stop-color="#de6d00"/>
    </radialGradient>
    <linearGradient id="linear-gradient-2" x1="55.4" y1="49.16" x2="42.07" y2="77.89" xlink:href="#linear-gradient"/>
    <radialGradient id="radial-gradient-2" cx="44.09" cy="60.52" fx="44.09" fy="60.52" xlink:href="#radial-gradient"/>
    <linearGradient id="linear-gradient-3" x1="109.65" y1="41.21" x2="96.32" y2="69.94" xlink:href="#linear-gradient"/>
    <radialGradient id="radial-gradient-3" cx="98.34" cy="52.57" fx="98.34" fy="52.57" xlink:href="#radial-gradient"/>
    <radialGradient id="radial-gradient-4" cx="116.69" cy="132.51" fx="116.69" fy="132.51" r="28.23" gradientUnits="userSpaceOnUse">
      <stop offset="0" stop-color="#24b5ff"/>
      <stop offset=".15" stop-color="#1a9af0"/>
      <stop offset=".34" stop-color="#1282e2"/>
      <stop offset=".53" stop-color="#0b71d8"/>
      <stop offset=".74" stop-color="#0867d2"/>
      <stop offset="1" stop-color="#0764d1"/>
    </radialGradient>
    <radialGradient id="radial-gradient-5" cx="-11947.98" cy="-1015.72" fx="-11947.98" fy="-1015.72" r="15.04" gradientTransform="translate(3449.22 -1552.97) rotate(-36.87) scale(.31 .64)" gradientUnits="userSpaceOnUse">
      <stop offset="0" stop-color="#24b5ff"/>
      <stop offset=".05" stop-color="#1ca1f3"/>
      <stop offset=".15" stop-color="#107fe0"/>
      <stop offset=".23" stop-color="#096bd5"/>
      <stop offset=".29" stop-color="#0764d1"/>
      <stop offset=".32" stop-color="#0659ba"/>
      <stop offset=".37" stop-color="#04448f"/>
      <stop offset=".43" stop-color="#033268"/>
      <stop offset=".5" stop-color="#022248"/>
      <stop offset=".57" stop-color="#01152d"/>
      <stop offset=".64" stop-color="#000c19"/>
      <stop offset=".73" stop-color="#00050a"/>
      <stop offset=".83" stop-color="#000102"/>
      <stop offset="1" stop-color="#000"/>
    </radialGradient>
    <radialGradient id="radial-gradient-6" cx="4052.1" cy="-1383.26" fx="4052.1" fy="-1383.26" r="11.55" gradientTransform="translate(-3231.73 -328.4) rotate(34.24) scale(.75 1.09)" gradientUnits="userSpaceOnUse">
      <stop offset="0" stop-color="#168ee9"/>
      <stop offset=".37" stop-color="rgba(22, 142, 233, .58)" stop-opacity=".58"/>
      <stop offset=".67" stop-color="rgba(22, 142, 233, .27)" stop-opacity=".27"/>
      <stop offset=".89" stop-color="rgba(22, 142, 233, .07)" stop-opacity=".07"/>
      <stop offset="1" stop-color="#168ee9" stop-opacity="0"/>
    </radialGradient>
    <radialGradient id="radial-gradient-7" cx="67.39" cy="63.33" fx="67.39" fy="63.33" xlink:href="#radial-gradient-4"/>
    <radialGradient id="radial-gradient-8" cx="-11941.27" cy="-1147.94" fx="-11941.27" fy="-1147.94" r="15.04" xlink:href="#radial-gradient-5"/>
    <radialGradient id="radial-gradient-9" cx="3945.78" cy="-1410.17" fx="3945.78" fy="-1410.17" r="11.55" xlink:href="#radial-gradient-6"/>
    <radialGradient id="radial-gradient-10" cx="116.29" cy="73.06" fx="116.29" fy="73.06" xlink:href="#radial-gradient-4"/>
    <radialGradient id="radial-gradient-11" cx="-11833.26" cy="-1090.15" fx="-11833.26" fy="-1090.15" r="15.04" xlink:href="#radial-gradient-5"/>
    <radialGradient id="radial-gradient-12" cx="4007.02" cy="-1427.96" fx="4007.02" fy="-1427.96" r="11.55" xlink:href="#radial-gradient-6"/>
    <linearGradient id="linear-gradient-4" x1="80.69" y1="50.08" x2="80.69" y2="88.29" gradientUnits="userSpaceOnUse">
      <stop offset="0" stop-color="#c7bfbc"/>
      <stop offset="1" stop-color="#978b8d"/>
    </linearGradient>
    <linearGradient id="linear-gradient-5" x1="98.82" y1="61.54" x2="98.82" y2="87.55" gradientUnits="userSpaceOnUse">
      <stop offset="0" stop-color="#e7e5f1"/>
      <stop offset="1" stop-color="#b5b5b5"/>
    </linearGradient>
    <linearGradient id="linear-gradient-6" x1="63.48" y1="64.75" x2="63.48" y2="87.34" xlink:href="#linear-gradient-5"/>
    <linearGradient id="linear-gradient-7" x1="94.27" y1="83.23" x2="64.96" y2="75.11" gradientUnits="userSpaceOnUse">
      <stop offset="0" stop-color="#e7e5f1"/>
      <stop offset="1" stop-color="#6a667e"/>
    </linearGradient>
    <linearGradient id="linear-gradient-8" x1="83.36" y1="107.6" x2="83.36" y2="145.81" xlink:href="#linear-gradient-4"/>
    <linearGradient id="linear-gradient-9" x1="101.48" y1="119.06" x2="101.48" y2="145.07" xlink:href="#linear-gradient-5"/>
    <linearGradient id="linear-gradient-10" x1="66.14" y1="122.27" x2="66.14" y2="144.86" xlink:href="#linear-gradient-5"/>
    <linearGradient id="linear-gradient-11" x1="96.93" y1="140.75" x2="67.62" y2="132.63" xlink:href="#linear-gradient-7"/>
  </defs>
  <g class="cls-32">
    <g id="Layer_1" data-name="Layer 1">
      <g>
        <path class="cls-12" d="M152.66,68.28c-.65-.55-1.19-1-1.55-1.47-.19-.24-.38-.47-.51-.73-.15-.26-.23-.54-.35-.85-.23-.61-.25-1.18-.24-1.78.02-.3.06-.62.14-.97.08-.36.14-.71.25-1.13.06-.25.16-.51.19-.8.01-.14.01-.3-.03-.46-.05-.15-.13-.32-.26-.49-.26-.34-.53-.5-.81-.57-.27-.07-.56-.04-.82-.06-.86-.05-1.52-.14-2.13-.27-.3-.07-.57-.18-.83-.31-.27-.12-.54-.27-.8-.46-.13-.1-.25-.2-.36-.3-.11-.1-.23-.19-.33-.3-.21-.21-.38-.44-.54-.71-.15-.28-.32-.53-.46-.86-.15-.32-.29-.68-.45-1.08-.2-.48-.3-1.06-1.11-1.35-.82-.26-1.26.19-1.69.45-.36.21-.69.43-1,.6-.31.18-.6.32-.88.42-.28.09-.56.21-.85.26-.29.06-.59.08-.91.06-.33.02-.63,0-.92-.06-.29-.05-.57-.17-.85-.26-.28-.1-.57-.25-.88-.42-.31-.18-.64-.4-1-.6-.44-.26-.87-.71-1.69-.45-.81.3-.91.88-1.11,1.35-.16.41-.3.77-.45,1.08-.15.33-.31.58-.46.86-.16.27-.34.5-.54.71-.1.11-.22.2-.33.3-.11.11-.23.21-.36.3-.26.2-.52.35-.8.46-.26.14-.53.24-.83.31-.61.14-1.26.22-2.13.27-.26.02-.55,0-.82.06-.27.07-.55.22-.81.57-.13.17-.21.34-.26.49-.04.16-.04.31-.03.46.03.29.13.55.19.8.11.42.17.78.25,1.13.08.35.13.67.14.97,0,.6-.01,1.17-.24,1.78-.11.3-.2.59-.35.85-.14.26-.32.5-.51.73-.36.48-.9.92-1.55,1.47-.38.34-.92.61-.95,1.47.04.86.57,1.13.95,1.47.65.55,1.19,1,1.55,1.47.19.24.38.47.51.73.15.26.23.54.35.85.23.61.25,1.18.24,1.78-.02.3-.06.62-.14.97-.08.36-.14.71-.25,1.13-.06.25-.16.51-.19.8-.01.14-.01.3.03.46.05.15.13.32.26.49.26.34.53.5.81.57.27.07.56.04.82.06.86.05,1.52.14,2.13.27.3.07.57.18.83.31.27.12.54.27.8.46.13.1.25.2.36.3.11.1.23.19.33.3.21.21.38.44.54.71.15.28.32.53.46.86.15.32.29.68.45,1.08.2.48.3,1.06,1.11,1.35.82.26,1.26-.19,1.69-.45.36-.21.69-.43,1-.6.31-.18.6-.32.88-.42.28-.09.56-.21.85-.26.29-.06.59-.08.91-.06.33-.02.63,0,.92.06.29.05.57.17.85.26.28.1.57.25.88.42.31.18.64.4,1,.6.44.26.87.71,1.69.45.81-.3.91-.88,1.11-1.35.16-.41.3-.77.45-1.08.15-.33.31-.58.46-.86.16-.27.34-.5.54-.71.1-.11.22-.2.33-.3.11-.11.23-.21.36-.3.26-.2.52-.35.8-.46.26-.14.53-.24.83-.31.61-.14,1.26-.22,2.13-.27.26-.02.55,0,.82-.06.27-.07.55-.22.81-.57.13-.17.21-.34.26-.49.04-.16.04-.31.03-.46-.03-.29-.13-.55-.19-.8-.11-.42-.17-.78-.25-1.13-.08-.35-.13-.67-.14-.97,0-.6,0-1.17.24-1.78.11-.3.2-.59.35-.85.14-.26.32-.5.51-.73.36-.48.9-.92,1.55-1.47.38-.34.92-.61.95-1.47-.04-.86-.57-1.13-.95-1.47Z"/>
        <path class="cls-13" d="M148.29,69.75c0,6.61-5.36,11.98-11.98,11.98s-11.98-5.36-11.98-11.98,5.36-11.98,11.98-11.98,11.98,5.36,11.98,11.98Z"/>
        <path class="cls-22" d="M133.71,59.07c2.86-.99,5.82.04,6.6,2.31.78,2.26-.9,4.9-3.76,5.89-2.86.99-5.82-.04-6.6-2.31-.78-2.26.9-4.9,3.76-5.89Z"/>
        <path class="cls-22" d="M125.95,69.05c.49-1.66,1.95-2.69,3.26-2.31,1.31.39,1.98,2.05,1.49,3.71-.49,1.66-1.95,2.7-3.26,2.31-1.31-.39-1.98-2.05-1.49-3.71Z"/>
      </g>
      <g>
        <path class="cls-28" d="M65,62.23c-.65-.55-1.19-1-1.55-1.47-.19-.24-.38-.47-.51-.73-.15-.26-.23-.54-.35-.85-.23-.61-.25-1.18-.24-1.78.02-.3.06-.62.14-.97.08-.36.14-.71.25-1.13.06-.25.16-.51.19-.8.01-.14.01-.3-.03-.46-.05-.15-.13-.32-.26-.49-.26-.34-.53-.5-.81-.57-.27-.07-.56-.04-.82-.06-.86-.05-1.52-.14-2.13-.27-.3-.07-.57-.18-.83-.31-.27-.12-.54-.27-.8-.46-.13-.1-.25-.2-.36-.3-.11-.1-.23-.19-.33-.3-.21-.21-.38-.44-.54-.71-.15-.28-.32-.53-.46-.86-.15-.32-.29-.68-.45-1.08-.2-.48-.3-1.06-1.11-1.35-.82-.26-1.26.19-1.69.45-.36.21-.69.43-1,.6-.31.18-.6.32-.88.42-.28.09-.56.21-.85.26-.29.06-.59.08-.91.06-.33.02-.63,0-.92-.06-.29-.05-.57-.17-.85-.26-.28-.1-.57-.25-.88-.42-.31-.18-.64-.4-1-.6-.44-.26-.87-.71-1.69-.45-.81.3-.91.88-1.11,1.35-.16.41-.3.77-.45,1.08-.15.33-.31.58-.46.86-.16.27-.34.5-.54.71-.1.11-.22.2-.33.3-.11.11-.23.21-.36.3-.26.2-.52.35-.8.46-.26.14-.53.24-.83.31-.61.14-1.26.22-2.13.27-.26.02-.55,0-.82.06-.27.07-.55.22-.81.57-.13.17-.21.34-.26.49-.04.16-.04.31-.03.46.03.29.13.55.19.8.11.42.17.78.25,1.13.08.35.13.67.14.97,0,.6-.01,1.17-.24,1.78-.11.3-.2.59-.35.85-.14.26-.32.5-.51.73-.36.48-.9.92-1.55,1.47-.38.34-.92.61-.95,1.47.04.86.57,1.13.95,1.47.65.55,1.19,1,1.55,1.47.19.24.38.47.51.73.15.26.23.54.35.85.23.61.25,1.18.24,1.78-.02.3-.06.62-.14.97-.08.36-.14.71-.25,1.13-.06.25-.16.51-.19.8-.01.14-.01.3.03.46.05.15.13.32.26.49.26.34.53.5.81.57.27.07.56.04.82.06.86.05,1.52.14,2.13.27.3.07.57.18.83.31.27.12.54.27.8.46.13.1.25.2.36.3.11.1.23.19.33.3.21.21.38.44.54.71.15.28.32.53.46.86.15.32.29.68.45,1.08.2.48.3,1.06,1.11,1.35.82.26,1.26-.19,1.69-.45.36-.21.69-.43,1-.6.31-.18.6-.32.88-.42.28-.09.56-.21.85-.26.29-.06.59-.08.91-.06.33-.02.63,0,.92.06.29.05.57.17.85.26.28.1.57.25.88.42.31.18.64.4,1,.6.44.26.87.71,1.69.45.81-.3.91-.88,1.11-1.35.16-.41.3-.77.45-1.08.15-.33.31-.58.46-.86.16-.27.34-.5.54-.71.1-.11.22-.2.33-.3.11-.11.23-.21.36-.3.26-.2.52-.35.8-.46.26-.14.53-.24.83-.31.61-.14,1.26-.22,2.13-.27.26-.02.55,0,.82-.06.27-.07.55-.22.81-.57.13-.17.21-.34.26-.49.04-.16.04-.31.03-.46-.03-.29-.13-.55-.19-.8-.11-.42-.17-.78-.25-1.13-.08-.35-.13-.67-.14-.97,0-.6,0-1.17.24-1.78.11-.3.2-.59.35-.85.14-.26.32-.5.51-.73.36-.48.9-.92,1.55-1.47.38-.34.92-.61.95-1.47-.04-.86-.57-1.13-.95-1.47Z"/>
        <path class="cls-18" d="M60.63,63.7c0,6.61-5.36,11.98-11.98,11.98s-11.98-5.36-11.98-11.98,5.36-11.98,11.98-11.98,11.98,5.36,11.98,11.98Z"/>
        <path class="cls-22" d="M46.05,53.02c2.86-.99,5.82.04,6.6,2.31.78,2.26-.9,4.9-3.76,5.89-2.86.99-5.82-.04-6.6-2.31-.78-2.26.9-4.9,3.76-5.89Z"/>
        <path class="cls-22" d="M38.29,63c.49-1.66,1.95-2.69,3.26-2.31,1.31.39,1.98,2.05,1.49,3.71-.49,1.66-1.95,2.7-3.26,2.31-1.31-.39-1.98-2.05-1.49-3.71Z"/>
      </g>
      <g>
        <path class="cls-29" d="M119.25,54.28c-.65-.55-1.19-1-1.55-1.47-.19-.24-.38-.47-.51-.73-.15-.26-.23-.54-.35-.85-.23-.61-.25-1.18-.24-1.78.02-.3.06-.62.14-.97.08-.36.14-.71.25-1.13.06-.25.16-.51.19-.8.01-.14.01-.3-.03-.46-.05-.15-.13-.32-.26-.49-.26-.34-.53-.5-.81-.57-.27-.07-.56-.04-.82-.06-.86-.05-1.52-.14-2.13-.27-.3-.07-.57-.18-.83-.31-.27-.12-.54-.27-.8-.46-.13-.1-.25-.2-.36-.3-.11-.1-.23-.19-.33-.3-.21-.21-.38-.44-.54-.71-.15-.28-.32-.53-.46-.86-.15-.32-.29-.68-.45-1.08-.2-.48-.3-1.06-1.11-1.35-.82-.26-1.26.19-1.69.45-.36.21-.69.43-1,.6-.31.18-.6.32-.88.42-.28.09-.56.21-.85.26-.29.06-.59.08-.91.06-.33.02-.63,0-.92-.06-.29-.05-.57-.17-.85-.26-.28-.1-.57-.25-.88-.42-.31-.18-.64-.4-1-.6-.44-.26-.87-.71-1.69-.45-.81.3-.91.88-1.11,1.35-.16.41-.3.77-.45,1.08-.15.33-.31.58-.46.86-.16.27-.34.5-.54.71-.1.11-.22.2-.33.3-.11.11-.23.21-.36.3-.26.2-.52.35-.8.46-.26.14-.53.24-.83.31-.61.14-1.26.22-2.13.27-.26.02-.55,0-.82.06-.27.07-.55.22-.81.57-.13.17-.21.34-.26.49-.04.16-.04.31-.03.46.03.29.13.55.19.8.11.42.17.78.25,1.13.08.35.13.67.14.97,0,.6-.01,1.17-.24,1.78-.11.3-.2.59-.35.85-.14.26-.32.5-.51.73-.36.48-.9.92-1.55,1.47-.38.34-.92.61-.95,1.47.04.86.57,1.13.95,1.47.65.55,1.19,1,1.55,1.47.19.24.38.47.51.73.15.26.23.54.35.85.23.61.25,1.18.24,1.78-.02.3-.06.62-.14.97-.08.36-.14.71-.25,1.13-.06.25-.16.51-.19.8-.01.14-.01.3.03.46.05.15.13.32.26.49.26.34.53.5.81.57.27.07.56.04.82.06.86.05,1.52.14,2.13.27.3.07.57.18.83.31.27.12.54.27.8.46.13.1.25.2.36.3.11.1.23.19.33.3.21.21.38.44.54.71.15.28.32.53.46.86.15.32.29.68.45,1.08.2.48.3,1.06,1.11,1.35.82.26,1.26-.19,1.69-.45.36-.21.69-.43,1-.6.31-.18.6-.32.88-.42.28-.09.56-.21.85-.26.29-.06.59-.08.91-.06.33-.02.63,0,.92.06.29.05.57.17.85.26.28.1.57.25.88.42.31.18.64.4,1,.6.44.26.87.71,1.69.45.81-.3.91-.88,1.11-1.35.16-.41.3-.77.45-1.08.15-.33.31-.58.46-.86.16-.27.34-.5.54-.71.1-.11.22-.2.33-.3.11-.11.23-.21.36-.3.26-.2.52-.35.8-.46.26-.14.53-.24.83-.31.61-.14,1.26-.22,2.13-.27.26-.02.55,0,.82-.06.27-.07.55-.22.81-.57.13-.17.21-.34.26-.49.04-.16.04-.31.03-.46-.03-.29-.13-.55-.19-.8-.11-.42-.17-.78-.25-1.13-.08-.35-.13-.67-.14-.97,0-.6,0-1.17.24-1.78.11-.3.2-.59.35-.85.14-.26.32-.5.51-.73.36-.48.9-.92,1.55-1.47.38-.34.92-.61.95-1.47-.04-.86-.57-1.13-.95-1.47Z"/>
        <path class="cls-19" d="M114.88,55.75c0,6.61-5.36,11.98-11.98,11.98s-11.98-5.36-11.98-11.98,5.36-11.98,11.98-11.98,11.98,5.36,11.98,11.98Z"/>
        <path class="cls-22" d="M100.3,45.07c2.86-.99,5.82.04,6.6,2.31.78,2.26-.9,4.9-3.76,5.89-2.86.99-5.82-.04-6.6-2.31-.78-2.26.9-4.9,3.76-5.89Z"/>
        <path class="cls-22" d="M92.54,55.05c.49-1.66,1.95-2.69,3.26-2.31,1.31.39,1.98,2.05,1.49,3.71-.49,1.66-1.95,2.7-3.26,2.31-1.31-.39-1.98-2.05-1.49-3.71Z"/>
      </g>
      <g>
        <g>
          <path class="cls-20" d="M123.77,102.27s16.07,7.89,16.07,22.63c0,8.88-7.2,16.07-16.07,16.07s-16.07-7.2-16.07-16.07c0-14.75,16.07-22.63,16.07-22.63Z"/>
          <path class="cls-8" d="M121.31,130.58c3.25,2,4.96,5.13,3.81,7-1.15,1.86-4.71,1.75-7.96-.25-3.25-2-4.96-5.13-3.81-7,1.15-1.86,4.71-1.75,7.96.25Z"/>
          <path class="cls-8" d="M114.29,124.54c.29,1.9-.61,3.61-2.01,3.82-1.4.21-2.76-1.16-3.05-3.06-.28-1.9.61-3.61,2.01-3.82,1.4-.21,2.76,1.16,3.04,3.06Z"/>
          <path class="cls-17" d="M128.88,108.69c.97-.4,2.25.46,2.85,1.92.6,1.46.3,2.97-.67,3.37-.97.4-2.25-.46-2.85-1.92-.6-1.46-.3-2.97.67-3.37Z"/>
          <path class="cls-7" d="M116.3,131.55c3.2,4.27,4.14,8.97,2.09,10.51-2.05,1.54-6.3-.68-9.5-4.95-3.2-4.27-4.14-8.97-2.09-10.51,2.05-1.54,6.3.68,9.5,4.95Z"/>
        </g>
        <path class="cls-25" d="M137.92,133.66c-3.93,5.77-10.31,8.27-14.26,5.58-3.95-2.69-3.97-9.55-.04-15.32,3.93-5.77,10.31-8.27,14.26-5.58,3.95,2.69,3.97,9.55.04,15.32Z"/>
      </g>
      <g>
        <g>
          <path class="cls-21" d="M74.47,33.09s16.07,7.89,16.07,22.63c0,8.88-7.2,16.07-16.07,16.07s-16.07-7.2-16.07-16.07c0-14.75,16.07-22.63,16.07-22.63Z"/>
          <path class="cls-8" d="M72,61.41c3.25,2,4.96,5.13,3.81,7-1.15,1.86-4.71,1.75-7.96-.25-3.25-2-4.96-5.13-3.81-7,1.15-1.86,4.71-1.75,7.96.25Z"/>
          <path class="cls-8" d="M64.98,55.37c.29,1.9-.61,3.61-2.01,3.82-1.4.21-2.76-1.16-3.05-3.06-.28-1.9.61-3.61,2.01-3.82,1.4-.21,2.76,1.16,3.04,3.06Z"/>
          <path class="cls-17" d="M79.57,39.51c.97-.4,2.25.46,2.85,1.92.6,1.46.3,2.97-.67,3.37-.97.4-2.25-.46-2.85-1.92-.6-1.46-.3-2.97.67-3.37Z"/>
          <path class="cls-6" d="M66.99,62.37c3.2,4.27,4.14,8.97,2.09,10.51-2.05,1.54-6.3-.68-9.5-4.95-3.2-4.27-4.14-8.97-2.09-10.51,2.05-1.54,6.3.68,9.5,4.95Z"/>
        </g>
        <path class="cls-26" d="M88.61,64.48c-3.93,5.77-10.31,8.27-14.26,5.58-3.95-2.69-3.97-9.55-.04-15.32,3.93-5.77,10.31-8.27,14.26-5.58,3.95,2.69,3.97,9.55.04,15.32Z"/>
      </g>
      <g>
        <g>
          <path class="cls-14" d="M123.37,42.82s16.07,7.89,16.07,22.63c0,8.88-7.2,16.07-16.07,16.07s-16.07-7.2-16.07-16.07c0-14.75,16.07-22.63,16.07-22.63Z"/>
          <path class="cls-8" d="M120.9,71.13c3.25,2,4.96,5.13,3.81,7-1.15,1.86-4.71,1.75-7.96-.25-3.25-2-4.96-5.13-3.81-7,1.15-1.86,4.71-1.75,7.96.25Z"/>
          <path class="cls-8" d="M113.88,65.09c.29,1.9-.61,3.61-2.01,3.82-1.4.21-2.76-1.16-3.05-3.06-.28-1.9.61-3.61,2.01-3.82,1.4-.21,2.76,1.16,3.04,3.06Z"/>
          <path class="cls-17" d="M128.47,49.23c.97-.4,2.25.46,2.85,1.92.6,1.46.3,2.97-.67,3.37-.97.4-2.25-.46-2.85-1.92-.6-1.46-.3-2.97.67-3.37Z"/>
          <path class="cls-24" d="M115.89,72.1c3.2,4.27,4.14,8.97,2.09,10.51-2.05,1.54-6.3-.68-9.5-4.95-3.2-4.27-4.14-8.97-2.09-10.51,2.05-1.54,6.3.68,9.5,4.95Z"/>
        </g>
        <path class="cls-31" d="M137.51,74.21c-3.93,5.77-10.31,8.27-14.26,5.58-3.95-2.69-3.97-9.55-.04-15.32,3.93-5.77,10.31-8.27,14.26-5.58,3.95,2.69,3.97,9.55.04,15.32Z"/>
      </g>
      <g>
        <polygon class="cls-27" points="77.24 48.3 60.88 63.7 55.65 80.66 66.26 85.96 95.6 85.96 105.74 76.71 101.68 61.28 88.66 54.37 86.2 53.96 85.36 52.61 77.24 48.3"/>
        <g>
          <polygon class="cls-4" points="101.68 61.28 91.91 72.09 95.6 85.96 105.74 76.71 101.68 61.28"/>
          <polygon class="cls-2" points="60.88 63.7 55.65 80.66 66.26 85.96 71.31 70.87 60.88 63.7"/>
          <polygon class="cls-3" points="71.31 70.87 66.26 85.96 95.6 85.96 91.91 72.09 71.31 70.87"/>
        </g>
        <polygon class="cls-15" points="71.31 70.87 91.91 72.09 101.68 61.28 97 63.87 95.6 66.69 91.5 70.87 71.31 70.87"/>
        <polygon class="cls-11" points="66.26 85.96 71.23 71.12 68.75 76.32 68.58 77.77 67.59 80.17 66.26 85.96"/>
        <polygon class="cls-11" points="92.19 73.14 96.09 85.51 95.6 85.96 92.19 73.14"/>
        <polygon class="cls-15" points="80.59 63.7 84.22 57.71 84.01 54.06 85.36 52.61 84.89 57.93 80.59 63.7"/>
        <polygon class="cls-23" points="85.36 52.61 84.44 54.37 84.58 57.75 80.59 63.7 86.16 58.15 86.99 55.65 88.66 54.37 86.2 53.96 85.36 52.61"/>
        <polygon class="cls-16" points="86.99 55.65 88.66 54.37 86.2 53.96 85.82 55.23 85.27 58.15 80.59 63.7 86.16 58.15 86.99 55.65"/>
      </g>
      <g>
        <polygon class="cls-30" points="79.9 105.82 63.54 121.22 58.31 138.18 68.93 143.47 98.26 143.47 108.4 134.23 104.35 118.8 91.32 111.88 88.86 111.48 88.02 110.13 79.9 105.82"/>
        <g>
          <polygon class="cls-5" points="104.35 118.8 94.57 129.61 98.26 143.47 108.4 134.23 104.35 118.8"/>
          <polygon class="cls-9" points="63.54 121.22 58.31 138.18 68.93 143.47 73.97 128.39 63.54 121.22"/>
          <polygon class="cls-10" points="73.97 128.39 68.93 143.47 98.26 143.47 94.57 129.61 73.97 128.39"/>
        </g>
        <polygon class="cls-15" points="73.97 128.39 94.57 129.61 104.35 118.8 99.66 121.39 98.26 124.21 94.16 128.39 73.97 128.39"/>
        <polygon class="cls-11" points="68.93 143.47 73.89 128.63 71.41 133.84 71.25 135.29 70.25 137.69 68.93 143.47"/>
        <polygon class="cls-11" points="94.85 130.66 98.75 143.03 98.26 143.47 94.85 130.66"/>
        <polygon class="cls-15" points="83.25 121.22 86.88 115.23 86.67 111.58 88.02 110.13 87.55 115.45 83.25 121.22"/>
        <polygon class="cls-23" points="88.02 110.13 87.1 111.89 87.24 115.26 83.25 121.22 88.83 115.67 89.65 113.17 91.32 111.88 88.86 111.48 88.02 110.13"/>
        <polygon class="cls-16" points="89.65 113.17 91.32 111.88 88.86 111.48 88.48 112.75 87.93 115.67 83.25 121.22 88.83 115.67 89.65 113.17"/>
      </g>
      <g>
        <path class="cls-1" d="M160.14,79.75c-.02-4.49-1.91-6.39-6.45-6.4-13.31-.01-26.61.02-39.91-.04-1.55,0-2.49.48-3.33,1.77-2.71,4.16-5.5,8.26-8.32,12.34-1.81,2.61-3.93,3.03-6.62,1.35-2.24-1.4-4.43-2.88-6.59-4.4-2.89-2.02-3.27-4.21-1.34-7.19.75-1.16,1.47-2.32,2.44-3.84-3.23,0-6.33,0-9.36,0l-26.96.02c-.54,0-1.08,0-1.64,0h-7.67c-.25,0-.51-.02-.79-.02-1.52,0-3.05-.06-4.57.03-2.51.14-4.67,1.6-4.85,3.87-.29,3.61-.08,7.27-.08,11.3,0,1.67,2.55,3.57,4.61,4.16.05.02.1.03.15.04.57.15,1.17.23,1.78.23h14.49l.15-.11c32.3,0,64.6,0,96.9,0,.8,0,1.6.02,2.4-.01,3.39-.16,5.49-2.29,5.56-5.66.05-2.48.02-4.96,0-7.44Z"/>
        <path class="cls-1" d="M89.61,83.03c2.02,1.44,4.09,2.82,6.16,4.18,2.48,1.63,3.75,1.39,5.41-1.05,8.61-12.71,17.21-25.43,25.79-38.16.48-.71.78-1.54,1.31-2.61-.67-.85-1.2-1.87-2.02-2.48-2.11-1.58-4.33-3.02-6.55-4.45-1.98-1.28-3.39-1.06-4.72.9-8.8,12.97-17.58,25.96-26.33,38.97-1.3,1.93-.99,3.32.95,4.7ZM93.66,78.85c.13-1.79,1.8-3.24,3.58-3.11,1.79.13,3.24,1.76,3.15,3.56-.1,1.93-1.8,3.4-3.71,3.2-1.85-.2-3.15-1.77-3.01-3.64Z"/>
        <path class="cls-1" d="M40.11,95.29h-.74l1.18,7.07c1.86,14.44,4.08,28.19,6.1,42.61.93,6.62,3.78,8.99,10.46,9,16.67.02,33.33.02,50,.02,10.26,0,20.51.02,30.77-.02,5.06-.02,8.68-3.02,9.3-7.59,1.88-13.79,3.76-27.58,5.63-41.37.43-3.21.79-6.43,1.19-9.71H40.11ZM123.3,111.08c0-2.74,1.45-4.45,3.63-4.45,2.21,0,3.68,1.7,3.7,4.4.03,4.55,0,9.1,0,13.65h-.01c0,4.39.01,8.78,0,13.17-.01,2.87-1.47,4.61-3.76,4.56-2.19-.05-3.56-1.72-3.56-4.5-.02-8.94-.02-17.88,0-26.82ZM103.33,111.25c0-2.93,1.43-4.66,3.69-4.64,2.25.02,3.6,1.75,3.62,4.7.02,4.39,0,8.78,0,13.17,0,4.47.02,8.94,0,13.41-.02,2.78-1.37,4.44-3.56,4.51-2.26.07-3.74-1.68-3.75-4.57-.02-8.86-.02-17.72,0-26.58ZM83.38,111.1c.03-2.8,1.41-4.46,3.61-4.49,2.18-.02,3.7,1.68,3.71,4.42.03,8.96.03,17.93-.02,26.89-.01,2.81-1.44,4.46-3.62,4.49-2.16.03-3.64-1.65-3.68-4.42-.06-4.48-.02-8.96-.02-13.45,0-4.48-.03-8.96.01-13.45ZM63.43,111.17c0-2.89,1.5-4.64,3.77-4.55,2.16.09,3.51,1.81,3.52,4.59.02,4.48,0,8.97,0,13.45,0,4.4.02,8.81,0,13.21-.02,2.87-1.53,4.62-3.81,4.54-2.18-.08-3.48-1.74-3.49-4.57-.02-8.89-.02-17.77,0-26.66Z"/>
      </g>
    </g>
  </g>
</svg>