<?xml version="1.0" encoding="UTF-8"?>
<svg id="Layer_1" data-name="Layer 1" xmlns="http://www.w3.org/2000/svg" viewBox="0 0 140.53 130.7">
  <defs>
    <style>
      .cls-1 {
        fill: #ff8e0f;
        stroke-width: 0px;
      }
    </style>
  </defs>
  <path class="cls-1" d="M132.95,48.7c-.02-4.49-1.91-6.39-6.45-6.4-13.31-.01-26.61.02-39.91-.04-1.55,0-2.49.48-3.33,1.77-2.71,4.16-5.5,8.26-8.32,12.34-1.81,2.61-3.93,3.03-6.62,1.35-2.24-1.4-4.43-2.88-6.59-4.4-2.89-2.02-3.27-4.21-1.34-7.19.75-1.16,1.47-2.32,2.44-3.84-3.23,0-6.33,0-9.36,0l-26.96.02c-.54,0-1.08,0-1.64,0h-7.67c-.25,0-.51-.02-.79-.02-1.52,0-3.05-.06-4.57.03-2.51.14-4.67,1.6-4.85,3.87-.29,3.61-.08,7.27-.08,11.3,0,1.67,2.55,3.57,4.61,4.16.05.02.1.03.15.04.57.15,1.17.23,1.78.23h14.49l.15-.11c32.3,0,64.6,0,96.9,0,.8,0,1.6.02,2.4-.01,3.39-.16,5.49-2.29,5.56-5.66.05-2.48.02-4.96,0-7.44Z"/>
  <path class="cls-1" d="M62.41,51.98c2.02,1.44,4.09,2.82,6.16,4.18,2.48,1.63,3.75,1.39,5.41-1.05,8.61-12.71,17.21-25.43,25.79-38.16.48-.71.78-1.54,1.31-2.61-.67-.85-1.2-1.87-2.02-2.48-2.11-1.58-4.33-3.02-6.55-4.45-1.98-1.28-3.39-1.06-4.72.9-8.8,12.97-17.58,25.96-26.33,38.97-1.3,1.93-.99,3.32.95,4.7ZM66.47,47.79c.13-1.79,1.8-3.24,3.58-3.11,1.79.13,3.24,1.76,3.15,3.56-.1,1.93-1.8,3.4-3.71,3.2-1.85-.2-3.15-1.77-3.01-3.64Z"/>
  <path class="cls-1" d="M12.92,64.24h-.74l1.18,7.07c1.86,14.44,4.08,28.19,6.1,42.61.93,6.62,3.78,8.99,10.46,9,16.67.02,33.33.02,50,.02,10.26,0,20.51.02,30.77-.02,5.06-.02,8.68-3.02,9.3-7.59,1.88-13.79,3.76-27.58,5.63-41.37.43-3.21.79-6.43,1.19-9.71H12.92ZM96.1,80.03c0-2.74,1.45-4.45,3.63-4.45,2.21,0,3.68,1.7,3.7,4.4.03,4.55,0,9.1,0,13.65h-.01c0,4.39.01,8.78,0,13.17-.01,2.87-1.47,4.61-3.76,4.56-2.19-.05-3.56-1.72-3.56-4.5-.02-8.94-.02-17.88,0-26.82ZM76.14,80.2c0-2.93,1.43-4.66,3.69-4.64,2.25.02,3.6,1.75,3.62,4.7.02,4.39,0,8.78,0,13.17,0,4.47.02,8.94,0,13.41-.02,2.78-1.37,4.44-3.56,4.51-2.26.07-3.74-1.68-3.75-4.57-.02-8.86-.02-17.72,0-26.58ZM56.19,80.05c.03-2.8,1.41-4.46,3.61-4.49,2.18-.02,3.7,1.68,3.71,4.42.03,8.96.03,17.93-.02,26.89-.01,2.81-1.44,4.46-3.62,4.49-2.16.03-3.64-1.65-3.68-4.42-.06-4.48-.02-8.96-.02-13.45,0-4.48-.03-8.96.01-13.45ZM36.24,80.12c0-2.89,1.5-4.64,3.77-4.55,2.16.09,3.51,1.81,3.52,4.59.02,4.48,0,8.97,0,13.45,0,4.4.02,8.81,0,13.21-.02,2.87-1.53,4.62-3.81,4.54-2.18-.08-3.48-1.74-3.49-4.57-.02-8.89-.02-17.77,0-26.66Z"/>
</svg>