<?xml version="1.0" encoding="UTF-8"?>
<svg id="Layer_1" data-name="Layer 1" xmlns="http://www.w3.org/2000/svg" xmlns:xlink="http://www.w3.org/1999/xlink" viewBox="0 0 360 360">
  <defs>
    <style>
      .cls-1 {
        fill: #ffc129;
        opacity: .75;
      }

      .cls-1, .cls-2, .cls-3, .cls-4, .cls-5, .cls-6, .cls-7, .cls-8, .cls-9, .cls-10, .cls-11, .cls-12, .cls-13, .cls-14, .cls-15 {
        stroke-width: 0px;
      }

      .cls-2 {
        fill: url(#linear-gradient);
      }

      .cls-3 {
        fill: #881009;
        opacity: .86;
      }

      .cls-4 {
        fill: url(#linear-gradient-4);
      }

      .cls-5 {
        fill: url(#linear-gradient-2);
      }

      .cls-6 {
        fill: url(#linear-gradient-3);
      }

      .cls-7 {
        opacity: .31;
      }

      .cls-7, .cls-10 {
        fill: #db580a;
      }

      .cls-8 {
        fill: #530b06;
      }

      .cls-9 {
        fill: #0e170f;
      }

      .cls-11 {
        fill: #b7342d;
      }

      .cls-12 {
        fill: #fff;
      }

      .cls-13 {
        fill: #ffc329;
      }

      .cls-14 {
        fill: #e68b2a;
      }

      .cls-15 {
        fill: #01b35c;
      }
    </style>
    <linearGradient id="linear-gradient" x1="46.88" y1="210.3" x2="46.88" y2="210.68" gradientUnits="userSpaceOnUse">
      <stop offset=".27" stop-color="#ffd52c"/>
      <stop offset=".65" stop-color="#eb991c"/>
      <stop offset="1" stop-color="#cd4005"/>
      <stop offset="1" stop-color="#cb3c04"/>
    </linearGradient>
    <linearGradient id="linear-gradient-2" x1="180.12" y1="70.51" x2="180.12" y2="301.22" xlink:href="#linear-gradient"/>
    <linearGradient id="linear-gradient-3" x1="146.53" y1="314.88" x2="172.34" y2="290.61" gradientUnits="userSpaceOnUse">
      <stop offset="0" stop-color="#ef6216"/>
      <stop offset="1" stop-color="#cb3c04"/>
    </linearGradient>
    <linearGradient id="linear-gradient-4" x1="206.77" x2="232.59" y2="290.61" xlink:href="#linear-gradient-3"/>
  </defs>
  <g>
    <g>
      <path class="cls-2" d="M46.85,210.58s.02.07.03.1c0-.13.01-.26.02-.38-.02.09-.04.19-.05.28Z"/>
      <path class="cls-5" d="M324.77,197.83c2.15-10.49-11.79-42.13-11.79-42.13,5.14,1.99,11.79,28.59,11.79,28.59l-.22-8.88c1.93-9.78-8.99-33.27-17.73-42.22-8.74-8.95-24.03-26.38-24.03-26.38,0,0,.27,1.8.74,4.94-24.89-25.21-62.23-41.24-103.98-41.24-52.97,0-98.84,25.8-121.2,63.42-3.09,1.9-22.91,14.67-20.43,27.55,0,0,7.62-10.9,13.02-12.52-.77,1.95-1.48,3.92-2.13,5.91-5.91,6.71-14.46,19.29-13.48,35.18,0,0,4.52-13.08,10-21.22-.93,5.32-1.42,10.76-1.46,16.28-3.74,13.57-5,32.63,4.42,55.33,0,0-3.88-17.8-1.42-29.86-.29-.89-.61-2.09.05-.28.37,1.47.2,1.06-.02.38-.5,8.11,3.62,26.31,9.12,32.37l15.33,16.34s-9.85-28.12-10.28-30.28c4.22,21.43,69.97,72.12,118.49,72.12,57.2,0,106.14-30.09,126.1-72.67.98,13.92-7.44,30.52-7.44,30.52,13.36-17.36,15.15-35.04,13.79-48.03.9-3.43,1.62-6.91,2.15-10.44,2.85,10.36.76,25.07.76,25.07,0,0,1.28-7.07,5.14-13.76,2.47-4.29-1.65-14.4-4.93-21.13.06-1.3.1-2.61.12-3.92,5.81,5.92,6.74,16.97,6.74,16.97,2.23-6.25-3.61-20.89-7.37-29.23-.17-1.48-.37-2.95-.61-4.41,8.4,7.68,10.77,27.65,10.77,27.65Z"/>
    </g>
    <ellipse class="cls-6" cx="153.51" cy="308.32" rx="19.66" ry="22.6"/>
    <ellipse class="cls-4" cx="213.75" cy="308.32" rx="19.66" ry="22.6"/>
    <g>
      <path class="cls-12" d="M106.27,180.72s13.15-42.87,45.61-37.08c0,0,20.43,3.1,17.22,22.95-2.78,17.16-12.72,20.56-12.72,20.56,0,0-19.92,5.78-33.41,3.21-13.49-2.57-16.7-9.64-16.7-9.64Z"/>
      <circle class="cls-15" cx="152.19" cy="170.16" r="16.49" transform="translate(-53.53 71.19) rotate(-22.5)"/>
      <circle class="cls-9" cx="155.61" cy="170.16" r="10.71" transform="translate(-37.27 296.5) rotate(-80.78)"/>
      <ellipse class="cls-12" cx="156.98" cy="161.72" rx="4.6" ry="3.53"/>
    </g>
    <g>
      <path class="cls-12" d="M252.82,177.07s-13.15-42.87-45.61-37.08c0,0-20.43,3.1-17.22,22.95,2.78,17.16,12.72,20.56,12.72,20.56,0,0,19.92,5.78,33.41,3.21,13.49-2.57,16.7-9.64,16.7-9.64Z"/>
      <circle class="cls-15" cx="206.9" cy="166.5" r="16.49" transform="translate(-26.1 293.93) rotate(-67.5)"/>
      <circle class="cls-9" cx="203.47" cy="166.5" r="10.71" transform="translate(-24.04 34.74) rotate(-9.22)"/>
      <ellipse class="cls-12" cx="202.1" cy="158.06" rx="4.6" ry="3.53"/>
    </g>
    <ellipse class="cls-13" cx="182.52" cy="182.94" rx="5.21" ry="7.38" transform="translate(-35.91 321.03) rotate(-77.37)"/>
    <path class="cls-10" d="M189.64,182.94s-.62-4.93-5.33-4.28c0,0-7.5-.64-9.42,4.28,0,0,1.05-6,7.38-6s7.38,6,7.38,6Z"/>
    <path class="cls-7" d="M156.38,187.15s-31.23,5.82-50.11-6.42c0,0,12.53,22.16,50.11,6.42Z"/>
    <path class="cls-7" d="M203.47,183.33s31.23,5.82,50.11-6.42c0,0-12.53,22.16-50.11,6.42Z"/>
    <path class="cls-3" d="M168.96,158.06s-29.24-34.58-62.69,22.66c0,0,10.7-28.2,20.75-33.02,10.05-4.82,38.7-7.45,41.93,10.35Z"/>
    <path class="cls-3" d="M192.46,153.81s29.24-34.58,62.69,22.66c0,0-10.7-28.2-20.75-33.02-10.05-4.82-38.7-7.45-41.93,10.35Z"/>
    <path class="cls-14" d="M220.53,65.03s27.97-34.96-60.92-35.96c0,0,35.13,12.98,32.55,21.97,0,0,4.41-16.98-64.51-11.99,0,0,47.97,17.94,48.53,25.97,0,0-7.58-13.98-48.53-12.98-40.95,1-35.96-4.99-35.96-4.99,0,0,15.98,18.98,36.95,17.98,20.97-1-43.95-4.99-67.92,29.96,0,0,11.99-8.99,30.96-8.99,0,0-31.96,4-42.95,42.95,0,0,19.98-19.98,42.95-23.97,0,0-43.95,17.98-46.94,44.94,0,0,13.98-18.98,36.95-23.97,0,0-23.97,21.23-26.97,53.56,0,0,6.25-10.89,23.44-26.56,7.57-6.91,17.27-14.75,29.5-23l20.97-13.98s-9.99,26.34-41.95,44.94c0,0,51.67-9.49,77.71-48.94,0,0-18.78,33.96-42.75,46.94-23.97,12.98,67.92-19.98,78.9-47.94,0,0,7.73,31.96-10.12,46.94,0,0,52.06-13.98,47.07-57.93,0,0,10.1,32.34,43.95,34.96,0,0-30.06-28.96-25.02-48.94,0,0,44.99,30.62,34.01,56.76,0,0,58.93-59.76-69.91-77.73Z"/>
    <path class="cls-1" d="M210.79,65.03s27.97-34.96-60.92-35.96c0,0,35.13,12.98,32.55,21.97,0,0,4.41-16.98-64.51-11.99,0,0,47.97,17.94,48.53,25.97,0,0-7.58-13.98-48.53-12.98-40.95,1-35.96-4.99-35.96-4.99,0,0,15.98,18.98,36.95,17.98,20.97-1-43.95-4.99-67.92,29.96,0,0,11.99-8.99,30.96-8.99,0,0-31.96,4-42.95,42.95,0,0,19.98-19.98,42.95-23.97,0,0-43.95,17.98-46.94,44.94,0,0,13.98-18.98,36.95-23.97,0,0-23.97,21.23-26.97,53.56,0,0,6.25-10.89,23.44-26.56,7.57-6.91,17.27-14.75,29.5-23l20.97-13.98s-9.99,26.34-41.95,44.94c0,0,51.67-9.49,77.71-48.94,0,0-18.78,33.96-42.75,46.94-23.97,12.98,67.92-19.98,78.9-47.94,0,0,7.73,31.96-10.12,46.94,0,0,52.06-13.98,47.07-57.93,0,0,10.1,32.34,43.95,34.96,0,0-30.06-28.96-25.02-48.94,0,0,44.99,30.62,34.01,56.76,0,0,58.93-59.76-69.91-77.73Z"/>
  </g>
  <path class="cls-8" d="M198.84,198.25s-1.28,12.85-30.84,0c0,0-16.7,32.12,7.07,37.91,0,0,34.69,7.71,23.77-37.91Z"/>
  <ellipse class="cls-11" cx="182.26" cy="222.91" rx="9.67" ry="5.46"/>
</svg>