<?xml version="1.0" encoding="UTF-8"?>
<svg id="Layer_1" data-name="Layer 1" xmlns="http://www.w3.org/2000/svg" xmlns:xlink="http://www.w3.org/1999/xlink" viewBox="0 0 360 360">
  <defs>
    <style>
      .cls-1 {
        fill: url(#Unbenannter_Verlauf_2-3);
      }

      .cls-1, .cls-2, .cls-3, .cls-4, .cls-5, .cls-6, .cls-7, .cls-8, .cls-9, .cls-10, .cls-11, .cls-12, .cls-13 {
        stroke-width: 0px;
      }

      .cls-2 {
        fill: url(#Unbenannter_Verlauf_2-2);
      }

      .cls-3 {
        fill: url(#Unbenannter_Verlauf_3-2);
      }

      .cls-4 {
        fill: url(#Unbenannter_Verlauf_3);
      }

      .cls-5 {
        fill: url(#Unbenannter_Verlauf_2);
      }

      .cls-6 {
        fill: #4d9cf8;
      }

      .cls-7 {
        fill: #0e170f;
      }

      .cls-8 {
        fill: #1beb83;
      }

      .cls-9 {
        fill: #b292f7;
      }

      .cls-10 {
        fill: #8763ea;
      }

      .cls-11 {
        fill: #fc916c;
      }

      .cls-12 {
        fill: #fff;
      }

      .cls-13 {
        fill: #00003c;
      }
    </style>
    <linearGradient id="Unbenannter_Verlauf_2" data-name="Unbenannter Verlauf 2" x1="48.09" y1="211.54" x2="48.09" y2="211.92" gradientUnits="userSpaceOnUse">
      <stop offset="0" stop-color="#003276"/>
      <stop offset="1" stop-color="#006eff"/>
    </linearGradient>
    <linearGradient id="Unbenannter_Verlauf_2-2" data-name="Unbenannter Verlauf 2" x1="180" y1="73.15" x2="180" y2="301.55" xlink:href="#Unbenannter_Verlauf_2"/>
    <linearGradient id="Unbenannter_Verlauf_3" data-name="Unbenannter Verlauf 3" x1="146.75" y1="315.08" x2="172.31" y2="291.05" gradientUnits="userSpaceOnUse">
      <stop offset=".2" stop-color="#003276"/>
      <stop offset="1" stop-color="#006eff"/>
    </linearGradient>
    <linearGradient id="Unbenannter_Verlauf_3-2" data-name="Unbenannter Verlauf 3" x1="206.39" y1="315.08" x2="231.95" y2="291.05" xlink:href="#Unbenannter_Verlauf_3"/>
    <linearGradient id="Unbenannter_Verlauf_2-3" data-name="Unbenannter Verlauf 2" x1="38.55" y1="103.51" x2="295.1" y2="103.51" xlink:href="#Unbenannter_Verlauf_2"/>
  </defs>
  <g>
    <path class="cls-5" d="M48.07,211.82s.02.07.03.1c0-.13.01-.26.02-.38-.02.09-.04.19-.05.28Z"/>
    <path class="cls-2" d="M323.2,199.2c2.13-10.38-11.67-41.71-11.67-41.71,5.09,1.97,11.67,28.31,11.67,28.31l-.22-8.79c1.91-9.68-8.9-32.94-17.56-41.8-8.65-8.86-23.79-26.12-23.79-26.12,0,0,.27,1.79.74,4.89-24.64-24.96-61.61-40.83-102.94-40.83-52.44,0-97.85,25.54-119.98,62.79-3.06,1.89-22.68,14.52-20.23,27.27,0,0,7.55-10.79,12.89-12.39-.77,1.93-1.47,3.88-2.11,5.85-5.85,6.64-14.32,19.1-13.35,34.83,0,0,4.48-12.94,9.9-21.01-.92,5.27-1.41,10.65-1.45,16.12-3.7,13.44-4.95,32.31,4.38,54.77,0,0-3.84-17.62-1.41-29.56-.28-.88-.6-2.07.05-.28.37,1.46.2,1.05-.02.38-.49,8.03,3.59,26.05,9.02,32.04l15.18,16.17s-9.75-27.84-10.18-29.98c4.18,21.21,69.27,71.39,117.31,71.39,56.63,0,105.07-29.79,124.84-71.94.97,13.78-7.37,30.21-7.37,30.21,13.22-17.19,14.99-34.69,13.65-47.55.89-3.39,1.61-6.84,2.13-10.34,2.82,10.25.75,24.81.75,24.81,0,0,1.27-7,5.09-13.62,2.44-4.24-1.63-14.26-4.88-20.92.06-1.29.1-2.58.12-3.88,5.75,5.86,6.68,16.8,6.68,16.8,2.21-6.19-3.57-20.68-7.3-28.94-.17-1.46-.37-2.92-.6-4.37,8.32,7.6,10.67,27.37,10.67,27.37Z"/>
  </g>
  <ellipse class="cls-4" cx="153.66" cy="308.58" rx="19.46" ry="22.37"/>
  <ellipse class="cls-3" cx="213.3" cy="308.58" rx="19.46" ry="22.37"/>
  <g>
    <path class="cls-12" d="M106.89,182.26s13.02-42.44,45.16-36.71c0,0,20.23,3.07,17.05,22.72-2.75,16.99-12.59,20.35-12.59,20.35,0,0-19.72,5.72-33.07,3.18-13.36-2.54-16.54-9.54-16.54-9.54Z"/>
    <circle class="cls-8" cx="152.35" cy="171.8" r="16.32" transform="translate(-54.15 71.38) rotate(-22.5)"/>
    <circle class="cls-7" cx="155.74" cy="171.8" r="10.6" transform="translate(-38.79 298.01) rotate(-80.78)"/>
    <ellipse class="cls-12" cx="157.1" cy="163.45" rx="4.56" ry="3.5"/>
  </g>
  <g>
    <path class="cls-12" d="M251.97,178.65s-13.02-42.44-45.16-36.71c0,0-20.23,3.07-17.05,22.72,2.75,16.99,12.59,20.35,12.59,20.35,0,0,19.72,5.72,33.07,3.18,13.36-2.54,16.54-9.54,16.54-9.54Z"/>
    <circle class="cls-8" cx="206.52" cy="168.18" r="16.32" transform="translate(-27.9 294.62) rotate(-67.5)"/>
    <circle class="cls-7" cx="203.12" cy="168.18" r="10.6" transform="translate(-24.32 34.71) rotate(-9.22)"/>
    <ellipse class="cls-12" cx="201.77" cy="159.83" rx="4.56" ry="3.5"/>
  </g>
  <path class="cls-6" d="M189.51,186.05c-.62,2.78-4.32,4.32-8.25,3.44-3.94-.88-7.08-3.73-6.46-6.51.62-2.78,4.78-4.44,8.71-3.55,3.94.88,6.62,3.85,6,6.63Z"/>
  <path class="cls-13" d="M189.21,183.88s-.51-3.07-5.08-3.66c0,0-7.17-.75-9.33,3.24,0,0,.03-4.93,7.31-4.93,6.25,0,7.1,5.36,7.1,5.36Z"/>
  <path class="cls-6" d="M156.5,188.62s-30.92,5.76-49.61-6.36c0,0,12.4,21.93,49.61,6.36Z"/>
  <path class="cls-6" d="M205.66,185.86s28.38,4.74,47.07-7.38c0,0-9.86,22.95-47.07,7.38Z"/>
  <path class="cls-13" d="M168.95,159.83s-27.92-25.6-62.06,22.44c0,0,5.13-21.9,20.54-32.69,9.04-6.33,31.67-19.23,41.51,10.25Z"/>
  <path class="cls-13" d="M189.93,154.09s28.94-32.12,62.05,24.56c0,0-9.6-26.4-18.23-33.28-14.53-11.58-40.61-8.91-43.81,8.72Z"/>
  <path class="cls-1" d="M212.57,64.64s27.69-34.61-60.31-35.6c0,0,34.78,12.85,32.22,21.75,0,0,4.36-16.81-63.86-11.87,0,0,47.49,17.76,48.04,25.71,0,0-7.5-13.84-48.04-12.85-40.54.99-35.6-4.94-35.6-4.94,0,0,15.82,18.79,36.58,17.8,20.76-.99-43.51-4.94-67.24,29.66,0,0,11.87-8.9,30.65-8.9,0,0-31.64,3.96-42.52,42.52,0,0,19.78-19.78,42.52-23.73,0,0-43.51,17.8-46.47,44.49,0,0,13.84-18.79,36.58-23.73,0,0-23.73,21.01-26.7,53.02,0,0,6.19-10.78,23.2-26.3,7.5-6.84,17.1-14.6,29.2-22.77l20.76-13.84s-9.89,26.08-41.53,44.49c0,0,51.15-9.39,76.93-48.45,0,0-18.59,33.62-42.32,46.47-23.73,12.85,67.24-19.78,78.11-47.46,0,0,7.66,31.64-10.02,46.47,0,0,51.54-13.84,46.6-57.35,0,0,10,32.02,43.51,34.61,0,0-29.76-28.67-24.77-48.45,0,0,44.54,30.31,33.67,56.19,0,0,58.34-59.16-69.21-76.95Z"/>
  <path class="cls-13" d="M198.53,199.62s-1.27,12.72-30.53,0c0,0-16.54,31.8,7,37.53,0,0,34.35,7.63,23.53-37.53Z"/>
  <ellipse class="cls-11" cx="182.13" cy="224.03" rx="9.57" ry="5.41"/>
  <g>
    <g>
      <polygon class="cls-9" points="179.2 50.17 188.1 100.29 213.11 73.95 250.75 73.51 237.71 38.71 214.98 59.86 179.2 50.17"/>
      <circle class="cls-10" cx="213.74" cy="66.98" r="10.99"/>
      <circle class="cls-9" cx="215.06" cy="66.98" r="9.73"/>
    </g>
    <path class="cls-10" d="M220.47,58.89l15.33-6.46-11.07,8.9,19.65,5.65h-19.59s1.09-6.45-4.32-8.09Z"/>
    <path class="cls-10" d="M205.33,59.9l-15.65-2.66,11.11,4.4-14.29,11.5,16.25-6.17-11.26,20.43,13.84-15.08s-4.07-8.44,0-12.42Z"/>
  </g>
</svg>