<?xml version="1.0" encoding="UTF-8"?>
<svg xmlns="http://www.w3.org/2000/svg" xmlns:xlink="http://www.w3.org/1999/xlink" viewBox="0 0 51.06 49.09">
  <defs>
    <style>
      .cls-1 {
        fill: url(#linear-gradient);
      }

      .cls-1, .cls-2, .cls-3 {
        stroke-width: 0px;
      }

      .cls-2 {
        fill: url(#radial-gradient);
      }

      .cls-3 {
        fill: #fff;
        mix-blend-mode: overlay;
        opacity: .2;
      }

      .cls-4 {
        isolation: isolate;
      }
    </style>
    <linearGradient id="linear-gradient" x1="32.27" y1="10.2" x2="18.94" y2="38.93" gradientUnits="userSpaceOnUse">
      <stop offset="0" stop-color="#f8c316"/>
      <stop offset="1" stop-color="#ff8e0f"/>
    </linearGradient>
    <radialGradient id="radial-gradient" cx="20.96" cy="21.56" fx="20.96" fy="21.56" r="16" gradientUnits="userSpaceOnUse">
      <stop offset=".09" stop-color="#f8ff17"/>
      <stop offset=".18" stop-color="#f8e916"/>
      <stop offset=".29" stop-color="#f8d416"/>
      <stop offset=".39" stop-color="#f8c716"/>
      <stop offset=".49" stop-color="#f8c316"/>
      <stop offset=".65" stop-color="#f1ac10"/>
      <stop offset=".96" stop-color="#e07301"/>
      <stop offset="1" stop-color="#de6d00"/>
    </radialGradient>
  </defs>
  <g class="cls-4">
    <g id="Layer_1" data-name="Layer 1">
      <g>
        <path class="cls-1" d="M41.87,23.27c-.65-.55-1.19-1-1.55-1.47-.19-.24-.38-.47-.51-.73-.15-.26-.23-.54-.35-.85-.23-.61-.25-1.18-.24-1.78.02-.3.06-.62.14-.97.08-.36.14-.71.25-1.13.06-.25.16-.51.19-.8.01-.14.01-.3-.03-.46-.05-.15-.13-.32-.26-.49-.26-.34-.53-.5-.81-.57-.27-.07-.56-.04-.82-.06-.86-.05-1.52-.14-2.13-.27-.3-.07-.57-.18-.83-.31-.27-.12-.54-.27-.8-.46-.13-.1-.25-.2-.36-.3-.11-.1-.23-.19-.33-.3-.21-.21-.38-.44-.54-.71-.15-.28-.32-.53-.46-.86-.15-.32-.29-.68-.45-1.08-.2-.48-.3-1.06-1.11-1.35-.82-.26-1.26.19-1.69.45-.36.21-.69.43-1,.6-.31.18-.6.32-.88.42-.28.09-.56.21-.85.26-.29.06-.59.08-.91.06-.33.02-.63,0-.92-.06-.29-.05-.57-.17-.85-.26-.28-.1-.57-.25-.88-.42-.31-.18-.64-.4-1-.6-.44-.26-.87-.71-1.69-.45-.81.3-.91.88-1.11,1.35-.16.41-.3.77-.45,1.08-.15.33-.31.58-.46.86-.16.27-.34.5-.54.71-.1.11-.22.2-.33.3-.11.11-.23.21-.36.3-.26.2-.52.35-.8.46-.26.14-.53.24-.83.31-.61.14-1.26.22-2.13.27-.26.02-.55,0-.82.06-.27.07-.55.22-.81.57-.13.17-.21.34-.26.49-.04.16-.04.31-.03.46.03.29.13.55.19.8.11.42.17.78.25,1.13.08.35.13.67.14.97,0,.6-.01,1.17-.24,1.78-.11.3-.2.59-.35.85-.14.26-.32.5-.51.73-.36.48-.9.92-1.55,1.47-.38.34-.92.61-.95,1.47.04.86.57,1.13.95,1.47.65.55,1.19,1,1.55,1.47.19.24.38.47.51.73.15.26.23.54.35.85.23.61.25,1.18.24,1.78-.02.3-.06.62-.14.97-.08.36-.14.71-.25,1.13-.06.25-.16.51-.19.8-.01.14-.01.3.03.46.05.15.13.32.26.49.26.34.53.5.81.57.27.07.56.04.82.06.86.05,1.52.14,2.13.27.3.07.57.18.83.31.27.12.54.27.8.46.13.1.25.2.36.3.11.1.23.19.33.3.21.21.38.44.54.71.15.28.32.53.46.86.15.32.29.68.45,1.08.2.48.3,1.06,1.11,1.35.82.26,1.26-.19,1.69-.45.36-.21.69-.43,1-.6.31-.18.6-.32.88-.42.28-.09.56-.21.85-.26.29-.06.59-.08.91-.06.33-.02.63,0,.92.06.29.05.57.17.85.26.28.1.57.25.88.42.31.18.64.4,1,.6.44.26.87.71,1.69.45.81-.3.91-.88,1.11-1.35.16-.41.3-.77.45-1.08.15-.33.31-.58.46-.86.16-.27.34-.5.54-.71.1-.11.22-.2.33-.3.11-.11.23-.21.36-.3.26-.2.52-.35.8-.46.26-.14.53-.24.83-.31.61-.14,1.26-.22,2.13-.27.26-.02.55,0,.82-.06.27-.07.55-.22.81-.57.13-.17.21-.34.26-.49.04-.16.04-.31.03-.46-.03-.29-.13-.55-.19-.8-.11-.42-.17-.78-.25-1.13-.08-.35-.13-.67-.14-.97,0-.6,0-1.17.24-1.78.11-.3.2-.59.35-.85.14-.26.32-.5.51-.73.36-.48.9-.92,1.55-1.47.38-.34.92-.61.95-1.47-.04-.86-.57-1.13-.95-1.47Z"/>
        <path class="cls-2" d="M37.51,24.74c0,6.61-5.36,11.98-11.98,11.98s-11.98-5.36-11.98-11.98,5.36-11.98,11.98-11.98,11.98,5.36,11.98,11.98Z"/>
        <path class="cls-3" d="M22.92,14.06c2.86-.99,5.82.04,6.6,2.31.78,2.26-.9,4.9-3.76,5.89-2.86.99-5.82-.04-6.6-2.31-.78-2.26.9-4.9,3.76-5.89Z"/>
        <path class="cls-3" d="M15.16,24.03c.49-1.66,1.95-2.69,3.26-2.31,1.31.39,1.98,2.05,1.49,3.71-.49,1.66-1.95,2.7-3.26,2.31-1.31-.39-1.98-2.05-1.49-3.71Z"/>
      </g>
    </g>
  </g>
</svg>