<?xml version="1.0" encoding="UTF-8"?>
<svg xmlns="http://www.w3.org/2000/svg" viewBox="0 0 112.01 114.71">
  <defs>
    <style>
      .cls-1 {
        fill: #89b8db;
        mix-blend-mode: multiply;
        opacity: .3;
      }

      .cls-1, .cls-2, .cls-3, .cls-4 {
        stroke-width: 0px;
      }

      .cls-5 {
        isolation: isolate;
      }

      .cls-2 {
        fill: #d6e8fd;
      }

      .cls-3 {
        fill: #023276;
      }

      .cls-4 {
        fill: #0058c6;
      }
    </style>
  </defs>
  <g class="cls-5">
    <g id="Layer_1" data-name="Layer 1">
      <g>
        <path class="cls-3" d="M27.43,69.06c.05.11,1.37,3.5,1.45,3.6,2.64,3.8,57.38,5.27,59.21,2.2,1.85-3.1,2.33-36.21.7-40.7-.03-.07-1.32-3.42-1.34-3.47-1.73-3.61-56.23-.89-58.36,2.27-2.13,3.16-3.48,32.07-1.65,36.11Z"/>
        <path class="cls-4" d="M27.43,69.06c1.83,4.03,57.51,5.68,59.39,2.53,1.88-3.15,2.35-37.29.62-40.9-1.73-3.61-57.5-4.17-59.63-1.01-2.13,3.16-2.22,35.35-.39,39.38Z"/>
        <path class="cls-2" d="M84.88,34.59c-1.46-3.26-52.9-4.41-54.42-1.89-1.52,2.52-1.98,29.97-.6,32.89,1.38,2.91,52.89,3.2,54.61.67,1.72-2.53,1.87-28.42.41-31.67Z"/>
        <path class="cls-1" d="M30.1,35.54c1.58-2.52,53.56-1.56,55.09,1.7.09.2.18.47.26.82-.16-1.77-.37-3.08-.63-3.67-1.46-3.26-52.83-4.22-54.35-1.7-.31.52-.58,2.09-.8,4.29.13-.7.28-1.2.44-1.45Z"/>
      </g>
      <text/>
    </g>
  </g>
</svg>