<?xml version="1.0" encoding="UTF-8"?>
<svg xmlns="http://www.w3.org/2000/svg" xmlns:xlink="http://www.w3.org/1999/xlink" viewBox="0 0 268.95 114.71">
  <defs>
    <style>
      .cls-1 {
        filter: url(#drop-shadow-7);
      }

      .cls-2 {
        filter: url(#drop-shadow-6);
      }

      .cls-3 {
        fill: #ff9c05;
      }

      .cls-3, .cls-4 {
        mix-blend-mode: multiply;
      }

      .cls-3, .cls-4, .cls-5, .cls-6, .cls-7, .cls-8, .cls-9 {
        stroke-width: 0px;
      }

      .cls-3, .cls-4, .cls-9 {
        opacity: .3;
      }

      .cls-4 {
        fill: #dc8689;
      }

      .cls-10 {
        isolation: isolate;
      }

      .cls-5 {
        fill: #abcffb;
      }

      .cls-6 {
        fill: #e4fbeb;
      }

      .cls-7 {
        fill: #ebf4fe;
      }

      .cls-8 {
        fill: #f6c423;
      }

      .cls-9 {
        fill: #f8f8f8;
        mix-blend-mode: overlay;
      }
    </style>
    <filter id="drop-shadow-6" filterUnits="userSpaceOnUse">
      <feOffset dx="3" dy="5"/>
      <feGaussianBlur result="blur" stdDeviation="0"/>
      <feFlood flood-color="#dc8689" flood-opacity=".3"/>
      <feComposite in2="blur" operator="in"/>
      <feComposite in="SourceGraphic"/>
    </filter>
    <filter id="drop-shadow-7" filterUnits="userSpaceOnUse">
      <feOffset dx="1" dy="3"/>
      <feGaussianBlur result="blur-2" stdDeviation="0"/>
      <feFlood flood-color="#dc8689" flood-opacity=".3"/>
      <feComposite in2="blur-2" operator="in"/>
      <feComposite in="SourceGraphic"/>
    </filter>
  </defs>
  <g class="cls-10">
    <g id="Layer_1" data-name="Layer 1">
      <g class="cls-2">
        <path class="cls-5" d="M192.75,37.95c-2.95-1.71-40.75,2.1-73.25,2.33v42.88c34.13.08,76.71-.41,78.15-1.05,3.44-1.53,6.66-37.47-4.9-44.17Z"/>
        <path class="cls-7" d="M192.75,37.95c-2.9-1.81-43.69-2.19-65.82-1.96l-7.42,42.88c23.77.08,73.78-.41,75.21-1.05,3.44-1.53,4.18-36.04-1.96-39.87Z"/>
        <path class="cls-4" d="M189.06,41.86c-2.52-1.46-41.93-1.76-62.13-1.56v3.7c20.77-.21,60.7.09,63.3,1.56.63.35,1.17,1.04,1.64,1.97-.63-2.82-1.55-4.94-2.8-5.67Z"/>
        <path class="cls-5" d="M71.18,79.51c.12.14,3.25,4.56,3.43,4.69,6.26,4.95,48.13,6.87,52.46,2.87,4.38-4.05,5.53-47.19,1.66-53.05-.06-.09-3.12-4.45-3.18-4.53-4.09-4.7-45.42-1.17-50.46,2.96-5.05,4.12-8.25,41.8-3.91,47.06Z"/>
        <path class="cls-7" d="M71.18,79.51c4.34,5.25,48.45,7.4,52.9,3.29,4.45-4.11,5.56-48.6,1.47-53.3-4.09-4.7-48.41-5.44-53.45-1.32-5.05,4.12-5.26,46.07-.92,51.33Z"/>
        <path class="cls-6" d="M120.9,34.99c-3.47-4.25-38.93-6.17-42.53-2.88-3.6,3.29-4.69,39.07-1.42,42.86,3.27,3.8,38.91,4.59,42.98,1.3,4.08-3.29,4.43-37.03.97-41.28Z"/>
        <path class="cls-4" d="M77.52,35.82c3.74-3.29,40.66-1.37,44.27,2.88.22.25.42.62.61,1.07-.38-2.31-.87-4.02-1.5-4.78-3.47-4.25-38.93-6.17-42.53-2.88-.74.68-1.37,2.73-1.89,5.59.32-.91.66-1.56,1.04-1.89Z"/>
        <g class="cls-1">
          <path class="cls-8" d="M98.31,74.35c-1.81-.6.38-13.69.38-13.69,0,0,0,0-.01,0h0c-.54.07-11.92,1.39-12.92.67-.16-.11-.23-.71-.24-1.63-.04-5.1,1.97-20.28,3.32-21.01,2.02-1.09,18.25-1.45,19.31-.11,1.06,1.33-1.78,11.48-1.78,11.48,0,0,9.81.08,10.3,1.94.49,1.86-16.53,22.95-18.35,22.35Z"/>
          <path class="cls-3" d="M104.04,68.43c-1.39.79-3.21,2-4.89,1.68-.64-.12-1.14-.46-1.48-.9-.16,2.62-.08,4.9.65,5.14.71.23,3.72-2.83,7.11-6.76-.46.29-.92.57-1.39.84Z"/>
          <path class="cls-9" d="M88.18,47.21c.19-1.75.72-6.62,1.82-7.24s15.82-1.05,16.41-.46c.59.59-18.23,7.7-18.23,7.7Z"/>
          <path class="cls-3" d="M99,57.48l-.32,3.19h0c-.54.07-11.92,1.39-12.92.67-.16-.11-.23-.71-.24-1.63.41-.47,1.22-.94,2.59-1.36,4.1-1.23,10.9-.87,10.9-.87Z"/>
        </g>
      </g>
    </g>
  </g>
</svg>