<?xml version="1.0" encoding="UTF-8"?>
<svg id="Layer_1" data-name="Layer 1" xmlns="http://www.w3.org/2000/svg" xmlns:xlink="http://www.w3.org/1999/xlink" viewBox="0 0 360 360">
  <defs>
    <style>
      .cls-1 {
        fill: #ffc129;
        opacity: .75;
      }

      .cls-1, .cls-2, .cls-3, .cls-4, .cls-5, .cls-6, .cls-7, .cls-8, .cls-9, .cls-10, .cls-11, .cls-12, .cls-13, .cls-14 {
        stroke-width: 0px;
      }

      .cls-2 {
        fill: url(#linear-gradient);
      }

      .cls-3 {
        opacity: .86;
      }

      .cls-3, .cls-10 {
        fill: #881009;
      }

      .cls-4 {
        fill: url(#linear-gradient-4);
      }

      .cls-5 {
        fill: url(#linear-gradient-2);
      }

      .cls-6 {
        fill: url(#linear-gradient-3);
      }

      .cls-7 {
        opacity: .31;
      }

      .cls-7, .cls-9 {
        fill: #db580a;
      }

      .cls-8 {
        fill: #0e170f;
      }

      .cls-11 {
        fill: #fff;
      }

      .cls-12 {
        fill: #ffc329;
      }

      .cls-13 {
        fill: #e68b2a;
      }

      .cls-14 {
        fill: #01b35c;
      }
    </style>
    <linearGradient id="linear-gradient" x1="67.1" y1="198.78" x2="67.1" y2="199.1" gradientUnits="userSpaceOnUse">
      <stop offset=".27" stop-color="#ffd52c"/>
      <stop offset=".65" stop-color="#eb991c"/>
      <stop offset="1" stop-color="#cd4005"/>
      <stop offset="1" stop-color="#cb3c04"/>
    </linearGradient>
    <linearGradient id="linear-gradient-2" x1="180.1" y1="80.22" x2="180.1" y2="275.89" xlink:href="#linear-gradient"/>
    <linearGradient id="linear-gradient-3" x1="151.62" y1="287.48" x2="173.51" y2="266.89" gradientUnits="userSpaceOnUse">
      <stop offset="0" stop-color="#ef6216"/>
      <stop offset="1" stop-color="#cb3c04"/>
    </linearGradient>
    <linearGradient id="linear-gradient-4" x1="202.71" y1="287.48" x2="224.6" y2="266.89" xlink:href="#linear-gradient-3"/>
  </defs>
  <g>
    <path class="cls-2" d="M67.07,199.02s.02.06.03.08c0-.11.01-.22.02-.32-.02.08-.03.16-.05.24Z"/>
    <path class="cls-5" d="M302.78,188.2c1.82-8.9-10-35.73-10-35.73,4.36,1.69,10,24.25,10,24.25l-.19-7.53c1.63-8.29-7.63-28.22-15.04-35.81s-20.38-22.38-20.38-22.38c0,0,.23,1.53.63,4.19-21.11-21.38-52.78-34.98-88.19-34.98-44.92,0-83.83,21.88-102.79,53.79-2.62,1.62-19.43,12.44-17.33,23.37,0,0,6.47-9.24,11.04-10.62-.66,1.65-1.26,3.32-1.81,5.01-5.01,5.69-12.27,16.36-11.44,29.84,0,0,3.83-11.09,8.48-18-.79,4.51-1.21,9.12-1.24,13.81-3.17,11.51-4.24,27.68,3.75,46.92,0,0-3.29-15.1-1.21-25.33-.24-.76-.52-1.77.05-.24.32,1.25.17.9-.02.32-.42,6.88,3.07,22.31,7.73,27.45l13,13.86s-8.36-23.85-8.72-25.68c3.58,18.17,59.34,61.16,100.5,61.16,48.52,0,90.02-25.52,106.95-61.63.83,11.8-6.31,25.88-6.31,25.88,11.33-14.73,12.85-29.72,11.7-40.74.76-2.91,1.38-5.86,1.83-8.85,2.41,8.78.64,21.26.64,21.26,0,0,1.09-5.99,4.36-11.67,2.09-3.64-1.4-12.22-4.18-17.92.05-1.1.09-2.21.1-3.33,4.93,5.02,5.72,14.39,5.72,14.39,1.89-5.3-3.06-17.72-6.25-24.79-.14-1.25-.32-2.5-.51-3.74,7.12,6.51,9.14,23.45,9.14,23.45Z"/>
  </g>
  <ellipse class="cls-6" cx="157.53" cy="281.91" rx="16.67" ry="19.17"/>
  <ellipse class="cls-4" cx="208.62" cy="281.91" rx="16.67" ry="19.17"/>
  <g>
    <path class="cls-11" d="M117.47,173.7s11.15-36.36,38.69-31.45c0,0,17.33,2.63,14.6,19.46-2.36,14.55-10.79,17.44-10.79,17.44,0,0-16.89,4.9-28.33,2.72s-14.17-8.17-14.17-8.17Z"/>
    <circle class="cls-14" cx="156.41" cy="164.73" r="13.99" transform="translate(-51.13 72.4) rotate(-22.5)"/>
    <circle class="cls-8" cx="159.32" cy="164.73" r="9.08" transform="translate(-28.81 295.61) rotate(-80.78)"/>
    <ellipse class="cls-11" cx="160.48" cy="157.58" rx="3.9" ry="3"/>
  </g>
  <g>
    <path class="cls-11" d="M241.76,170.6s-11.15-36.36-38.69-31.45c0,0-17.33,2.63-14.6,19.46,2.36,14.55,10.79,17.44,10.79,17.44,0,0,16.89,4.9,28.33,2.72,11.44-2.18,14.17-8.17,14.17-8.17Z"/>
    <circle class="cls-14" cx="202.81" cy="161.63" r="13.99" transform="translate(-24.13 287.15) rotate(-67.5)"/>
    <circle class="cls-8" cx="199.91" cy="161.63" r="9.08" transform="translate(-23.31 34.11) rotate(-9.22)"/>
    <ellipse class="cls-11" cx="198.75" cy="154.48" rx="3.9" ry="3"/>
  </g>
  <ellipse class="cls-12" cx="182.14" cy="175.58" rx="4.42" ry="6.26" transform="translate(-29.02 314.9) rotate(-77.37)"/>
  <path class="cls-9" d="M188.17,175.58s-.52-4.18-4.52-3.63c0,0-6.36-.54-7.99,3.63,0,0,.89-5.09,6.26-5.09s6.26,5.09,6.26,5.09Z"/>
  <ellipse class="cls-10" cx="182.14" cy="199.95" rx="4.9" ry="9.89"/>
  <path class="cls-7" d="M159.97,179.15s-26.49,4.94-42.5-5.45c0,0,10.62,18.79,42.5,5.45Z"/>
  <path class="cls-7" d="M199.91,175.91s26.49,4.94,42.5-5.45c0,0-10.62,18.79-42.5,5.45Z"/>
  <path class="cls-3" d="M170.63,154.48s-24.8-29.33-53.16,19.22c0,0,9.07-23.91,17.6-28,8.53-4.09,32.82-6.32,35.56,8.78Z"/>
  <path class="cls-3" d="M190.57,150.87s24.8-29.33,53.16,19.22c0,0-9.07-23.91-17.6-28s-32.82-6.32-35.56,8.78Z"/>
  <path class="cls-13" d="M214.37,75.58s23.72-29.65-51.67-30.49c0,0,29.8,11.01,27.6,18.64,0,0,3.74-14.4-54.71-10.16,0,0,40.69,15.21,41.16,22.02,0,0-6.43-11.86-41.16-11.01s-30.49-4.24-30.49-4.24c0,0,13.55,16.09,31.34,15.25,17.79-.85-37.27-4.24-57.6,25.41,0,0,10.16-7.62,26.26-7.62,0,0-27.11,3.39-36.42,36.42,0,0,16.94-16.94,36.42-20.33,0,0-37.27,15.25-39.81,38.12,0,0,11.86-16.09,31.34-20.33,0,0-20.33,18-22.87,45.43,0,0,5.3-9.23,19.88-22.53,6.42-5.86,14.65-12.51,25.02-19.51l17.79-11.86s-8.47,22.34-35.58,38.12c0,0,43.82-8.05,65.9-41.51,0,0-15.93,28.8-36.26,39.81-20.33,11.01,57.6-16.94,66.92-40.66,0,0,6.56,27.11-8.58,39.81,0,0,44.16-11.86,39.92-49.13,0,0,8.56,27.43,37.27,29.65,0,0-25.5-24.56-21.22-41.51,0,0,38.16,25.97,28.84,48.14,0,0,49.98-50.68-59.29-65.93Z"/>
  <path class="cls-1" d="M206.11,75.58s23.72-29.65-51.67-30.49c0,0,29.8,11.01,27.6,18.64,0,0,3.74-14.4-54.71-10.16,0,0,40.69,15.21,41.16,22.02,0,0-6.43-11.86-41.16-11.01s-30.49-4.24-30.49-4.24c0,0,13.55,16.09,31.34,15.25,17.79-.85-37.27-4.24-57.6,25.41,0,0,10.16-7.62,26.26-7.62,0,0-27.11,3.39-36.42,36.42,0,0,16.94-16.94,36.42-20.33,0,0-37.27,15.25-39.81,38.12,0,0,11.86-16.09,31.34-20.33,0,0-20.33,18-22.87,45.43,0,0,5.3-9.23,19.88-22.53,6.42-5.86,14.65-12.51,25.02-19.51l17.79-11.86s-8.47,22.34-35.58,38.12c0,0,43.82-8.05,65.9-41.51,0,0-15.93,28.8-36.26,39.81-20.33,11.01,57.6-16.94,66.92-40.66,0,0,6.56,27.11-8.58,39.81,0,0,44.16-11.86,39.92-49.13,0,0,8.56,27.43,37.27,29.65,0,0-25.5-24.56-21.22-41.51,0,0,38.16,25.97,28.84,48.14,0,0,49.98-50.68-59.29-65.93Z"/>
</svg>