<?xml version="1.0" encoding="UTF-8"?>
<svg id="Layer_1" data-name="Layer 1" xmlns="http://www.w3.org/2000/svg" xmlns:xlink="http://www.w3.org/1999/xlink" viewBox="0 0 360 360">
  <defs>
    <style>
      .cls-1 {
        fill: url(#Unbenannter_Verlauf_27-3);
      }

      .cls-1, .cls-2, .cls-3, .cls-4, .cls-5, .cls-6, .cls-7, .cls-8, .cls-9, .cls-10, .cls-11, .cls-12, .cls-13 {
        stroke-width: 0px;
      }

      .cls-2 {
        fill: url(#Unbenannter_Verlauf_27-2);
      }

      .cls-3 {
        fill: url(#Unbenannter_Verlauf_21-3);
      }

      .cls-4 {
        fill: url(#Unbenannter_Verlauf_21-2);
      }

      .cls-5 {
        fill: url(#Unbenannter_Verlauf_27);
      }

      .cls-6 {
        fill: url(#Unbenannter_Verlauf_21);
      }

      .cls-7 {
        fill: #4d9cf8;
      }

      .cls-8 {
        fill: #0e170f;
      }

      .cls-9 {
        fill: #1beb83;
      }

      .cls-10 {
        fill: #b292f7;
      }

      .cls-11 {
        fill: #8763ea;
      }

      .cls-12 {
        fill: #fff;
      }

      .cls-13 {
        fill: #00003c;
      }
    </style>
    <linearGradient id="Unbenannter_Verlauf_27" data-name="Unbenannter Verlauf 27" x1="67" y1="197.33" x2="67" y2="197.65" gradientUnits="userSpaceOnUse">
      <stop offset="0" stop-color="#003276"/>
      <stop offset="1" stop-color="#006eff"/>
    </linearGradient>
    <linearGradient id="Unbenannter_Verlauf_27-2" data-name="Unbenannter Verlauf 27" x1="180" y1="78.77" x2="180" y2="274.44" xlink:href="#Unbenannter_Verlauf_27"/>
    <linearGradient id="Unbenannter_Verlauf_21" data-name="Unbenannter Verlauf 21" x1="151.52" y1="286.03" x2="173.41" y2="265.44" gradientUnits="userSpaceOnUse">
      <stop offset=".2" stop-color="#003276"/>
      <stop offset="1" stop-color="#006eff"/>
    </linearGradient>
    <linearGradient id="Unbenannter_Verlauf_21-2" data-name="Unbenannter Verlauf 21" x1="202.61" y1="286.03" x2="224.5" y2="265.44" xlink:href="#Unbenannter_Verlauf_21"/>
    <linearGradient id="Unbenannter_Verlauf_27-3" data-name="Unbenannter Verlauf 27" x1="58.82" y1="104.78" x2="278.6" y2="104.78" xlink:href="#Unbenannter_Verlauf_27"/>
    <linearGradient id="Unbenannter_Verlauf_21-3" data-name="Unbenannter Verlauf 21" x1="146.95" y1="290.53" x2="181.58" y2="257.96" xlink:href="#Unbenannter_Verlauf_21"/>
  </defs>
  <g>
    <g>
      <path class="cls-5" d="M66.97,197.57s.02.06.03.08c0-.11.01-.22.02-.32-.02.08-.03.16-.05.24Z"/>
      <path class="cls-2" d="M302.68,186.75c1.82-8.9-10-35.73-10-35.73,4.36,1.69,10,24.25,10,24.25l-.19-7.53c1.63-8.29-7.63-28.22-15.04-35.81s-20.38-22.38-20.38-22.38c0,0,.23,1.53.63,4.19-21.11-21.38-52.78-34.98-88.19-34.98-44.92,0-83.83,21.88-102.79,53.79-2.62,1.62-19.43,12.44-17.33,23.37,0,0,6.47-9.24,11.04-10.62-.66,1.65-1.26,3.32-1.81,5.01-5.01,5.69-12.27,16.36-11.44,29.84,0,0,3.83-11.09,8.48-18-.79,4.51-1.21,9.12-1.24,13.81-3.17,11.51-4.24,27.68,3.75,46.92,0,0-3.29-15.1-1.21-25.33-.24-.76-.52-1.77.05-.24.32,1.25.17.9-.02.32-.42,6.88,3.07,22.31,7.73,27.45l13,13.86s-8.36-23.85-8.72-25.68c3.58,18.17,59.34,61.16,100.5,61.16,48.52,0,90.02-25.52,106.95-61.63.83,11.8-6.31,25.88-6.31,25.88,11.33-14.73,12.85-29.72,11.7-40.74.76-2.91,1.38-5.86,1.83-8.85,2.41,8.78.64,21.26.64,21.26,0,0,1.09-5.99,4.36-11.67,2.09-3.64-1.4-12.22-4.18-17.92.05-1.1.09-2.21.1-3.33,4.93,5.02,5.72,14.39,5.72,14.39,1.89-5.3-3.06-17.72-6.25-24.79-.14-1.25-.32-2.5-.51-3.74,7.12,6.51,9.14,23.45,9.14,23.45Z"/>
    </g>
    <ellipse class="cls-6" cx="157.43" cy="280.46" rx="16.67" ry="19.17"/>
    <ellipse class="cls-4" cx="208.53" cy="280.46" rx="16.67" ry="19.17"/>
    <g>
      <path class="cls-12" d="M117.37,172.25s11.15-36.36,38.69-31.45c0,0,17.33,2.63,14.6,19.46-2.36,14.55-10.79,17.44-10.79,17.44,0,0-16.89,4.9-28.33,2.72s-14.17-8.17-14.17-8.17Z"/>
      <circle class="cls-9" cx="156.31" cy="163.28" r="13.99" transform="translate(-50.59 72.25) rotate(-22.5)"/>
      <circle class="cls-8" cx="159.22" cy="163.28" r="9.08" transform="translate(-27.46 294.29) rotate(-80.78)"/>
      <ellipse class="cls-12" cx="160.38" cy="156.13" rx="3.9" ry="3"/>
    </g>
    <g>
      <path class="cls-12" d="M241.66,169.15s-11.15-36.36-38.69-31.45c0,0-17.33,2.63-14.6,19.46,2.36,14.55,10.79,17.44,10.79,17.44,0,0,16.89,4.9,28.33,2.72,11.44-2.18,14.17-8.17,14.17-8.17Z"/>
      <circle class="cls-9" cx="202.72" cy="160.18" r="13.99" transform="translate(-22.85 286.17) rotate(-67.5)"/>
      <circle class="cls-8" cx="199.81" cy="160.18" r="9.08" transform="translate(-23.08 34.07) rotate(-9.22)"/>
      <ellipse class="cls-12" cx="198.65" cy="153.03" rx="3.9" ry="3"/>
    </g>
    <path class="cls-7" d="M188.14,175.49c-.53,2.38-3.7,3.7-7.07,2.94-3.37-.76-6.07-3.2-5.53-5.58s4.09-3.8,7.47-3.05c3.37.76,5.67,3.3,5.14,5.68Z"/>
    <path class="cls-13" d="M187.89,173.63s-.44-2.63-4.35-3.14c0,0-6.14-.65-8,2.77,0,0,.03-4.23,6.27-4.23,5.35,0,6.09,4.59,6.09,4.59Z"/>
    <path class="cls-7" d="M159.87,177.7s-26.49,4.94-42.5-5.45c0,0,10.62,18.79,42.5,5.45Z"/>
    <path class="cls-7" d="M201.98,175.33s24.31,4.06,40.33-6.32c0,0-8.45,19.66-40.33,6.32Z"/>
    <path class="cls-13" d="M170.54,153.03s-23.92-21.93-53.16,19.22c0,0,4.4-18.76,17.6-28,7.75-5.42,27.13-16.48,35.56,8.78Z"/>
    <path class="cls-13" d="M188.5,148.11s24.79-27.52,53.15,21.04c0,0-8.23-22.61-15.62-28.51-12.45-9.92-34.79-7.63-37.53,7.47Z"/>
    <path class="cls-1" d="M207.9,71.48s23.72-29.65-51.67-30.49c0,0,29.8,11.01,27.6,18.64,0,0,3.74-14.4-54.71-10.16,0,0,40.69,15.21,41.16,22.02,0,0-6.43-11.86-41.16-11.01-34.73.85-30.49-4.24-30.49-4.24,0,0,13.55,16.09,31.34,15.25s-37.27-4.24-57.6,25.41c0,0,10.16-7.62,26.26-7.62,0,0-27.11,3.39-36.42,36.42,0,0,16.94-16.94,36.42-20.33,0,0-37.27,15.25-39.81,38.12,0,0,11.86-16.09,31.34-20.33,0,0-20.33,18-22.87,45.43,0,0,5.3-9.23,19.88-22.53,6.42-5.86,14.65-12.51,25.02-19.51l17.79-11.86s-8.47,22.34-35.58,38.12c0,0,43.82-8.05,65.9-41.51,0,0-15.93,28.8-36.26,39.81-20.33,11.01,57.6-16.94,66.92-40.66,0,0,6.56,27.11-8.58,39.81,0,0,44.16-11.86,39.92-49.13,0,0,8.56,27.43,37.27,29.65,0,0-25.5-24.56-21.22-41.51,0,0,38.16,25.97,28.84,48.14,0,0,49.98-50.68-59.29-65.93Z"/>
    <g>
      <g>
        <polygon class="cls-10" points="179.31 59.08 186.94 102.02 208.37 79.45 240.61 79.08 229.44 49.27 209.96 67.39 179.31 59.08"/>
        <circle class="cls-11" cx="208.9" cy="73.48" r="9.42"/>
        <circle class="cls-10" cx="210.03" cy="73.48" r="8.33"/>
      </g>
      <path class="cls-11" d="M214.67,66.55l13.13-5.54-9.48,7.63,16.84,4.84h-16.78s.93-5.52-3.7-6.93Z"/>
      <path class="cls-11" d="M201.7,67.42l-13.4-2.28,9.52,3.77-12.24,9.85,13.92-5.29-9.64,17.5,11.86-12.92s-3.49-7.23,0-10.64Z"/>
    </g>
  </g>
  <ellipse class="cls-13" cx="181.85" cy="202.76" rx="4.9" ry="9.89"/>
  <ellipse class="cls-3" cx="156.31" cy="281.73" rx="16.67" ry="37.29"/>
</svg>