<?xml version="1.0" encoding="UTF-8"?>
<svg id="Layer_1" data-name="Layer 1" xmlns="http://www.w3.org/2000/svg" viewBox="0 0 203.55 53.83">
  <defs>
    <style>
      .cls-1 {
        fill: #abcffb;
        stroke-width: 0px;
      }
    </style>
  </defs>
  <path class="cls-1" d="M22.51,45.36c-1.06.38-1.84.53-2.36.45-.67-.1-1.18-.61-1.54-1.55-.1-.27-.47-1.26-1.09-2.98s-1.25-3.42-1.89-5.11c-.07-.18-.17-.25-.32-.23-2.69.38-4.61-.68-5.75-3.23-.43-.95-.78-1.77-1.05-2.46-1.09-2.76-1.48-4.43-1.15-5.01.17-.32.56-.59,1.15-.82,1.16-.45,2.03-.73,2.61-.84.58-.12.99-.11,1.22.03.23.13.41.36.53.7.32.86.63,1.67.93,2.41.3.74.6,1.54.91,2.38.16.43.34.8.55,1.12.46.71,1.09.91,1.92.61.48-.17.8-.4.96-.69.25-.46.2-1.2-.16-2.21-.3-.85-.57-1.65-.81-2.42-.24-.77-.52-1.58-.82-2.45-.12-.33-.13-.63-.03-.89.17-.47,1.32-1.08,3.46-1.8.6-.2,1.07-.23,1.42-.1.61.24,1.37,1.78,2.29,4.6.23.7.48,1.56.76,2.56.74,2.69-.07,4.73-2.41,6.18-.18.11-.24.25-.18.41.05.15.47,1.24,1.25,3.29s1.41,3.75,1.87,5.11c.25.71.22,1.27-.07,1.69-.29.41-1.03.82-2.2,1.24Z"/>
  <path class="cls-1" d="M38.03,40.38c-.76.21-1.54.4-2.34.57-3.01.63-4.99-.48-5.93-3.47-.14-.44-.8-3.07-1.97-7.82-.4-1.63-.27-2.94.43-3.9.75-1.03,2.39-1.93,4.94-2.65,1.58-.45,2.9-.65,3.95-.64.86.01,1.6.21,2.19.59.81.52,1.42,1.48,1.86,2.82,1.18,3.6,2.01,6.19,2.39,7.7.31,1.25.34,2.26.1,3.06-.24.79-.66,1.42-1.26,1.89-.59.47-1.28.84-2.05,1.11-.77.27-1.54.52-2.31.73ZM54.33,36.4c-.78.16-1.57.29-2.38.4-3.02.42-4.9-.84-5.63-3.89-.76-3.2-1.3-5.54-1.62-7.03-.32-1.49-.6-2.76-.85-3.8-.29-1.23-.82-2.02-1.58-2.36-.76-.34-1.78-.36-3.03-.04-3.34.85-6.46,1.79-9.32,2.82-.72.26-1.23.44-1.54.53-.6.18-1.08.23-1.45.14-.36-.09-.65-.31-.87-.65-.22-.34-.41-.79-.59-1.35-.17-.53-.26-.98-.3-1.36-.03-.38.05-.69.26-.95.2-.25.57-.46,1.1-.62.65-.2,1.96-.63,3.94-1.25,4.61-1.45,8.17-2.4,10.61-2.98,1.8-.44,3.28-.52,4.43-.28,1.14.24,2.03.83,2.66,1.76.63.92,1.11,2.2,1.45,3.82.16.74.35,1.73.57,2.98.23,1.25.45,2.38.66,3.4.4,1.91.72,3.28.93,4.11.36,1.46.71,2.3,1.04,2.5.18.11.4.14.67.08.34-.07.56-.31.65-.71.07-.32.06-.88-.03-1.64-.11-.94-.42-2.6-.89-4.95-.34-1.67-.74-3.63-1.22-5.88-.46-2.16-.85-4.03-1.17-5.61-.1-.52,0-.91.34-1.15.46-.34,1.6-.69,3.41-1.03.6-.11,1.07-.08,1.39.1.61.35,1.45,3.25,2.51,8.67.5,2.55,1.1,5.84,1.81,9.86.54,3.1-.68,4.99-3.62,5.81-.8.22-1.58.42-2.35.57ZM36.91,36.4c.75-.21.69-1.86-.17-4.95-.46-1.64-.86-2.86-1.22-3.6-.38-.78-.84-1.11-1.3-.98-.45.13-.64.63-.56,1.5.08.87.36,2.11.82,3.72.89,3.08,1.7,4.52,2.43,4.31Z"/>
  <path class="cls-1" d="M63.77,9.85c.28-.04.55.02.79.18.24.16.38.36.42.6.03.21-.05.43-.24.66-1.07,1.24-1.66,2.14-1.79,2.69-.13.55-.19.83-.19.85,0,.02.02.03.06.02.01,0,.14-.03.38-.08.24-.05.67-.13,1.31-.22.84-.12,1.39-.03,1.67.29.28.31.53,1.26.75,2.84.07.53-.11.91-.55,1.17-.51.3-1.56.58-3.14.82-.72.11-1.24.05-1.56-.2-.31-.25-.54-.73-.67-1.45-.05-.31-.08-.46-.13-.77-.22-1.35-.22-2.5.02-3.43.24-.94.97-2.13,2.23-3.56.19-.23.41-.36.64-.4Z"/>
  <path class="cls-1" d="M84.42,32.2c-1.99.15-3.16,0-3.51-.46-.18-.23-.28-.51-.32-.86-.1-1.06-.25-2.18-.48-3.38-.22-1.19-.67-2.2-1.34-3.04-.67-.83-1.18-1.28-1.52-1.35s-.54-.1-.61-.1c-.11.01-.15.07-.14.18,0,.03,0,.04,0,.07.57,4.39.89,6.89.95,7.5.09.87-.13,1.47-.65,1.8-.39.25-1.12.44-2.19.56-1.29.15-2.17.07-2.65-.25-.48-.32-.78-.91-.89-1.78-.36-2.73-.94-7.5-1.72-14.31-.4-3.43-.64-5.5-.73-6.2-.04-.33,0-.61.12-.84.22-.43,1.28-.77,3.17-.99,2.1-.24,3.16-.35,5.26-.56,1.87-.18,3.48.05,4.77.67,1.56.75,2.4,2.07,2.52,3.9.07,1,.08,2.04.05,3.11-.03,1.16-.11,2.11-.25,2.83-.13.72-.4,1.35-.8,1.89-.16.23-.24.42-.23.55,0,.11.1.29.29.53,1.38,1.75,2.18,4.55,2.44,8.37.05.76-.06,1.3-.33,1.61-.27.31-.68.49-1.24.53ZM77.2,19.01c.59-.06.98-.43,1.16-1.11.16-.63.17-1.62.05-2.96-.11-1.19-.26-1.92-.46-2.2-.2-.28-.65-.38-1.34-.31-.53.05-.79.08-1.32.13-.18.02-.27.12-.25.29.53,3.38.82,5.38.88,6,.02.19.17.27.46.24.33-.03.49-.05.82-.08Z"/>
  <path class="cls-1" d="M91.28,31.79c-.86.04-1.52-.11-2-.45-.48-.34-.74-.96-.79-1.85-.08-1.48-.34-8.43-.95-20.63-.02-.47.12-.83.45-1.04.44-.29,1.19-.46,2.22-.51,1.75-.08,3.48-.1,5.17-.09,1.61,0,3.23,0,4.83,0,.3,0,.55.05.77.16.44.24.65,1.12.65,2.62,0,.42-.13.72-.39.91-.4.3-2.82.54-7.24.9-.16.02-.24.1-.23.26.04,1.35.14,2.93.31,4.74.11,1.16.22,2.34.27,3.5,0,.17.03.29.08.33.05.04.16.06.34.06,1.38-.04,2.52-.03,3.42.01.62.03,1.17.04,1.63.03.27,0,.5.05.69.15.43.24.64,1.12.64,2.62,0,.42-.12.73-.36.92-.24.19-.67.32-1.27.38-1.29.14-2.87.3-4.72.47-.09.01-.14.06-.13.15.02.52.03.78.06,1.29,0,.23,1.88.27,5.61.25.28,0,.51.05.71.16.4.24.6,1.12.6,2.62,0,.42-.12.72-.36.91s-.66.31-1.25.37c-3.5.38-6.41.65-8.75.76Z"/>
  <path class="cls-1" d="M119.73,32.26c-1.74-.13-3.08-.34-4.01-.62-2.39-.72-3.54-2.36-3.42-4.98.04-.9.13-2.35.26-4.36.32-4.68.61-8.1.84-10.21.18-1.63.74-2.8,1.71-3.47,1.06-.74,2.97-1.04,5.71-.84,1.65.12,2.99.37,3.99.74.79.3,1.42.73,1.86,1.28.63.79.92,1.91.87,3.36-.04,1.23-.09,2.17-.16,2.82-.05.52-.44.88-1.15,1.09-.57.17-1.25.21-2.04.14-1.45-.13-2.31-.42-2.57-.89-.13-.22-.18-.47-.16-.76.2-2.52-.11-3.82-.93-3.88-.49-.04-.85.37-1.09,1.23-.24.85-.43,2.33-.57,4.43-.24,3.5-.32,6.16-.24,7.99.08,1.83.45,2.76,1.13,2.81.4.03.76-.04,1.08-.22.32-.18.6-.6.84-1.26.2-.55.41-1.56.61-3.03.01-.14-.06-.22-.21-.23-.29-.02-.43-.04-.72-.06-.63-.05-1.01-.25-1.14-.59-.13-.34-.18-.85-.13-1.51.05-.71.2-1.23.43-1.57.23-.34.72-.48,1.46-.42,2.14.18,3.65.36,4.53.5.61.1,1.17.17,1.68.23.24.03.44.1.6.22.16.12.27.35.32.7.06.35.04.89-.04,1.62-.06.53-.33.83-.81.9-.11.02-.18.06-.21.1-.03.05-.05.13-.06.25-.04.51-.07,1.08-.13,1.66-.3,2.72-.92,4.58-1.83,5.58-.69.76-1.66,1.19-2.91,1.3-.95.08-2.08.08-3.4-.02Z"/>
  <path class="cls-1" d="M142.45,35.14c-1.97-.35-3.07-.77-3.29-1.32-.12-.27-.15-.57-.1-.91.17-1.05.29-2.18.37-3.39.08-1.21-.11-2.3-.55-3.27-.45-.97-.83-1.53-1.14-1.69-.31-.15-.5-.23-.57-.24-.1-.02-.17.03-.18.14,0,.03,0,.04,0,.07-.53,4.4-.84,6.9-.93,7.5-.13.86-.49,1.39-1.07,1.59-.44.15-1.2.15-2.26,0-1.29-.17-2.12-.46-2.51-.89-.39-.43-.53-1.07-.43-1.94.33-2.74.94-7.5,1.86-14.29.46-3.42.73-5.49.82-6.19.04-.33.15-.59.32-.78.32-.36,1.43-.43,3.32-.18,2.1.28,3.15.43,5.24.76,1.86.29,3.37.9,4.47,1.83,1.33,1.12,1.82,2.6,1.49,4.4-.18.99-.43,2-.72,3.02-.32,1.12-.63,2.02-.94,2.68-.31.66-.72,1.21-1.25,1.63-.21.19-.33.35-.35.48-.02.11.03.3.15.58.91,2.04,1,4.94.3,8.71-.14.75-.38,1.24-.72,1.48-.34.24-.79.3-1.33.21ZM138.68,20.57c.59.09,1.06-.18,1.4-.79.31-.57.57-1.53.78-2.85.19-1.18.22-1.93.09-2.24-.12-.32-.53-.53-1.22-.63-.52-.08-.79-.12-1.31-.19-.18-.03-.29.05-.31.22-.32,3.41-.53,5.42-.62,6.03-.03.19.1.3.39.34.33.05.49.07.82.12Z"/>
  <path class="cls-1" d="M149.22,36.44c-.84-.17-1.45-.48-1.83-.93-.38-.45-.48-1.11-.31-1.99.28-1.46,1.75-8.25,4.17-20.23.09-.46.32-.77.69-.9.5-.17,1.27-.15,2.28.06,1.73.36,3.42.76,5.06,1.19,1.57.41,3.15.8,4.72,1.19.29.07.53.19.71.35.37.34.36,1.25,0,2.7-.1.41-.3.67-.6.79-.47.19-2.89-.18-7.29-.93-.16-.02-.25.04-.29.19-.29,1.32-.58,2.88-.87,4.67-.18,1.15-.37,2.32-.6,3.45-.04.17-.04.29,0,.34s.14.1.32.14c1.35.3,2.47.6,3.33.86.6.18,1.13.32,1.58.44.27.07.48.17.64.31.36.34.35,1.24-.02,2.7-.1.41-.3.68-.58.8-.29.13-.73.14-1.33.05-1.3-.19-2.87-.43-4.72-.72-.09,0-.15.03-.17.12-.11.51-.16.76-.27,1.27-.05.23,1.76.73,5.41,1.64.27.07.49.18.65.33.33.33.31,1.23-.06,2.69-.1.41-.29.67-.57.8-.28.12-.72.14-1.31.05-3.51-.5-6.41-.96-8.72-1.44Z"/>
  <path class="cls-1" d="M172.96,42.68c-.71-.23-1.23-.52-1.56-.88-.33-.37-.47-.92-.43-1.67.04-.58.18-1.71.42-3.38,0-.07-.02-.11-.07-.13-.03-.01-.29-.07-.78-.17-.49-.1-1.21-.27-2.18-.49-.09-.02-.17.03-.22.13-.62,1.4-1.07,2.33-1.33,2.8-.36.64-.79,1.03-1.27,1.16-.48.13-1.06.1-1.75-.09-1.35-.37-2.27-.77-2.77-1.19-.39-.33-.51-.82-.35-1.46.07-.29.45-1.16,1.14-2.62,5.32-11.29,8.77-17.01,9.84-17.35.44-.14.96-.16,1.55-.07.59.1,1.26.25,2.01.48,1.58.47,2.64.95,3.18,1.42,1.03.92.85,8.15-1.11,21.52-.1.67-.2,1.14-.3,1.42-.21.62-.57.97-1.08,1.06-.65.11-1.64-.06-2.96-.48ZM171.9,32.27c.09.03.15,0,.17-.05.07-.23.34-2.16.76-5.79.02-.1.02-.15,0-.15s-.04.04-.09.13c-.92,1.82-1.77,3.56-2.54,5.24-.01.04.01.07.07.09.6.18,1.15.38,1.64.54Z"/>
  <path class="cls-1" d="M181.94,45.75c-1.19-.44-1.95-.89-2.27-1.37-.32-.48-.33-1.15-.04-2.01.52-1.48,1.61-4.53,3.29-9.15,1.68-4.61,2.53-6.95,2.55-7,.02-.06.02-.13,0-.19s-.1-.12-.24-.17c-1.39-.42-2.4-.74-3.03-.95-.67-.22-1.07-.55-1.18-.99-.09-.35,0-.94.26-1.75.23-.7.49-1.19.76-1.46.42-.42,1.09-.5,2.01-.19,2.47.83,5.18,1.82,8.11,2.98,1.62.64,2.71,1.08,3.26,1.3.55.22.84.56.86,1.02.02.46-.15,1.16-.53,2.11-.16.39-.39.63-.7.7-.31.08-.78.02-1.4-.16-.47-.14-1.15-.34-2.04-.62-.07-.03-.12-.03-.15-.01-.03.02-.06.05-.08.1-.55,1.73-1.23,3.79-2.04,6.17s-1.58,4.62-2.31,6.72c-.73,2.1-1.22,3.47-1.46,4.12-.33.86-.85,1.28-1.56,1.29-.45,0-1.14-.16-2.07-.5Z"/>
</svg>