<?xml version="1.0" encoding="UTF-8"?>
<svg id="Layer_1" data-name="Layer 1" xmlns="http://www.w3.org/2000/svg" viewBox="0 0 203.55 53.83">
  <defs>
    <style>
      .cls-1 {
        fill: #abcffb;
        stroke-width: 0px;
      }
    </style>
  </defs>
  <path class="cls-1" d="M75.03,35.37c-2.46.76-4.25.97-5.44.5-1.01-.39-1.86-1.3-2.53-2.75-.81-1.76-2.17-4.91-4.1-9.4-.79-1.85-1.37-3.19-1.7-4.02-.9-2.28-.4-4.18,1.61-5.61.94-.67,2.58-1.42,4.94-2.14.95-.29,1.93-.55,2.92-.76,1.92-.41,3.45-.25,4.53.43.95.6,1.58,1.65,1.92,3.13.19.81.3,1.53.34,2.17s-.07,1.16-.33,1.58c-.26.41-.77.71-1.51.9-1.21.31-2.12.5-2.74.55-.68.05-1.12-.1-1.31-.42-.11-.18-.2-.39-.27-.63-.32-1.1-.65-1.93-.98-2.46-.33-.54-.78-.72-1.35-.54-.44.14-.64.62-.58,1.45.05.83.31,2.01.76,3.54.45,1.53,1.04,3.41,1.76,5.64.64,1.99,1.18,3.37,1.61,4.15s.86,1.09,1.31.96c.38-.12.58-.48.61-1.09.03-.61-.15-1.58-.54-2.91-.14-.49-.03-.9.34-1.23.37-.33,1.08-.64,2.12-.92.79-.21,1.48-.26,2.07-.2.78.09,1.24.4,1.36.93.11.48.27,1.41.49,2.8.28,1.75.02,3.08-.76,3.99-.78.91-2.29,1.66-4.54,2.35Z"/>
  <path class="cls-1" d="M90.53,32.04c-1.5.19-2.73.23-3.7.11s-1.75-.48-2.34-1.08-1.04-1.48-1.35-2.65c-.23-.89-.58-2.29-1.04-4.19-.46-1.9-.92-3.83-1.37-5.79-.45-1.96-.77-3.38-.95-4.25-.26-1.26-.2-2.28.18-3.08.38-.79.98-1.42,1.78-1.88.8-.46,1.71-.8,2.73-1.01,1.01-.22,2.02-.38,3.01-.51.98-.12,1.99-.21,3.03-.25s2,.06,2.89.31c.88.25,1.61.71,2.18,1.38.57.67.88,1.65.94,2.94.04.9.08,2.35.12,4.36.04,2.01.07,3.99.09,5.95.02,1.96.03,3.39.02,4.31-.01,1.2-.23,2.17-.65,2.9-.42.72-1.09,1.26-2,1.62-.91.36-2.1.62-3.59.8ZM90.05,28.17c.46-.06.72-.52.79-1.41.07-.88,0-2.36-.24-4.44-.26-2.33-.5-4.29-.72-5.87s-.47-2.76-.76-3.54c-.29-.78-.67-1.14-1.12-1.09-.47.06-.75.5-.84,1.33-.09.83-.04,2.03.13,3.62.18,1.58.43,3.54.75,5.86.29,2.07.58,3.53.86,4.36.29.84.66,1.23,1.13,1.17Z"/>
  <path class="cls-1" d="M107.21,31.5c-1.51-.09-2.72-.27-3.65-.57-.93-.3-1.63-.79-2.09-1.49-.47-.7-.75-1.65-.84-2.85-.07-.92-.15-2.35-.26-4.31-.1-1.95-.2-3.93-.28-5.94-.08-2.01-.14-3.46-.15-4.36-.02-1.28.22-2.28.74-2.99.52-.71,1.22-1.22,2.09-1.52.87-.3,1.83-.47,2.86-.5,1.03-.03,2.05,0,3.05.05.99.06,2,.16,3.02.31,1.03.15,1.96.43,2.78.83.82.4,1.46.99,1.9,1.76s.56,1.79.39,3.06c-.12.89-.35,2.32-.68,4.31-.33,1.98-.66,3.94-1,5.86-.33,1.93-.59,3.34-.77,4.24-.23,1.18-.62,2.09-1.17,2.73-.55.63-1.3,1.04-2.26,1.22s-2.18.22-3.68.13ZM107.44,27.61c.46.03.8-.38,1.03-1.24.23-.85.43-2.32.58-4.41.17-2.34.29-4.31.37-5.9.07-1.59.04-2.8-.1-3.62-.14-.82-.44-1.25-.9-1.27-.47-.03-.83.36-1.06,1.15s-.41,1.99-.53,3.58-.23,3.56-.34,5.9c-.1,2.09-.08,3.57.05,4.45.13.88.43,1.33.89,1.35Z"/>
  <path class="cls-1" d="M121.01,33.4c-1.96-.42-3.05-.86-3.27-1.4-.12-.27-.14-.57-.08-.91.12-.7.45-2.73.99-6.1,1.07-6.73,1.82-11.44,2.28-14.11.15-.89.54-1.47,1.17-1.71.63-.24,1.74-.22,3.3.11,1.56.33,2.55.72,2.97,1.13.42.41.54.97.36,1.68-.18.75-.66,2.38-1.41,4.89-1.51,5.04-2.59,9-3.27,11.87-.04.16-.04.29-.02.39.02.1.12.17.28.21.11.03.73.14,1.84.36,1.11.22,1.86.41,2.25.52.63.18.99.49,1.08.91.08.42,0,1.02-.24,1.8-.23.73-.49,1.24-.79,1.54-.3.3-.78.36-1.45.2-1.95-.47-3.95-.93-5.99-1.38Z"/>
  <path class="cls-1" d="M134.59,30.13c-1.26-.45-2.08-.89-2.44-1.36-.39-.5-.46-1.2-.17-2.1.41-1.3,1.3-3.9,2.7-7.78.92-2.55,1.55-4.29,1.84-5.21.17-.54.55-.81,1.12-.8.66,0,1.94.32,3.81,1.01.67.25,1.11.54,1.34.87.22.33.25.88.06,1.61-.17.69-.55,1.91-1.12,3.65-.57,1.74-1.18,3.53-1.82,5.38-.65,1.85-1.13,3.19-1.46,4.01-.27.69-.67,1.1-1.18,1.23s-1.4-.05-2.69-.51ZM131.29,36.27c-.54-.19-.91-.4-1.11-.64-.13-.15-.2-.36-.21-.64,0-.41.19-1.27.61-2.58.18-.55.57-.82,1.2-.81s1.62.24,2.98.74c.59.22.97.48,1.14.77.15.25.19.58.12.99-.07.41-.3,1.12-.7,2.13-.2.5-.57.77-1.08.77-.59,0-1.58-.26-2.95-.74Z"/>
</svg>