<?xml version="1.0" encoding="UTF-8"?>
<svg id="Layer_1" data-name="Layer 1" xmlns="http://www.w3.org/2000/svg" viewBox="0 0 203.55 53.83">
  <defs>
    <style>
      .cls-1 {
        fill: #abcffb;
        stroke-width: 0px;
      }
    </style>
  </defs>
  <path class="cls-1" d="M77.08,34.95c-.75.23-1.53.44-2.33.64-2.99.75-5.06-.19-6.21-3.1-.33-.83-.84-2.2-1.52-4.09-1.66-4.58-2.78-7.84-3.35-9.69-.49-1.6-.37-2.96.45-4.03.87-1.14,2.82-2.26,5.85-3.17,1.88-.57,3.46-.84,4.7-.87,1.01-.02,1.87.16,2.55.54.92.51,1.56,1.47,1.97,2.82.26.88.65,2.27,1.15,4.17,1.22,4.71,2.02,8.06,2.44,10,.27,1.26.26,2.27,0,3.04-.14.39-.32.75-.53,1.06-.22.31-.48.58-.79.82-.6.47-1.29.83-2.07,1.11-.77.27-1.54.53-2.3.76ZM75.88,31c.39-.12.55-.59.49-1.41-.06-.82-.29-2.01-.69-3.55-.41-1.54-.93-3.44-1.58-5.68-.58-2.02-1.09-3.42-1.53-4.2-.44-.78-.93-1.09-1.47-.92-.53.16-.76.69-.69,1.58.07.89.42,2.34,1.06,4.34.71,2.23,1.32,4.09,1.84,5.6.52,1.51.98,2.62,1.39,3.34.41.72.8,1.02,1.18.91Z"/>
  <path class="cls-1" d="M93.3,31.72c-.77.08-1.57.13-2.39.17-3.05.15-4.87-1.18-5.44-4.26-.16-.88-.39-2.33-.69-4.31-.74-4.81-1.21-8.22-1.41-10.15-.17-1.67.21-2.97,1.2-3.86,1.06-.94,3.16-1.66,6.28-1.97,1.94-.19,3.52-.15,4.74.06.99.18,1.79.52,2.38,1.02.8.68,1.25,1.74,1.38,3.15.09.91.2,2.36.32,4.31.29,4.86.43,8.29.47,10.29.02,1.28-.18,2.28-.59,2.99-.21.36-.45.67-.72.94-.27.26-.58.48-.92.65-.68.34-1.42.57-2.22.69-.81.12-1.6.22-2.39.3ZM92.89,27.6c.4-.04.65-.47.75-1.29s.1-2.03,0-3.62c-.1-1.59-.25-3.55-.45-5.88-.18-2.09-.41-3.57-.68-4.41-.28-.85-.7-1.25-1.26-1.19-.54.05-.87.53-.98,1.41-.1.88-.03,2.37.21,4.46.26,2.32.5,4.27.72,5.85.22,1.58.46,2.76.72,3.55.26.78.58,1.16.97,1.12Z"/>
  <path class="cls-1" d="M106.44,31.42c-1.21-.07-2.03-.25-2.47-.58-.5-.37-.75-1.02-.73-1.98.02-1.48.28-8.45.58-20.65.01-.47.21-.82.61-1,.55-.26,1.46-.36,2.71-.3,2.78.14,4.17.25,6.95.56,2.18.25,3.96.87,5.27,1.82,1.57,1.14,2.16,2.66,1.82,4.45-.62,3.27-1.42,5.49-2.37,6.67-.52.63-1.22,1.09-2.1,1.38-1.04.34-2.51.38-4.41.19-.71-.07-1.07-.11-1.79-.17-.21-.02-.32.04-.34.17,0,.03-.05.94-.15,2.72s-.22,3.41-.35,4.89c-.07.74-.31,1.24-.72,1.52-.41.28-1.24.36-2.5.29ZM111.76,18.03c.74.08,1.28-.32,1.62-1.19.22-.56.41-1.41.54-2.53.15-1.23.13-1.99-.04-2.29-.18-.29-.64-.48-1.39-.56-.64-.07-.96-.1-1.61-.15-.15-.01-.23.02-.24.11,0,.41-.03,1.55-.12,3.41s-.13,2.81-.14,2.85c0,.04.01.09.05.15.03.06.48.12,1.32.21Z"/>
  <path class="cls-1" d="M126.17,34.86c-.75-.23-1.5-.48-2.24-.74-1.48-.52-2.49-1.31-2.98-2.41-.41-.91-.47-2.09-.16-3.54.15-.71.36-1.2.62-1.46.41-.43,1.13-.54,2.15-.29,1.37.33,2.29.69,2.75,1.02.34.24.51.51.5.8,0,.21-.05.45-.12.69-.15.52-.2.95-.15,1.27s.32.56.81.71c.41.12.77.01,1.07-.33.3-.35.65-1.15,1.05-2.4.2-.62-.01-1.15-.63-1.57-.54-.36-1.74-.82-3.6-1.3-.86-.22-1.55-.57-2.06-1.05-1.04-.96-1.33-2.67-.8-5.16.33-1.54.69-2.91,1.08-4.1.71-2.16,1.94-3.54,3.72-4.04,1.5-.42,3.58-.3,6.18.49,2.32.7,4.04,1.52,5.16,2.4.78.6,1.32,1.26,1.63,1.95.53,1.16.46,2.57-.19,4.22-.22.57-.76,1.49-1.6,2.76-.35.54-1.08.62-2.17.31-.5-.14-1.02-.3-1.55-.49-.98-.34-1.66-.69-2.04-1.05-.38-.36-.48-.8-.32-1.31.04-.13.18-.35.43-.67.25-.32.53-.97.84-1.94.4-1.23.21-1.97-.56-2.21-1.42-.44-2.6.98-3.52,4.22-.26.9-.28,1.52-.08,1.85s.69.61,1.46.85c1.05.32,1.57.49,2.62.85,1.06.36,1.82.83,2.28,1.39.79,1,.9,2.42.31,4.19-.25.77-.55,1.57-.87,2.37-.2.5-.29.75-.49,1.25-.84,2.15-2.14,3.25-3.84,3.36-.77.05-1.55-.02-2.35-.23s-1.58-.41-2.34-.64Z"/>
</svg>