<?xml version="1.0" encoding="UTF-8"?>
<svg id="Layer_1" data-name="Layer 1" xmlns="http://www.w3.org/2000/svg" viewBox="0 0 203.55 53.83">
  <defs>
    <style>
      .cls-1 {
        fill: #abcffb;
        stroke-width: 0px;
      }
    </style>
  </defs>
  <path class="cls-1" d="M42.31,40.58c-.71.23-1.3.29-1.79.19-.48-.1-.92-.48-1.32-1.11-.31-.49-.85-1.49-1.63-2.99-.03-.06-.08-.08-.13-.06-.03.01-.28.12-.74.32-.46.2-1.15.49-2.07.88-.09.04-.12.12-.1.23.31,1.5.49,2.52.55,3.05.08.73-.04,1.3-.35,1.68-.32.39-.81.7-1.49.96-1.32.49-2.31.72-2.97.67-.52-.04-.9-.36-1.15-.98-.11-.28-.32-1.21-.61-2.79-2.32-12.27-2.82-18.94-2.13-19.86.29-.38.71-.7,1.26-.98.55-.27,1.2-.54,1.96-.8,1.59-.55,2.75-.78,3.48-.72,1.4.15,5.49,6.11,11.62,18.17.3.6.49,1.05.58,1.33.19.63.1,1.12-.27,1.49-.47.46-1.36.9-2.69,1.32ZM35.37,32.73c.09-.03.12-.08.1-.14-.08-.23-.99-1.95-2.77-5.14-.04-.09-.07-.13-.08-.13-.01,0-.01.06,0,.16.31,2.01.63,3.93.98,5.74.01.04.05.05.11.03.6-.2,1.17-.37,1.66-.52Z"/>
  <path class="cls-1" d="M61.88,35.43c-.76.16-1.33.25-1.69.29-.88.1-1.6-.17-2.13-.85-2.07-2.62-3.18-3.9-3.24-3.88-.06.01-.46,1.66-1.11,4.94-.17.84-.69,1.4-1.55,1.72-.41.15-.96.32-1.65.51-.36.1-.75.18-1.15.25-1.22.21-1.98-.11-2.24-.99-3.49-11.67-5.45-18.21-5.85-19.62-.27-.94-.16-1.65.34-2.15.41-.41,1.25-.81,2.53-1.15.74-.2,1.38-.32,1.91-.37.46-.04.85.04,1.14.2.37.2.65.61.81,1.23.17.67.91,4.27,2.27,10.76.57,2.72.88,4.15.92,4.31.03.12.06.17.1.16s.07-.09.1-.23c.29-1.1.52-1.9.7-2.39.47-1.37.98-2.12,1.53-2.25.65-.16,1.49.28,2.48,1.31.42.45.84.92,1.25,1.4.37.44.56.67.6.67.02,0,.03-.03.02-.09-.06-.27-.46-1.76-1.19-4.45-1.74-6.41-2.7-9.95-2.85-10.62-.17-.76-.05-1.32.35-1.7.4-.38,1.27-.71,2.59-.99,1.39-.29,2.37-.3,2.94-.07.57.24.94.81,1.11,1.71.51,2.66,1.36,7.36,2.56,14.06.6,3.35.96,5.38,1.09,6.08.17.9-.32,1.53-1.46,1.88-.45.14-.85.24-1.22.32Z"/>
  <path class="cls-1" d="M75,33.17c-1.5.21-2.73.24-3.69.11-.7-.1-1.3-.31-1.8-.65-.84-.59-1.43-1.63-1.79-3.13-.21-.9-.51-2.31-.91-4.22-1.04-5.03-1.73-8.4-2.03-10.09-.52-2.97.88-4.93,4.22-5.76.89-.22,1.77-.4,2.64-.51,1.91-.26,3.46-.19,4.59.2.99.35,1.77,1.05,2.32,2.04.67,1.21,1.16,3.12,1.44,5.71.05.47.07.7.12,1.17.06.54.08,1.05.07,1.53-.01.6-.19,1.1-.55,1.5-.35.4-1.01.65-1.97.76-3.55.42-5.33.71-5.35.72-.02.02.03.43.14,1.25.3,2.07.6,3.52.89,4.36.29.84.66,1.22,1.11,1.16.77-.11.98-1.41.65-3.92-.08-.61.21-1.07.87-1.37.38-.16.96-.29,1.72-.38.94-.11,1.71-.03,2.3.21.5.2.78.53.83.98.07.65.12,1.59.17,2.8.07,1.87-.39,3.2-1.36,4-.89.73-2.43,1.23-4.65,1.54ZM74.28,17.6c.23-.03.33-.15.3-.36-.25-1.93-.48-3.15-.71-3.67-.22-.51-.63-.73-1.21-.65-.59.08-.97.5-1.12,1.26-.15.76-.11,1.9.11,3.44.03.19.18.27.46.24.86-.11,1.3-.16,2.16-.26Z"/>
  <path class="cls-1" d="M90.95,31.63c-1.86.1-3.31-.02-4.37-.38-.75-.25-1.37-.62-1.83-1.12-.79-.83-1.28-2.13-1.44-3.89-.06-.61-.02-1.67.12-3.18.06-.64.6-1.06,1.61-1.22.44-.07.92-.12,1.42-.16.92-.07,1.6,0,2.03.2.43.2.66.57.69,1.11,0,.13-.04.39-.13.78-.09.39-.11,1.09-.04,2.11.08,1.29.45,1.92,1.1,1.88,1.21-.07,1.73-1.78,1.56-5.14-.05-.94-.21-1.53-.48-1.78-.27-.25-.78-.35-1.5-.31-.99.06-1.49.09-2.48.16-1.01.07-1.81-.05-2.4-.38-1.04-.57-1.72-1.79-1.98-3.63-.11-.81-.2-1.65-.28-2.51-.05-.54-.07-.8-.12-1.34-.21-2.3.51-3.88,2.17-4.7.75-.37,1.58-.62,2.49-.74.91-.12,1.81-.21,2.68-.25.87-.05,1.76-.07,2.64-.04,1.75.04,3.05.56,3.86,1.51.67.78,1.02,1.91,1.05,3.4.01.73-.07,1.25-.26,1.57-.3.52-.97.78-2,.82-1.4.04-2.37-.02-2.92-.19-.4-.13-.64-.33-.73-.61-.06-.2-.09-.42-.11-.68-.03-.54-.12-.96-.28-1.25-.16-.29-.5-.42-1.04-.4-.45.02-.76.25-.92.68-.17.43-.21,1.3-.13,2.62.04.65.42,1.07,1.12,1.25.61.16,1.86.18,3.72.11.86-.03,1.6.12,2.2.44,1.2.68,1.81,2.29,1.86,4.84.03,1.57,0,2.99-.08,4.24-.15,2.26-.88,3.87-2.12,4.82-1.04.79-2.6,1.23-4.68,1.35Z"/>
  <path class="cls-1" d="M107.31,31.42c-1.51-.04-2.73-.2-3.66-.49-.93-.29-1.62-.78-2.08-1.48-.46-.7-.73-1.65-.81-2.85-.06-.92-.13-2.35-.22-4.31-.08-1.95-.15-3.93-.21-5.94-.06-2.01-.1-3.46-.1-4.36,0-1.28.22-2.28.69-2.98.47-.7,1.09-1.21,1.86-1.52.77-.31,1.62-.48,2.53-.53s1.81-.06,2.7-.03c.88.03,1.77.09,2.69.19.92.1,1.75.32,2.5.67.75.35,1.34.89,1.77,1.62.43.73.61,1.74.52,3.02-.06.89-.18,2.34-.36,4.34-.18,2-.37,3.97-.56,5.92-.19,1.95-.35,3.38-.46,4.29-.15,1.2-.47,2.13-.97,2.8-.5.67-1.22,1.12-2.17,1.36-.94.24-2.16.33-3.66.28ZM107.42,27.52c.45.01.77-.41.97-1.27.2-.86.33-2.34.41-4.43.08-2.35.13-4.31.15-5.91.02-1.59-.05-2.8-.2-3.61-.15-.81-.44-1.23-.85-1.24-.42-.01-.74.39-.94,1.19s-.33,2-.41,3.59c-.07,1.59-.14,3.56-.19,5.91-.05,2.09,0,3.57.15,4.45.15.87.45,1.31.91,1.33Z"/>
  <path class="cls-1" d="M121.16,32.31c-2-.2-3.13-.54-3.39-1.06-.14-.26-.19-.55-.17-.9.62-8.26.93-12.39,1.54-20.65.07-.93.46-1.51,1.17-1.75.52-.18,1.38-.21,2.55-.1.69.07,1.28.16,1.76.29.48.12.84.32,1.08.58.07.07.15.12.25.13.06,0,.14,0,.23-.02,1.19-.28,2.16-.37,2.91-.27,1.54.19,2.64.45,3.28.74.9.4,1.57,1.01,1.99,1.84.04.07.09.11.15.12.06,0,.16-.02.3-.09,1.17-.64,2.5-.97,3.97-1,.58-.01,1.01,0,1.27.05.75.13,1.5.3,2.24.51s1.39.54,1.94,1c1.21,1,1.6,2.79,1.18,5.36-.26,1.58-.62,3.57-1.07,5.95-.97,5.09-1.67,8.57-2.06,10.41-.15.74-.47,1.21-.94,1.42-.47.21-1.3.19-2.49-.04-1.28-.25-2.11-.59-2.49-1.06-.32-.39-.42-.98-.28-1.75,1.07-5.83,1.6-8.74,2.67-14.57.17-.94.21-1.61.13-2.02s-.35-.65-.82-.73c-.91-.16-1.68-.12-2.31.11-.63.23-.99.69-1.1,1.38-.26,1.64-.54,3.6-.86,5.89-.32,2.29-.6,4.35-.86,6.2-.26,1.85-.42,2.97-.48,3.36-.12.78-.42,1.27-.9,1.48-.47.21-1.29.23-2.45.06-1.2-.17-2-.44-2.42-.83-.42-.39-.58-1.02-.47-1.88.77-5.85,1.15-8.78,1.92-14.63.12-.94.13-1.62.03-2.02-.1-.4-.38-.63-.84-.69-1.07-.13-1.64.06-1.71.55-.54,3.83-1.19,8.11-1.91,12.82-.3,1.97-.52,3.3-.66,3.99-.15.74-.37,1.25-.65,1.52-.28.27-.7.38-1.25.32Z"/>
  <path class="cls-1" d="M151.48,37.79c-1.47-.39-2.63-.83-3.46-1.32-.61-.36-1.09-.79-1.41-1.29-.55-.87-.7-2.06-.45-3.58.15-.91.42-2.33.79-4.25.98-5.04,1.63-8.43,2.01-10.1.66-2.94,2.71-4.21,6.13-3.69.91.14,1.8.32,2.65.54,1.88.5,3.28,1.16,4.19,1.96.79.7,1.24,1.65,1.37,2.79.16,1.38-.12,3.33-.86,5.82-.14.45-.2.68-.34,1.13-.16.52-.33,1-.53,1.44-.24.55-.61.94-1.09,1.17-.48.23-1.19.21-2.13-.06-3.47-.99-5.23-1.41-5.25-1.4-.03,0-.14.41-.35,1.2-.52,2.03-.8,3.48-.85,4.37-.05.89.14,1.38.58,1.5.75.2,1.45-.92,2.12-3.37.16-.6.61-.91,1.34-.92.42,0,1,.1,1.75.32.92.26,1.6.63,2.06,1.08.39.38.53.79.4,1.23-.19.63-.5,1.51-.93,2.65-.66,1.75-1.6,2.8-2.81,3.17-1.11.33-2.74.19-4.91-.38ZM156.8,23.15c.23.06.37,0,.42-.21.51-1.88.76-3.1.75-3.66-.01-.56-.3-.92-.87-1.07-.58-.15-1.09.09-1.52.73s-.84,1.71-1.23,3.22c-.05.18.06.31.34.4.84.23,1.26.35,2.11.59Z"/>
  <path class="cls-1" d="M165.23,34.7c-1.22-.41-2.01-.83-2.36-1.29-.38-.49-.43-1.18-.15-2.08.41-1.3,1.28-3.91,2.65-7.8.9-2.55,1.51-4.3,1.8-5.23.17-.54.52-.82,1.03-.84.59-.02,1.73.24,3.4.8.6.2.99.46,1.19.77.2.31.22.84.05,1.58-.15.69-.49,1.92-1,3.68-.51,1.76-1.05,3.57-1.63,5.45s-1.01,3.23-1.3,4.06c-.24.7-.61,1.13-1.1,1.29-.49.16-1.35.03-2.6-.39ZM162.07,40.91c-.54-.18-.91-.38-1.11-.62-.13-.15-.2-.36-.21-.64-.01-.41.18-1.27.6-2.58.17-.55.56-.83,1.17-.83.61,0,1.58.21,2.91.66.58.19.95.44,1.13.72.15.24.2.57.14.98s-.26,1.13-.62,2.16c-.18.51-.54.79-1.05.82-.59.03-1.58-.21-2.96-.66Z"/>
  <path class="cls-1" d="M173.13,37.49c-1.21-.46-1.98-.91-2.31-1.39-.36-.51-.38-1.2-.06-2.09.46-1.28,1.44-3.85,2.97-7.68,1-2.51,1.69-4.23,2.02-5.15.19-.53.55-.8,1.07-.8.6,0,1.73.31,3.38.94.59.23.98.5,1.16.82s.19.85,0,1.58c-.18.68-.57,1.9-1.15,3.63-.58,1.73-1.2,3.52-1.85,5.37s-1.14,3.18-1.47,4.01c-.27.69-.66,1.1-1.15,1.24-.5.14-1.35-.03-2.59-.5ZM169.71,43.57c-.54-.2-.9-.42-1.09-.67-.13-.15-.19-.37-.19-.65,0-.41.24-1.26.7-2.55.2-.54.6-.8,1.21-.78.61.02,1.58.28,2.89.78.57.22.94.48,1.1.76.14.24.18.58.1.99-.07.41-.31,1.12-.71,2.13-.2.5-.57.77-1.08.77-.59,0-1.58-.27-2.94-.78Z"/>
</svg>