<?xml version="1.0" encoding="UTF-8"?>
<svg id="Layer_1" data-name="Layer 1" xmlns="http://www.w3.org/2000/svg" xmlns:xlink="http://www.w3.org/1999/xlink" viewBox="0 0 148.6 222.51">
  <defs>
    <style>
      .cls-1 {
        fill: url(#Unbenannter_Verlauf_27-3);
      }

      .cls-1, .cls-2, .cls-3, .cls-4, .cls-5, .cls-6, .cls-7, .cls-8, .cls-9, .cls-10, .cls-11, .cls-12, .cls-13 {
        stroke-width: 0px;
      }

      .cls-2 {
        fill: url(#Unbenannter_Verlauf_27-2);
      }

      .cls-3 {
        fill: url(#Unbenannter_Verlauf_21-2);
      }

      .cls-4 {
        fill: #4d9cf8;
      }

      .cls-5 {
        fill: #e4fbeb;
      }

      .cls-6 {
        fill: #1beb83;
      }

      .cls-7 {
        fill: #00003c;
      }

      .cls-8 {
        fill: url(#Unbenannter_Verlauf_27);
      }

      .cls-9 {
        fill: url(#Unbenannter_Verlauf_21);
      }

      .cls-10 {
        fill: #8763ea;
      }

      .cls-11 {
        fill: #b292f7;
      }

      .cls-12 {
        fill: #fff;
      }

      .cls-13 {
        fill: #0e170f;
      }
    </style>
    <linearGradient id="Unbenannter_Verlauf_27" data-name="Unbenannter Verlauf 27" x1="8.23" y1="96.73" x2="8.23" y2="96.92" gradientUnits="userSpaceOnUse">
      <stop offset="0" stop-color="#003276"/>
      <stop offset="1" stop-color="#006eff"/>
    </linearGradient>
    <linearGradient id="Unbenannter_Verlauf_27-2" data-name="Unbenannter Verlauf 27" x1="74.12" y1="27.6" x2="74.12" y2="141.7" xlink:href="#Unbenannter_Verlauf_27"/>
    <linearGradient id="Unbenannter_Verlauf_21" data-name="Unbenannter Verlauf 21" x1="57.51" y1="148.46" x2="70.28" y2="136.45" gradientUnits="userSpaceOnUse">
      <stop offset=".2" stop-color="#003276"/>
      <stop offset="1" stop-color="#006eff"/>
    </linearGradient>
    <linearGradient id="Unbenannter_Verlauf_27-3" data-name="Unbenannter Verlauf 27" x1="3.46" y1="42.76" x2="131.62" y2="42.76" xlink:href="#Unbenannter_Verlauf_27"/>
    <linearGradient id="Unbenannter_Verlauf_21-2" data-name="Unbenannter Verlauf 21" x1="85.21" y1="155.31" x2="105.41" y2="136.32" xlink:href="#Unbenannter_Verlauf_21"/>
  </defs>
  <g>
    <g>
      <path class="cls-8" d="M8.21,96.87s.01.03.02.05c0-.06,0-.13.01-.19,0,.05-.02.09-.03.14Z"/>
      <path class="cls-2" d="M145.66,90.56c1.06-5.19-5.83-20.84-5.83-20.84,2.54.99,5.83,14.14,5.83,14.14l-.11-4.39c.95-4.83-4.45-16.45-8.77-20.88-4.32-4.43-11.88-13.05-11.88-13.05,0,0,.13.89.37,2.44-12.31-12.47-30.78-20.4-51.43-20.4-26.2,0-48.89,12.76-59.94,31.37-1.53.94-11.33,7.25-10.11,13.63,0,0,3.77-5.39,6.44-6.19-.38.96-.73,1.94-1.06,2.92-2.92,3.32-7.15,9.54-6.67,17.4,0,0,2.24-6.47,4.95-10.49-.46,2.63-.7,5.32-.72,8.05-1.85,6.71-2.47,16.14,2.19,27.36,0,0-1.92-8.8-.7-14.77-.14-.44-.3-1.03.03-.14.19.73.1.52-.01.19-.25,4.01,1.79,13.01,4.51,16.01l7.58,8.08s-4.87-13.91-5.08-14.98c2.09,10.6,34.6,35.67,58.6,35.67,28.29,0,52.49-14.88,62.37-35.94.48,6.88-3.68,15.09-3.68,15.09,6.61-8.59,7.49-17.33,6.82-23.76.44-1.69.8-3.42,1.06-5.16,1.41,5.12.38,12.4.38,12.4,0,0,.64-3.5,2.54-6.8,1.22-2.12-.82-7.12-2.44-10.45.03-.64.05-1.29.06-1.94,2.87,2.93,3.33,8.39,3.33,8.39,1.1-3.09-1.78-10.33-3.65-14.46-.08-.73-.18-1.46-.3-2.18,4.15,3.8,5.33,13.67,5.33,13.67Z"/>
    </g>
    <ellipse class="cls-9" cx="60.96" cy="145.21" rx="9.72" ry="11.18"/>
    <g>
      <path class="cls-12" d="M37.6,82.11s6.5-21.2,22.56-18.34c0,0,10.11,1.53,8.52,11.35-1.37,8.49-6.29,10.17-6.29,10.17,0,0-9.85,2.86-16.52,1.59-6.67-1.27-8.26-4.77-8.26-4.77Z"/>
      <circle class="cls-6" cx="60.31" cy="76.88" r="8.16" transform="translate(-24.83 28.93) rotate(-22.5)"/>
      <circle class="cls-13" cx="62.01" cy="76.88" r="5.3" transform="translate(-23.81 125.77) rotate(-80.78)"/>
      <ellipse class="cls-12" cx="62.68" cy="72.71" rx="2.28" ry="1.75"/>
    </g>
    <g>
      <path class="cls-12" d="M110.08,80.3s-6.5-21.2-22.56-18.34c0,0-10.11,1.53-8.52,11.35,1.37,8.49,6.29,10.17,6.29,10.17,0,0,9.85,2.86,16.52,1.59,6.67-1.27,8.26-4.77,8.26-4.77Z"/>
      <circle class="cls-6" cx="87.37" cy="75.07" r="8.16" transform="translate(-15.42 127.06) rotate(-67.5)"/>
      <circle class="cls-13" cx="85.68" cy="75.07" r="5.3" transform="translate(-10.92 14.69) rotate(-9.22)"/>
      <ellipse class="cls-12" cx="85" cy="70.9" rx="2.28" ry="1.75"/>
    </g>
    <path class="cls-4" d="M78.87,84c-.31,1.39-2.16,2.16-4.12,1.72-1.97-.44-3.54-1.86-3.23-3.25.31-1.39,2.39-2.22,4.35-1.78,1.97.44,3.31,1.92,3,3.31Z"/>
    <path class="cls-7" d="M78.73,82.91s-.26-1.53-2.54-1.83c0,0-3.58-.38-4.66,1.62,0,0,.02-2.46,3.65-2.46,3.12,0,3.55,2.68,3.55,2.68Z"/>
    <path class="cls-4" d="M62.39,85.28s-15.45,2.88-24.78-3.18c0,0,6.2,10.96,24.78,3.18Z"/>
    <path class="cls-4" d="M86.94,83.9s14.18,2.37,23.52-3.69c0,0-4.93,11.47-23.52,3.69Z"/>
    <path class="cls-7" d="M68.61,70.9s-13.95-12.79-31,11.21c0,0,2.56-10.94,10.26-16.33,4.52-3.16,15.82-9.61,20.74,5.12Z"/>
    <path class="cls-7" d="M79.08,68.03s14.46-16.05,31,12.27c0,0-4.8-13.19-9.11-16.62-7.26-5.79-20.29-4.45-21.89,4.36Z"/>
    <path class="cls-1" d="M90.4,23.34s13.83-17.29-30.13-17.78c0,0,17.38,6.42,16.1,10.87,0,0,2.18-8.4-31.9-5.93,0,0,23.73,8.87,24,12.84,0,0-3.75-6.92-24-6.42-20.25.49-17.78-2.47-17.78-2.47,0,0,7.9,9.39,18.28,8.89,10.37-.49-21.73-2.47-33.59,14.82,0,0,5.93-4.45,15.31-4.45,0,0-15.81,1.98-21.24,21.24,0,0,9.88-9.88,21.24-11.85,0,0-21.73,8.89-23.22,22.23,0,0,6.92-9.39,18.28-11.85,0,0-11.85,10.5-13.34,26.49,0,0,3.09-5.38,11.59-13.14,3.75-3.42,8.54-7.3,14.59-11.38l10.37-6.92s-4.94,13.03-20.75,22.23c0,0,25.56-4.69,38.43-24.2,0,0-9.29,16.79-21.14,23.22-11.85,6.42,33.59-9.88,39.02-23.71,0,0,3.82,15.81-5,23.22,0,0,25.75-6.92,23.28-28.65,0,0,4.99,16,21.73,17.29,0,0-14.87-14.32-12.37-24.2,0,0,22.25,15.14,16.82,28.07,0,0,29.14-29.55-34.58-38.44Z"/>
    <g>
      <g>
        <polygon class="cls-11" points="73.72 16.11 78.17 41.16 90.67 27.99 109.47 27.78 102.96 10.39 91.6 20.96 73.72 16.11"/>
        <circle class="cls-10" cx="90.98" cy="24.51" r="5.49"/>
        <circle class="cls-11" cx="91.64" cy="24.51" r="4.86"/>
      </g>
      <path class="cls-10" d="M94.34,20.47l7.66-3.23-5.53,4.45,9.82,2.82h-9.79s.54-3.22-2.16-4.04Z"/>
      <path class="cls-10" d="M86.78,20.98l-7.82-1.33,5.55,2.2-7.14,5.74,8.12-3.08-5.62,10.21,6.91-7.53s-2.03-4.22,0-6.21Z"/>
    </g>
  </g>
  <ellipse class="cls-7" cx="66.2" cy="99.9" rx="2.86" ry="5.77"/>
  <ellipse class="cls-3" cx="90.67" cy="150.18" rx="9.72" ry="21.74"/>
  <path class="cls-5" d="M102.49,115.64h10.13c.14,0,.25.11.25.25v4.16c0,.14-.11.25-.25.25h-10.13c-.39,0-.71-.32-.71-.71v-3.26c0-.39.32-.71.71-.71Z" transform="translate(214.65 235.95) rotate(-180)"/>
  <path class="cls-5" d="M77.46,125.99c11.74,0,15.72-2.55,16.44-3.1l4.08-2.78c.48-.26,1.16-.44,1.86-.44h2.66s0-3.39,0-3.39h-2.66c-1.27,0-2.53.33-3.64.96l-4.38,2.99h0s-3.29,2.38-14.35,2.38v3.39Z"/>
  <path class="cls-5" d="M42.58,115.64h10.13c.14,0,.25.11.25.25v4.16c0,.14-.11.25-.25.25h-10.13c-.39,0-.71-.32-.71-.71v-3.26c0-.39.32-.71.71-.71Z"/>
  <path class="cls-5" d="M77.28,125.99v-3.39c-11.07,0-14.35-2.38-14.38-2.4l-4.22-2.89c-1.23-.7-2.49-1.03-3.77-1.03h-2.66s0,3.39,0,3.39h2.66c.69,0,1.38.18,1.98.52l3.95,2.7c.71.54,4.69,3.1,16.44,3.1Z"/>
  <rect class="cls-5" x="74.81" y="122.6" width="5.3" height="28.74" transform="translate(154.93 273.95) rotate(-180)"/>
  <rect class="cls-5" x="90.45" y="182.19" width="4.54" height="2.68" transform="translate(185.45 367.06) rotate(-180)"/>
  <rect class="cls-5" x="59.59" y="160.17" width="4.54" height="2.68" transform="translate(123.72 323.02) rotate(-180)"/>
  <rect class="cls-5" x="73.79" y="158.1" width="7.14" height="50.75" rx="2.11" ry="2.11" transform="translate(154.72 366.95) rotate(-180)"/>
  <path class="cls-5" d="M86.48,185.23c.94,0,1.69-.76,1.69-1.69v-25.43c.02-.15.16-2.7-1.91-4.93-1.86-2.01-4.82-3.03-8.8-3.03-.94,0-1.69.76-1.69,1.69s.76,1.69,1.69,1.69c2.96,0,5.14.67,6.32,1.94,1.07,1.15,1.01,2.49,1.01,2.5v25.56c0,.94.75,1.69,1.69,1.69Z"/>
  <path class="cls-5" d="M68.45,185.23c.94,0,1.69-.76,1.69-1.69v-25.43c0-.17-.06-1.52,1.05-2.68,1.18-1.24,3.35-1.9,6.28-1.9.94,0,1.69-.76,1.69-1.69,0-.94-.76-1.69-1.69-1.69-3.98,0-6.95,1.02-8.8,3.03-2.06,2.23-1.92,4.78-1.9,5.07v25.3c0,.94.75,1.69,1.69,1.69Z"/>
</svg>