<?xml version="1.0" encoding="UTF-8"?>
<svg id="Layer_1" data-name="Layer 1" xmlns="http://www.w3.org/2000/svg" xmlns:xlink="http://www.w3.org/1999/xlink" viewBox="0 0 148.6 222.51">
  <defs>
    <style>
      .cls-1 {
        fill: #01b35c;
      }

      .cls-1, .cls-2, .cls-3, .cls-4, .cls-5, .cls-6, .cls-7, .cls-8, .cls-9, .cls-10, .cls-11, .cls-12, .cls-13, .cls-14, .cls-15 {
        stroke-width: 0px;
      }

      .cls-2 {
        fill: #ffc129;
        opacity: .75;
      }

      .cls-3, .cls-8 {
        fill: #db580a;
      }

      .cls-4 {
        fill: #e68b2a;
      }

      .cls-5 {
        fill: url(#linear-gradient);
      }

      .cls-6 {
        fill: #e4fbeb;
      }

      .cls-7 {
        opacity: .86;
      }

      .cls-7, .cls-14 {
        fill: #881009;
      }

      .cls-8 {
        opacity: .31;
      }

      .cls-9 {
        fill: #ffc329;
      }

      .cls-10 {
        fill: url(#linear-gradient-4);
      }

      .cls-11 {
        fill: url(#linear-gradient-2);
      }

      .cls-12 {
        fill: url(#linear-gradient-3);
      }

      .cls-13 {
        fill: #fff;
      }

      .cls-15 {
        fill: #0e170f;
      }
    </style>
    <linearGradient id="linear-gradient" x1="12.43" y1="93.67" x2="12.43" y2="93.85" gradientUnits="userSpaceOnUse">
      <stop offset=".27" stop-color="#ffd52c"/>
      <stop offset=".65" stop-color="#eb991c"/>
      <stop offset="1" stop-color="#cd4005"/>
      <stop offset="1" stop-color="#cb3c04"/>
    </linearGradient>
    <linearGradient id="linear-gradient-2" x1="73.71" y1="29.38" x2="73.71" y2="135.49" xlink:href="#linear-gradient"/>
    <linearGradient id="linear-gradient-3" x1="81.24" y1="153.35" x2="100.02" y2="135.69" gradientUnits="userSpaceOnUse">
      <stop offset="0" stop-color="#ef6216"/>
      <stop offset="1" stop-color="#cb3c04"/>
    </linearGradient>
    <linearGradient id="linear-gradient-4" x1="58.68" y1="141.77" x2="70.55" y2="130.6" xlink:href="#linear-gradient-3"/>
  </defs>
  <g>
    <path class="cls-5" d="M12.42,93.8s0,.03.01.05c0-.06,0-.12.01-.18,0,.04-.02.09-.03.13Z"/>
    <path class="cls-11" d="M140.23,87.94c.99-4.82-5.42-19.37-5.42-19.37,2.36.92,5.42,13.15,5.42,13.15l-.1-4.08c.89-4.5-4.14-15.3-8.16-19.42-4.02-4.12-11.05-12.13-11.05-12.13,0,0,.12.83.34,2.27-11.45-11.59-28.62-18.97-47.82-18.97-24.36,0-45.46,11.87-55.74,29.17-1.42.88-10.53,6.75-9.4,12.67,0,0,3.51-5.01,5.99-5.76-.36.9-.68,1.8-.98,2.72-2.72,3.08-6.65,8.87-6.2,16.18,0,0,2.08-6.01,4.6-9.76-.43,2.45-.65,4.95-.67,7.49-1.72,6.24-2.3,15.01,2.03,25.44,0,0-1.79-8.19-.66-13.73-.13-.41-.28-.96.03-.13.17.68.09.49-.01.18-.23,3.73,1.67,12.1,4.19,14.89l7.05,7.51s-4.53-12.93-4.73-13.93c1.94,9.85,32.18,33.17,54.49,33.17,26.31,0,48.81-13.84,57.99-33.42.45,6.4-3.42,14.03-3.42,14.03,6.14-7.99,6.97-16.12,6.34-22.09.41-1.58.75-3.18.99-4.8,1.31,4.76.35,11.53.35,11.53,0,0,.59-3.25,2.36-6.33,1.14-1.97-.76-6.62-2.27-9.72.03-.6.05-1.2.05-1.8,2.67,2.72,3.1,7.8,3.1,7.8,1.03-2.87-1.66-9.61-3.39-13.44-.08-.68-.17-1.36-.28-2.03,3.86,3.53,4.96,12.71,4.96,12.71Z"/>
  </g>
  <ellipse class="cls-12" cx="86.31" cy="148.58" rx="9.04" ry="20.22"/>
  <ellipse class="cls-10" cx="61.89" cy="138.75" rx="9.04" ry="10.39"/>
  <g>
    <path class="cls-13" d="M39.75,80.07s6.05-19.72,20.98-17.05c0,0,9.4,1.43,7.92,10.55-1.28,7.89-5.85,9.45-5.85,9.45,0,0-9.16,2.66-15.36,1.48-6.2-1.18-7.68-4.43-7.68-4.43Z"/>
    <circle class="cls-1" cx="60.86" cy="75.21" r="7.58" transform="translate(-24.15 29.02) rotate(-22.5)"/>
    <circle class="cls-15" cx="62.44" cy="75.21" r="4.92" transform="translate(-21.8 124.79) rotate(-80.78)"/>
    <ellipse class="cls-13" cx="63.07" cy="71.33" rx="2.12" ry="1.63"/>
  </g>
  <g>
    <path class="cls-13" d="M107.14,78.39s-6.05-19.72-20.98-17.05c0,0-9.4,1.43-7.92,10.55,1.28,7.89,5.85,9.45,5.85,9.45,0,0,9.16,2.66,15.36,1.48,6.2-1.18,7.68-4.43,7.68-4.43Z"/>
    <circle class="cls-1" cx="86.02" cy="73.53" r="7.58" transform="translate(-14.83 124.87) rotate(-67.5)"/>
    <circle class="cls-15" cx="84.45" cy="73.53" r="4.92" transform="translate(-10.69 14.48) rotate(-9.22)"/>
    <ellipse class="cls-13" cx="83.82" cy="69.65" rx="2.12" ry="1.63"/>
  </g>
  <ellipse class="cls-9" cx="74.81" cy="81.09" rx="2.4" ry="3.39" transform="translate(-20.68 136.36) rotate(-77.37)"/>
  <path class="cls-3" d="M78.09,81.09s-.28-2.27-2.45-1.97c0,0-3.45-.3-4.33,1.97,0,0,.48-2.76,3.39-2.76s3.39,2.76,3.39,2.76Z"/>
  <ellipse class="cls-14" cx="74.81" cy="94.31" rx="2.66" ry="5.37"/>
  <path class="cls-8" d="M62.79,83.03s-14.36,2.68-23.05-2.95c0,0,5.76,10.19,23.05,2.95Z"/>
  <path class="cls-8" d="M84.45,81.27s14.36,2.68,23.05-2.95c0,0-5.76,10.19-23.05,2.95Z"/>
  <path class="cls-7" d="M68.57,69.65s-13.45-15.91-28.83,10.42c0,0,4.92-12.97,9.54-15.18s17.8-3.43,19.29,4.76Z"/>
  <path class="cls-7" d="M79.38,67.69s13.45-15.91,28.83,10.42c0,0-4.92-12.97-9.54-15.18-4.62-2.22-17.8-3.43-19.29,4.76Z"/>
  <path class="cls-4" d="M92.29,26.87s12.86-16.08-28.02-16.54c0,0,16.16,5.97,14.97,10.1,0,0,2.03-7.81-29.67-5.51,0,0,22.06,8.25,22.32,11.94,0,0-3.49-6.43-22.32-5.97-18.83.46-16.54-2.3-16.54-2.3,0,0,7.35,8.73,16.99,8.27,9.65-.46-20.21-2.3-31.23,13.78,0,0,5.51-4.13,14.24-4.13,0,0-14.7,1.84-19.75,19.75,0,0,9.19-9.19,19.75-11.02,0,0-20.21,8.27-21.59,20.67,0,0,6.43-8.73,16.99-11.02,0,0-11.02,9.76-12.4,24.63,0,0,2.88-5.01,10.78-12.22,3.48-3.18,7.94-6.78,13.57-10.58l9.65-6.43s-4.59,12.11-19.29,20.67c0,0,23.76-4.36,35.74-22.51,0,0-8.64,15.62-19.66,21.59-11.02,5.97,31.23-9.19,36.29-22.05,0,0,3.56,14.7-4.65,21.59,0,0,23.94-6.43,21.65-26.64,0,0,4.64,14.87,20.21,16.08,0,0-13.83-13.32-11.51-22.51,0,0,20.69,14.08,15.64,26.1,0,0,27.1-27.48-32.15-35.75Z"/>
  <path class="cls-2" d="M87.81,26.87s12.86-16.08-28.02-16.54c0,0,16.16,5.97,14.97,10.1,0,0,2.03-7.81-29.67-5.51,0,0,22.06,8.25,22.32,11.94,0,0-3.49-6.43-22.32-5.97-18.83.46-16.54-2.3-16.54-2.3,0,0,7.35,8.73,16.99,8.27,9.65-.46-20.21-2.3-31.23,13.78,0,0,5.51-4.13,14.24-4.13,0,0-14.7,1.84-19.75,19.75,0,0,9.19-9.19,19.75-11.02,0,0-20.21,8.27-21.59,20.67,0,0,6.43-8.73,16.99-11.02,0,0-11.02,9.76-12.4,24.63,0,0,2.88-5.01,10.78-12.22,3.48-3.18,7.94-6.78,13.57-10.58l9.65-6.43s-4.59,12.11-19.29,20.67c0,0,23.76-4.36,35.74-22.51,0,0-8.64,15.62-19.66,21.59-11.02,5.97,31.23-9.19,36.29-22.05,0,0,3.56,14.7-4.65,21.59,0,0,23.94-6.43,21.65-26.64,0,0,4.64,14.87,20.21,16.08,0,0-13.83-13.32-11.51-22.51,0,0,20.69,14.08,15.64,26.1,0,0,27.1-27.48-32.15-35.75Z"/>
  <path class="cls-6" d="M38.91,115.64h10.13c.14,0,.25.11.25.25v4.16c0,.14-.11.25-.25.25h-10.13c-.39,0-.71-.32-.71-.71v-3.26c0-.39.32-.71.71-.71Z"/>
  <path class="cls-6" d="M73.61,125.99c-11.74,0-15.72-2.55-16.44-3.1l-4.08-2.78c-.48-.26-1.16-.44-1.86-.44h-2.66v-3.39h2.66c1.27,0,2.53.33,3.64.96l4.38,2.99h0s3.29,2.38,14.35,2.38v3.39Z"/>
  <path class="cls-6" d="M98.82,115.64h10.13c.14,0,.25.11.25.25v4.16c0,.14-.11.25-.25.25h-10.13c-.39,0-.71-.32-.71-.71v-3.26c0-.39.32-.71.71-.71Z" transform="translate(207.32 235.95) rotate(-180)"/>
  <path class="cls-6" d="M73.8,125.99v-3.39c11.07,0,14.35-2.38,14.38-2.4l4.22-2.89c1.23-.7,2.49-1.03,3.77-1.03h2.66v3.39h-2.66c-.69,0-1.38.18-1.98.52l-3.95,2.7c-.71.54-4.69,3.1-16.44,3.1Z"/>
  <rect class="cls-6" x="70.96" y="122.6" width="5.3" height="28.74"/>
  <rect class="cls-6" x="86.88" y="182.19" width="4.54" height="2.68" transform="translate(178.3 367.06) rotate(-180)"/>
  <rect class="cls-6" x="56.01" y="160.17" width="4.54" height="2.68" transform="translate(116.57 323.02) rotate(-180)"/>
  <rect class="cls-6" x="70.15" y="158.1" width="7.14" height="50.75" rx="2.11" ry="2.11"/>
  <path class="cls-6" d="M64.6,185.23c-.94,0-1.69-.76-1.69-1.69v-25.43c-.02-.15-.16-2.7,1.91-4.93,1.86-2.01,4.82-3.03,8.8-3.03.94,0,1.69.76,1.69,1.69s-.76,1.69-1.69,1.69c-2.96,0-5.14.67-6.32,1.94-1.07,1.15-1.01,2.49-1.01,2.5v25.56c0,.94-.75,1.69-1.69,1.69Z"/>
  <path class="cls-6" d="M82.63,185.23c-.94,0-1.69-.76-1.69-1.69v-25.43c0-.17.06-1.52-1.05-2.68-1.18-1.24-3.35-1.9-6.28-1.9-.94,0-1.69-.76-1.69-1.69s.76-1.69,1.69-1.69c3.98,0,6.95,1.02,8.8,3.03,2.06,2.23,1.92,4.78,1.9,5.07v25.3c0,.94-.75,1.69-1.69,1.69Z"/>
</svg>