<?xml version="1.0" encoding="UTF-8"?>
<svg xmlns="http://www.w3.org/2000/svg" xmlns:xlink="http://www.w3.org/1999/xlink" viewBox="0 0 501.43 803.76">
  <defs>
    <style>
      .cls-1 {
        fill: #b7b7b7;
      }

      .cls-1, .cls-2, .cls-3, .cls-4, .cls-5, .cls-6, .cls-7, .cls-8, .cls-9, .cls-10, .cls-11, .cls-12, .cls-13, .cls-14, .cls-15 {
        stroke-width: 0px;
      }

      .cls-2 {
        filter: url(#outer-glow-6);
      }

      .cls-2, .cls-3 {
        fill: #f9da58;
      }

      .cls-2, .cls-3, .cls-10 {
        opacity: .83;
      }

      .cls-3 {
        filter: url(#outer-glow-7);
      }

      .cls-4 {
        fill: #fff4c5;
      }

      .cls-5 {
        fill: #cfcfcf;
      }

      .cls-16 {
        clip-path: url(#clippath);
      }

      .cls-6 {
        fill: none;
      }

      .cls-7 {
        fill: #8e8e8e;
      }

      .cls-17 {
        clip-path: url(#clippath-1);
      }

      .cls-18 {
        clip-path: url(#clippath-4);
      }

      .cls-19 {
        clip-path: url(#clippath-3);
      }

      .cls-20 {
        clip-path: url(#clippath-2);
      }

      .cls-21 {
        clip-path: url(#clippath-5);
      }

      .cls-8 {
        fill: #5c5c5c;
      }

      .cls-9 {
        fill: #9a9a9b;
      }

      .cls-10 {
        fill: #d8cda0;
      }

      .cls-11 {
        fill: #8e8e8d;
      }

      .cls-12 {
        fill: #777778;
      }

      .cls-13 {
        fill: #b3b3b1;
      }

      .cls-14 {
        fill: #bdbdbd;
      }

      .cls-22 {
        isolation: isolate;
      }

      .cls-15 {
        fill: #231f20;
        mix-blend-mode: multiply;
        opacity: .27;
      }
    </style>
    <clipPath id="clippath">
      <path class="cls-6" d="M269.76,373.63l-3.01-1.75c-.27-.16-.48-.44-.62-.78-.22-.56-.57-.98-1.02-1.24l3.02,1.75c.44.26.79.68,1.01,1.24.14.35.35.63.62.78Z"/>
    </clipPath>
    <clipPath id="clippath-1">
      <path class="cls-6" d="M247.91,392.87l-3.01-1.75c-1.33-.78-2.16-2.42-2.17-4.76,0-1.39-.5-2.36-1.29-2.83l3.01,1.76c.79.46,1.28,1.44,1.28,2.82,0,2.34.84,3.99,2.17,4.76Z"/>
    </clipPath>
    <clipPath id="clippath-2">
      <path class="cls-6" d="M234.37,394.18l-3.01-1.75c-.27-.16-.42-.52-.34-1.05.69-4.29,3.68-8.95,7.27-11.03,2.07-1.19,3.94-1.3,5.29-.51l3.01,1.75c-1.35-.79-3.22-.68-5.29.51-3.59,2.07-6.58,6.74-7.27,11.03-.08.53.06.89.33,1.04Z"/>
    </clipPath>
    <clipPath id="clippath-3">
      <path class="cls-6" d="M269.82,373.08l-3.01-1.75c-.27-.16-.48-.44-.62-.78-.22-.56-.57-.98-1.02-1.24l3.02,1.75c.44.26.79.68,1.01,1.24.14.35.35.63.62.78Z"/>
    </clipPath>
    <clipPath id="clippath-4">
      <path class="cls-6" d="M247.97,392.32l-3.01-1.75c-1.33-.78-2.16-2.42-2.17-4.76,0-1.39-.5-2.36-1.29-2.83l3.01,1.76c.79.46,1.28,1.44,1.28,2.82,0,2.34.84,3.99,2.17,4.76Z"/>
    </clipPath>
    <clipPath id="clippath-5">
      <path class="cls-6" d="M234.43,393.63l-3.01-1.75c-.27-.16-.42-.52-.34-1.05.69-4.29,3.68-8.95,7.27-11.03,2.07-1.19,3.94-1.3,5.29-.51l3.01,1.75c-1.35-.79-3.22-.68-5.29.51-3.59,2.07-6.58,6.74-7.27,11.03-.08.53.06.89.33,1.04Z"/>
    </clipPath>
    <filter id="outer-glow-6" filterUnits="userSpaceOnUse">
      <feOffset dx="0" dy="0"/>
      <feGaussianBlur result="blur" stdDeviation="88"/>
      <feFlood flood-color="#faff97" flood-opacity="1"/>
      <feComposite in2="blur" operator="in"/>
      <feComposite in="SourceGraphic"/>
    </filter>
    <filter id="outer-glow-7" filterUnits="userSpaceOnUse">
      <feOffset dx="0" dy="0"/>
      <feGaussianBlur result="blur-2" stdDeviation="88"/>
      <feFlood flood-color="#faff97" flood-opacity="1"/>
      <feComposite in2="blur-2" operator="in"/>
      <feComposite in="SourceGraphic"/>
    </filter>
  </defs>
  <g class="cls-22">
    <g id="Layer_1" data-name="Layer 1">
      <g>
        <path class="cls-15" d="M283.86,509.57c0,7.87-14.87,14.26-33.21,14.26s-33.21-6.38-33.21-14.26,14.87-14.26,33.21-14.26,33.21,6.38,33.21,14.26Z"/>
        <g>
          <path class="cls-11" d="M218.18,457.18c-.88-5.28.84-15.56,3.92-18.76,3.07-3.21,10.68-7.28,16.83-8.21,6.14-.94,23.98-2.14,36.6,6.34,12.62,8.48,6.77,21.2,4.38,22.82-2.38,1.62-2.73-13.97-29.26-14.79-26.54-.82-32.47,12.6-32.47,12.6Z"/>
          <path class="cls-8" d="M268.2,500.62c3.11-10.41-18.73-17.18-31.87-9.81-4.65,2.61-6.48,6.27-5.47,9.7,1.88,5.8,5.51,9.71,9.95,11.93h0c9.37,4.9,23.01,1.2,27.39-11.82Z"/>
          <path class="cls-13" d="M285.78,475.99c-.22-.46-.75-1.58-1.09-2.22,0,0-.64-1.03-.64-1.03-4.38-7.11-17.47-15.16-36.66-14.54-41.94,2.11-46.64,37.14-14.12,46.85,0,0,.51.14.51.14,24.99,7.46,60.98-4.83,52-29.21Z"/>
          <path class="cls-11" d="M271.93,464.87c-12-7.17-31.74-7.37-44.09-.44-12.35,6.92-12.63,18.36-.62,25.53,12,7.17,31.74,7.37,44.08.45,12.35-6.93,12.63-18.36.63-25.54Z"/>
          <path class="cls-14" d="M239.15,444.28c-33.77,5.77-36.43,36.83-5.76,46,23.43,7.01,51.64-2.45,53.63-19.87,2.59-20.88-27.35-29.95-47.87-26.13Z"/>
          <path class="cls-11" d="M271.97,450.07c-12-7.18-31.74-7.37-44.09-.44-12.35,6.93-12.63,18.36-.63,25.53,12,7.18,31.74,7.38,44.09.45,12.35-6.93,12.63-18.36.63-25.54Z"/>
          <path class="cls-5" d="M284.12,443.13c-5.15-8.13-16.16-12.44-25.68-13.9-15.25-2.71-40.99,2.14-45.69,18.92h0c-.93,3.17-.86,6.41-.08,9.63,5.81,24.25,59.52,27.11,72.3,4.19.02-.02.48-.96.49-.99,2.6-5.19,2.5-11.76-1.33-17.85ZM272.15,460.99c-12.35,6.93-32.09,6.73-44.09-.44-12-7.17-11.72-18.61.63-25.54,12.34-6.92,32.09-6.73,44.08.45,12,7.17,11.73,18.61-.62,25.54Z"/>
          <g>
            <path class="cls-1" d="M275.05,346.68c-1.33.32-2.5,1.93-2.82,3.39l-22.52,102,4.52,2.62,22.52-102c.29-1.31,1.19-2.56,2.16-3.12.22-.13.44-.22.66-.27.38-.09.71-.05.97.1-4.98-2.89-4.74-2.9-5.48-2.73Z"/>
            <g class="cls-22">
              <g class="cls-16">
                <g class="cls-22">
                  <path class="cls-9" d="M269.76,373.63l-3.01-1.75c-.27-.16-.48-.44-.62-.78-.22-.56-.57-.98-1.02-1.24l3.02,1.75c.44.26.79.68,1.01,1.24.14.35.35.63.62.78h0Z"/>
                </g>
              </g>
            </g>
            <path class="cls-9" d="M267.27,366.17c-1.35-.79-3.23-.68-5.29.51-4.09,2.36-7.42,8.13-7.41,12.84,0,2.79-1.96,6.21-4.39,7.61-1.22.71-2.33.77-3.13.3l3.01,1.76c.8.46,1.91.4,3.13-.3,2.43-1.4,4.4-4.82,4.39-7.61-.01-4.7,3.32-10.47,7.41-12.83,2.07-1.19,3.94-1.3,5.29-.52l-3.01-1.75Z"/>
            <g class="cls-22">
              <g class="cls-17">
                <g class="cls-22">
                  <path class="cls-9" d="M247.91,392.87l-3.01-1.75c-1.33-.78-2.16-2.42-2.17-4.76,0-1.39-.5-2.36-1.29-2.83l3.01,1.76c.79.46,1.28,1.44,1.28,2.82,0,2.34.84,3.99,2.17,4.76h0Z"/>
                </g>
              </g>
            </g>
            <path class="cls-12" d="M264.99,368.44c3.59-2.07,6.6-.87,7.31,2.61.17.84-.53,2.03-1.36,2.51-.86.5-1.49.04-1.79-.71-.62-1.57-2.25-2.03-4.15-.93-2.43,1.4-4.4,4.82-4.39,7.61.02,4.72-3.3,10.47-7.41,12.84-4.09,2.36-7.45.46-7.46-4.26,0-2.79-1.99-3.92-4.42-2.52-1.9,1.1-3.5,3.42-4.13,5.71-.29,1.09-.92,2.28-1.78,2.77-.82.47-1.53.1-1.37-.93.68-4.29,3.68-8.96,7.27-11.03,4.11-2.37,7.45-.45,7.46,4.25,0,2.79,1.99,3.92,4.42,2.52,2.43-1.4,4.4-4.82,4.39-7.61-.01-4.7,3.32-10.47,7.41-12.83Z"/>
            <g class="cls-22">
              <g class="cls-20">
                <g class="cls-22">
                  <path class="cls-9" d="M234.37,394.18l-3.01-1.75c-.27-.16-.42-.52-.34-1.05.69-4.29,3.68-8.95,7.27-11.03,2.07-1.19,3.94-1.3,5.29-.51l3.01,1.75c-1.35-.79-3.22-.68-5.29.51-3.59,2.07-6.58,6.74-7.27,11.03-.08.53.06.89.33,1.04h0Z"/>
                </g>
              </g>
            </g>
            <path class="cls-1" d="M224.74,377.71c-.37-1.17.3-3.02,1.52-4.13.62-.58,1.54-1.07,2.26-.65l-4.52-2.63c-.71-.41-1.63.06-2.26.65-1.22,1.11-1.89,2.96-1.52,4.13l25.14,80.99,4.52,2.63-25.14-80.99Z"/>
            <path class="cls-7" d="M279.57,349.31c1.2-.29,1.89.78,1.54,2.36l-22.51,102-4.4,2.53-4.32,2.5-25.14-80.99c-.37-1.17.3-3.02,1.52-4.13,1.2-1.12,2.47-1.07,2.83.13l25.15,80.98,22.52-102c.36-1.65,1.68-3.15,2.82-3.39Z"/>
          </g>
          <path class="cls-10" d="M324.37,344c-2.27-12.35-5.31-21.4-15.18-34.65-17.96-24.09-47.68-27.52-47.68-27.52-.46-.13-6.77-.99-13.33-.74h-.18c-42.44,1.8-73.77,36.78-71.91,78.25,1.26,27.22,17.07,50.29,39.67,62.3,1.02.54,1.94,1,2.81,1.41.96.74,1.29,3.25,1.31,4.78l-.11,23.46c1.09,3.38,3.84,6.62,8.28,9.27,12,7.17,31.74,7.37,44.09.44,4.54-2.55,7.44-5.7,8.7-9.03.05-5.65.14-19.32.15-23.97.02-1.96.13-3.67,1.33-4.77,1.1-.52,2.38-1.13,4.83-2.49,22.28-12.88,35.94-33.85,37.96-60.24.41-5.51-.03-12.14-.75-16.48Z"/>
          <path class="cls-4" d="M250.9,335.69c-4.11,22.27-32.73,29.95-47.12,12.64-9.81-11.79-4.45-24.77-2.56-28.47,4.52-8.9,16.96-13.94,24.2-14.15,15.76-.46,27.91,16.77,25.48,29.98h0Z"/>
        </g>
      </g>
      <g>
        <path class="cls-15" d="M283.92,509.02c0,7.87-14.87,14.26-33.21,14.26s-33.21-6.38-33.21-14.26,14.87-14.26,33.21-14.26,33.21,6.38,33.21,14.26Z"/>
        <g>
          <path class="cls-11" d="M218.25,456.62c-.88-5.28.84-15.56,3.92-18.76,3.07-3.21,10.68-7.28,16.83-8.21,6.14-.94,23.98-2.14,36.6,6.34,12.62,8.48,6.77,21.2,4.38,22.82-2.38,1.62-2.73-13.97-29.26-14.79-26.54-.82-32.47,12.6-32.47,12.6Z"/>
          <path class="cls-8" d="M268.26,500.07c3.11-10.41-18.73-17.18-31.87-9.81-4.65,2.61-6.48,6.27-5.47,9.7,1.88,5.8,5.51,9.71,9.95,11.93h0c9.37,4.9,23.01,1.2,27.39-11.82Z"/>
          <path class="cls-13" d="M285.84,475.44c-.22-.46-.75-1.58-1.09-2.22,0,0-.64-1.03-.64-1.03-4.38-7.11-17.47-15.16-36.66-14.54-41.94,2.11-46.64,37.14-14.12,46.85,0,0,.51.14.51.14,24.99,7.46,60.98-4.83,52-29.21Z"/>
          <path class="cls-11" d="M271.99,464.32c-12-7.17-31.74-7.37-44.09-.44-12.35,6.92-12.63,18.36-.62,25.53,12,7.17,31.74,7.37,44.08.45,12.35-6.93,12.63-18.36.63-25.54Z"/>
          <path class="cls-14" d="M239.21,443.72c-33.77,5.77-36.43,36.83-5.76,46,23.43,7.01,51.64-2.45,53.63-19.87,2.59-20.88-27.35-29.95-47.87-26.13Z"/>
          <path class="cls-11" d="M272.03,449.52c-12-7.18-31.74-7.37-44.09-.44-12.35,6.93-12.63,18.36-.63,25.53,12,7.18,31.74,7.38,44.09.45,12.35-6.93,12.63-18.36.63-25.54Z"/>
          <path class="cls-5" d="M284.18,442.58c-5.15-8.13-16.16-12.44-25.68-13.9-15.25-2.71-40.99,2.14-45.69,18.92h0c-.93,3.17-.86,6.41-.08,9.63,5.81,24.25,59.52,27.11,72.3,4.19.02-.02.48-.96.49-.99,2.6-5.19,2.5-11.76-1.33-17.85ZM272.21,460.44c-12.35,6.93-32.09,6.73-44.09-.44-12-7.17-11.72-18.61.63-25.54,12.34-6.92,32.09-6.73,44.08.45,12,7.17,11.73,18.61-.62,25.54Z"/>
          <g>
            <path class="cls-1" d="M275.12,346.12c-1.33.32-2.5,1.93-2.82,3.39l-22.52,102,4.52,2.62,22.52-102c.29-1.31,1.19-2.56,2.16-3.12.22-.13.44-.22.66-.27.38-.09.71-.05.97.1-4.98-2.89-4.74-2.9-5.48-2.73Z"/>
            <g class="cls-22">
              <g class="cls-19">
                <g class="cls-22">
                  <path class="cls-9" d="M269.82,373.08l-3.01-1.75c-.27-.16-.48-.44-.62-.78-.22-.56-.57-.98-1.02-1.24l3.02,1.75c.44.26.79.68,1.01,1.24.14.35.35.63.62.78h0Z"/>
                </g>
              </g>
            </g>
            <path class="cls-9" d="M267.33,365.62c-1.35-.79-3.23-.68-5.29.51-4.09,2.36-7.42,8.13-7.41,12.84,0,2.79-1.96,6.21-4.39,7.61-1.22.71-2.33.77-3.13.3l3.01,1.76c.8.46,1.91.4,3.13-.3,2.43-1.4,4.4-4.82,4.39-7.61-.01-4.7,3.32-10.47,7.41-12.83,2.07-1.19,3.94-1.3,5.29-.52l-3.01-1.75Z"/>
            <g class="cls-22">
              <g class="cls-18">
                <g class="cls-22">
                  <path class="cls-9" d="M247.97,392.32l-3.01-1.75c-1.33-.78-2.16-2.42-2.17-4.76,0-1.39-.5-2.36-1.29-2.83l3.01,1.76c.79.46,1.28,1.44,1.28,2.82,0,2.34.84,3.99,2.17,4.76h0Z"/>
                </g>
              </g>
            </g>
            <path class="cls-12" d="M265.05,367.88c3.59-2.07,6.6-.87,7.31,2.61.17.84-.53,2.03-1.36,2.51-.86.5-1.49.04-1.79-.71-.62-1.57-2.25-2.03-4.15-.93-2.43,1.4-4.4,4.82-4.39,7.61.02,4.72-3.3,10.47-7.41,12.84-4.09,2.36-7.45.46-7.46-4.26,0-2.79-1.99-3.92-4.42-2.52-1.9,1.1-3.5,3.42-4.13,5.71-.29,1.09-.92,2.28-1.78,2.77-.82.47-1.53.1-1.37-.93.68-4.29,3.68-8.96,7.27-11.03,4.11-2.37,7.45-.45,7.46,4.25,0,2.79,1.99,3.92,4.42,2.52,2.43-1.4,4.4-4.82,4.39-7.61-.01-4.7,3.32-10.47,7.41-12.83Z"/>
            <g class="cls-22">
              <g class="cls-21">
                <g class="cls-22">
                  <path class="cls-9" d="M234.43,393.63l-3.01-1.75c-.27-.16-.42-.52-.34-1.05.69-4.29,3.68-8.95,7.27-11.03,2.07-1.19,3.94-1.3,5.29-.51l3.01,1.75c-1.35-.79-3.22-.68-5.29.51-3.59,2.07-6.58,6.74-7.27,11.03-.08.53.06.89.33,1.04h0Z"/>
                </g>
              </g>
            </g>
            <path class="cls-1" d="M224.8,377.16c-.37-1.17.3-3.02,1.52-4.13.62-.58,1.54-1.07,2.26-.65l-4.52-2.63c-.71-.41-1.63.06-2.26.65-1.22,1.11-1.89,2.96-1.52,4.13l25.14,80.99,4.52,2.63-25.14-80.99Z"/>
            <path class="cls-7" d="M279.63,348.75c1.2-.29,1.89.78,1.54,2.36l-22.51,102-4.4,2.53-4.32,2.5-25.14-80.99c-.37-1.17.3-3.02,1.52-4.13,1.2-1.12,2.47-1.07,2.83.13l25.15,80.98,22.52-102c.36-1.65,1.68-3.15,2.82-3.39Z"/>
          </g>
          <path class="cls-2" d="M324.44,343.45c-2.27-12.35-5.31-21.4-15.18-34.65-17.96-24.09-47.68-27.52-47.68-27.52-.46-.13-6.77-.99-13.33-.74h-.18c-42.44,1.8-73.77,36.78-71.91,78.25,1.26,27.22,17.07,50.29,39.67,62.3,1.02.54,1.94,1,2.81,1.41.96.74,1.29,3.25,1.31,4.78l-.11,23.46c1.09,3.38,3.84,6.62,8.28,9.27,12,7.17,31.74,7.37,44.09.44,4.54-2.55,7.44-5.7,8.7-9.03.05-5.65.14-19.32.15-23.97.02-1.96.13-3.67,1.33-4.77,1.1-.52,2.38-1.13,4.83-2.49,22.28-12.88,35.94-33.85,37.96-60.24.41-5.51-.03-12.14-.75-16.48Z"/>
          <path class="cls-4" d="M250.96,335.14c-4.11,22.27-32.73,29.95-47.12,12.64-9.81-11.79-4.45-24.77-2.56-28.47,4.52-8.9,16.96-13.94,24.2-14.15,15.76-.46,27.91,16.77,25.48,29.98h0Z"/>
          <path class="cls-3" d="M324.44,343.45c-2.27-12.35-5.31-21.4-15.18-34.65-17.96-24.09-47.68-27.52-47.68-27.52-.46-.13-6.77-.99-13.33-.74h-.18c-42.44,1.8-73.77,36.78-71.91,78.25,1.26,27.22,17.07,50.29,39.67,62.3,1.02.54,1.94,1,2.81,1.41.96.74,1.29,3.25,1.31,4.78l-.11,23.46c1.09,3.38,3.84,6.62,8.28,9.27,12,7.17,31.74,7.37,44.09.44,4.54-2.55,7.44-5.7,8.7-9.03.05-5.65.14-19.32.15-23.97.02-1.96.13-3.67,1.33-4.77,1.1-.52,2.38-1.13,4.83-2.49,22.28-12.88,35.94-33.85,37.96-60.24.41-5.51-.03-12.14-.75-16.48Z"/>
        </g>
      </g>
    </g>
  </g>
</svg>