<?xml version="1.0" encoding="UTF-8"?>
<svg id="Layer_1" data-name="Layer 1" xmlns="http://www.w3.org/2000/svg" viewBox="0 0 28.32 171.78">
  <defs>
    <style>
      .cls-1 {
        fill: #e89b3f;
        stroke-width: 0px;
      }
    </style>
  </defs>
  <path class="cls-1" d="M14.16.64C6.35.64,0,5.59,0,11.66v148.11c0,2.94,1.47,5.71,4.15,7.79,2.68,2.08,6.23,3.23,10.01,3.23,7.81,0,14.16-4.94,14.16-11.02V11.66C28.32,5.59,21.97.64,14.16.64ZM24.68,159.77c0,4.52-4.71,8.18-10.51,8.18-2.9,0-5.53-.92-7.44-2.4-1.9-1.48-3.08-3.53-3.08-5.78V11.66C3.65,7.14,8.36,3.48,14.16,3.48s10.51,3.66,10.51,8.18v148.11Z"/>
</svg>