<?xml version="1.0" encoding="UTF-8"?>
<svg xmlns="http://www.w3.org/2000/svg" xmlns:xlink="http://www.w3.org/1999/xlink" viewBox="0 0 219.5 226.29">
  <defs>
    <style>
      .cls-1 {
        fill: url(#linear-gradient);
      }

      .cls-1, .cls-2, .cls-3, .cls-4, .cls-5, .cls-6, .cls-7 {
        stroke-width: 0px;
      }

      .cls-2 {
        fill: url(#linear-gradient-4);
      }

      .cls-3 {
        fill: url(#linear-gradient-2);
      }

      .cls-4 {
        fill: url(#linear-gradient-3);
      }

      .cls-5 {
        fill: url(#linear-gradient-5);
      }

      .cls-6 {
        fill: url(#linear-gradient-6);
      }

      .cls-8 {
        isolation: isolate;
      }

      .cls-7 {
        fill: url(#radial-gradient);
        mix-blend-mode: screen;
      }
    </style>
    <linearGradient id="linear-gradient" x1="95.9" y1="11.69" x2="134.14" y2="210.14" gradientUnits="userSpaceOnUse">
      <stop offset="0" stop-color="#fdd733"/>
      <stop offset="1" stop-color="#f9ab21"/>
    </linearGradient>
    <linearGradient id="linear-gradient-2" x1="104.39" y1="28.66" x2="120.09" y2="190.48" gradientUnits="userSpaceOnUse">
      <stop offset="0" stop-color="#fde265"/>
      <stop offset="1" stop-color="#fdd733"/>
    </linearGradient>
    <linearGradient id="linear-gradient-3" x1="27.3" y1="63.65" x2="26.39" y2="201.62" gradientUnits="userSpaceOnUse">
      <stop offset="0" stop-color="#ea8d07"/>
      <stop offset="1" stop-color="#b26500"/>
    </linearGradient>
    <linearGradient id="linear-gradient-4" x1="110.64" y1="64.2" x2="109.74" y2="202.16" xlink:href="#linear-gradient-3"/>
    <linearGradient id="linear-gradient-5" x1="192.7" y1="64.74" x2="191.8" y2="202.7" xlink:href="#linear-gradient-3"/>
    <radialGradient id="radial-gradient" cx="391.06" cy="316.33" fx="391.06" fy="316.33" r="119.33" gradientTransform="translate(-249.03 -152.71) scale(.95)" gradientUnits="userSpaceOnUse">
      <stop offset="0" stop-color="#fced97"/>
      <stop offset="1" stop-color="#000"/>
    </radialGradient>
    <linearGradient id="linear-gradient-6" x1="108.56" y1="14.17" x2="111.58" y2="199.54" gradientUnits="userSpaceOnUse">
      <stop offset="0" stop-color="#fdd733"/>
      <stop offset="1" stop-color="#fbc12a"/>
    </linearGradient>
  </defs>
  <g class="cls-8">
    <g id="Layer_1" data-name="Layer 1">
      <g>
        <path class="cls-1" d="M118.05,8.37l27.91,56.55,62.4,9.07c7.65,1.11,10.7,10.51,5.17,15.9l-45.15,44.02,10.66,62.15c1.31,7.62-6.69,13.43-13.53,9.83l-55.81-29.34-55.81,29.34c-6.84,3.6-14.84-2.21-13.53-9.83l10.66-62.15L5.85,89.88c-5.53-5.39-2.48-14.79,5.17-15.9l62.4-9.07,27.91-56.55c3.42-6.93,13.3-6.93,16.72,0Z"/>
        <path class="cls-3" d="M169.84,199.73c-.32,0-.64-.08-.97-.26l-59.19-31.12-59.19,31.12c-.33.17-.65.26-.97.26-.59,0-1.21-.3-1.62-.79-.4-.47-.54-1.01-.42-1.66l11.3-65.9L10.91,84.7c-.77-.75-.71-1.57-.53-2.13.18-.56.62-1.26,1.68-1.42l66.17-9.61,29.59-59.96c.47-.96,1.27-1.16,1.86-1.16s1.39.2,1.86,1.16l29.59,59.96,66.17,9.61c1.06.15,1.5.85,1.68,1.42.18.56.24,1.38-.53,2.13l-47.88,46.67,11.3,65.9c.11.65-.03,1.19-.42,1.66-.41.49-1.03.79-1.62.79Z"/>
        <path class="cls-4" d="M51,133.9L5.85,89.88c-2.2-2.15-3.03-4.93-2.76-7.57-.03,0-.07,0-.07,0-.07.06,0,16.91,0,16.91,0,0,.04.02.06.02-.26,2.63.57,5.4,2.76,7.54l42.67,41.59,2.48-14.48Z"/>
        <path class="cls-2" d="M179.11,198.62c-.63,6.27-7.57,10.44-13.61,7.26l-55.81-29.34-55.81,29.34c-5.98,3.15-12.85-.91-13.6-7.07v14.9c-.67,7.24,6.99,12.55,13.6,9.08l54.52-28.66,1.62-.51,55.49,29.17c6.61,3.47,14.27-1.83,13.6-9.07v-15.1Z"/>
        <path class="cls-5" d="M216.29,82.32c.27,2.64-.56,5.42-2.76,7.57l-45.15,44.02,2.48,14.48,42.67-41.59c2.19-2.13,3.01-4.89,2.77-7.51l.06-.06v-16.91h-.07Z"/>
        <path class="cls-7" d="M208.99,82.57c-.18-.56-.62-1.26-1.68-1.42l-66.17-9.61-29.59-59.96c-.47-.96-1.27-1.16-1.86-1.16s-1.39.2-1.86,1.16l-29.59,59.96-66.17,9.61c-1.06.15-1.5.85-1.68,1.42-.18.56-.24,1.38.53,2.13l15.64,15.25c25.75-12.1,60.26-14,94.65-2.73,18.37,6.02,34.54,15.1,47.7,26.05l39.57-38.57c.76-.75.71-1.57.53-2.13Z"/>
        <path class="cls-6" d="M208.47,84.7c.76-.75.71-1.57.53-2.13-.18-.56-.62-1.26-1.68-1.42l-66.17-9.61-29.59-59.96c-.47-.96-1.27-1.16-1.86-1.16s-1.39.2-1.86,1.16l-29.59,59.96-66.17,9.61c-1.06.15-1.5.85-1.68,1.42-.18.56-.24,1.38.53,2.13l47.88,46.67-11.3,65.9c-.11.65.03,1.19.42,1.66.41.49,1.03.79,1.62.79.32,0,.64-.08.97-.26l59.19-31.12,59.19,31.12c.33.17.65.26.97.26.59,0,1.21-.3,1.62-.79.4-.47.53-1.01.42-1.66l-11.3-65.9,47.88-46.67ZM170.08,197.77c-.08.09-.19.14-.24.15l-60.15-31.61-60.15,31.61s-.16-.05-.26-.33l11.46-66.84L12.17,83.4c-.11-.1-.12-.12-.07-.27.05-.16.07-.16.22-.18l67.11-9.75,30.02-60.82c.06-.13.07-.15.24-.15s.17.02.24.15l30.02,60.82,67.11,9.75c.15.02.16.02.22.18.05.16.04.17-.07.27l-48.57,47.34,11.44,67.03Z"/>
      </g>
    </g>
  </g>
</svg>