<?xml version="1.0" encoding="UTF-8"?>
<svg xmlns="http://www.w3.org/2000/svg" xmlns:xlink="http://www.w3.org/1999/xlink" viewBox="0 0 112.01 114.71">
  <defs>
    <style>
      .cls-1 {
        fill: #89b8db;
        mix-blend-mode: multiply;
        opacity: .3;
      }

      .cls-1, .cls-2, .cls-3, .cls-4, .cls-5 {
        stroke-width: 0px;
      }

      .cls-2 {
        fill: url(#Unbenannter_Verlauf_13);
        opacity: .61;
      }

      .cls-6 {
        isolation: isolate;
      }

      .cls-3 {
        fill: #d6e8fd;
      }

      .cls-4 {
        fill: #023276;
      }

      .cls-5 {
        fill: #0058c6;
      }
    </style>
    <radialGradient id="Unbenannter_Verlauf_13" data-name="Unbenannter Verlauf 13" cx="58.17" cy="50.71" fx="58.17" fy="50.71" r="23.91" gradientUnits="userSpaceOnUse">
      <stop offset="0" stop-color="#aeddff" stop-opacity=".3"/>
      <stop offset=".34" stop-color="#7ec3f7" stop-opacity=".34"/>
      <stop offset=".7" stop-color="#3a9eed" stop-opacity=".4"/>
      <stop offset=".97" stop-color="#266ee0" stop-opacity=".5"/>
    </radialGradient>
  </defs>
  <g class="cls-6">
    <g id="Layer_1" data-name="Layer 1">
      <g>
        <path class="cls-4" d="M27.43,69.06c.05.11,1.37,3.5,1.45,3.6,2.64,3.8,57.38,5.27,59.21,2.2,1.85-3.1,2.33-36.21.7-40.7-.03-.07-1.32-3.42-1.34-3.47-1.73-3.61-56.23-.89-58.36,2.27-2.13,3.16-3.48,32.07-1.65,36.11Z"/>
        <path class="cls-5" d="M27.43,69.06c1.83,4.03,57.51,5.68,59.39,2.53,1.88-3.15,2.35-37.29.62-40.9-1.73-3.61-57.5-4.17-59.63-1.01-2.13,3.16-2.22,35.35-.39,39.38Z"/>
        <path class="cls-3" d="M84.88,34.59c-1.46-3.26-52.9-4.41-54.42-1.89-1.52,2.52-1.98,29.97-.6,32.89,1.38,2.91,52.89,3.2,54.61.67,1.72-2.53,1.87-28.42.41-31.67Z"/>
        <path class="cls-1" d="M30.1,35.54c1.58-2.52,53.56-1.56,55.09,1.7.09.2.18.47.26.82-.16-1.77-.37-3.08-.63-3.67-1.46-3.26-52.83-4.22-54.35-1.7-.31.52-.58,2.09-.8,4.29.13-.7.28-1.2.44-1.45Z"/>
      </g>
      <path class="cls-2" d="M85.59,35.65c-1.46-3.26-52.9-4.41-54.42-1.89-1.52,2.52-1.98,29.97-.6,32.89,1.38,2.91,52.89,3.2,54.61.67,1.72-2.53,1.87-28.42.41-31.67Z"/>
    </g>
  </g>
</svg>