<?xml version="1.0" encoding="UTF-8"?>
<svg xmlns="http://www.w3.org/2000/svg" viewBox="0 0 1024 768">
  <defs>
    <style>
      .cls-1 {
        fill: #e5cab7;
      }

      .cls-1, .cls-2, .cls-3, .cls-4, .cls-5, .cls-6 {
        stroke-width: 5px;
      }

      .cls-1, .cls-2, .cls-5 {
        stroke: #f4ede1;
      }

      .cls-1, .cls-2, .cls-5, .cls-7 {
        stroke-miterlimit: 10;
      }

      .cls-2, .cls-8 {
        fill: #a3f3bf;
      }

      .cls-3, .cls-9, .cls-4, .cls-5, .cls-6, .cls-10 {
        fill: none;
      }

      .cls-3, .cls-9, .cls-4, .cls-6, .cls-10 {
        stroke-linejoin: round;
      }

      .cls-3, .cls-4 {
        stroke: #ebe7dc;
        stroke-linecap: round;
      }

      .cls-9 {
        stroke: #231f20;
      }

      .cls-9, .cls-11, .cls-12 {
        opacity: .4;
      }

      .cls-13, .cls-14, .cls-15, .cls-12, .cls-16, .cls-17 {
        mix-blend-mode: multiply;
      }

      .cls-4 {
        stroke-dasharray: 0 0 11.42 11.42;
      }

      .cls-7 {
        fill: #f1f2f2;
        stroke: #374a68;
      }

      .cls-6, .cls-10 {
        stroke: #6a6971;
      }

      .cls-18 {
        fill: #f2f6f8;
      }

      .cls-18, .cls-19, .cls-14, .cls-15, .cls-20, .cls-21, .cls-22, .cls-23, .cls-24, .cls-25, .cls-26, .cls-27, .cls-28, .cls-29, .cls-30, .cls-31, .cls-32, .cls-33, .cls-34, .cls-35, .cls-36, .cls-37, .cls-38, .cls-39, .cls-40, .cls-41, .cls-42, .cls-8, .cls-43, .cls-44, .cls-45, .cls-46, .cls-47, .cls-48, .cls-49, .cls-50, .cls-51, .cls-52, .cls-53, .cls-54, .cls-55, .cls-56, .cls-57, .cls-58, .cls-59, .cls-60, .cls-61, .cls-62, .cls-63 {
        stroke-width: 0px;
      }

      .cls-18, .cls-19, .cls-17 {
        opacity: .5;
      }

      .cls-19, .cls-62 {
        fill: #6a6971;
      }

      .cls-14, .cls-15, .cls-16 {
        opacity: .3;
      }

      .cls-14, .cls-36 {
        fill: #22bf88;
      }

      .cls-15, .cls-30 {
        fill: #591d08;
      }

      .cls-64 {
        opacity: .2;
      }

      .cls-20 {
        fill: #526378;
      }

      .cls-20, .cls-21, .cls-22 {
        fill-rule: evenodd;
      }

      .cls-21 {
        fill: #a39b94;
      }

      .cls-22 {
        fill: #e6e6e6;
      }

      .cls-65 {
        isolation: isolate;
      }

      .cls-23 {
        fill: #f9ffff;
      }

      .cls-24 {
        fill: #f9f9f7;
      }

      .cls-25 {
        fill: #79a6bb;
      }

      .cls-26 {
        fill: #5ba5bc;
      }

      .cls-27 {
        fill: #538da5;
      }

      .cls-28 {
        fill: #702c00;
      }

      .cls-29 {
        fill: #5a5c60;
      }

      .cls-31 {
        fill: #374550;
      }

      .cls-32 {
        fill: #374a68;
      }

      .cls-33 {
        fill: #194256;
      }

      .cls-34 {
        fill: #151545;
      }

      .cls-35 {
        fill: #231f20;
      }

      .cls-37 {
        fill: #1beb83;
      }

      .cls-38 {
        fill: #d0ecf9;
      }

      .cls-39 {
        fill: #abcffb;
      }

      .cls-40 {
        fill: #d6e8fd;
      }

      .cls-41 {
        fill: #bcb1af;
      }

      .cls-42 {
        fill: #d7ebf4;
      }

      .cls-43 {
        fill: #8ba7b5;
      }

      .cls-44 {
        fill: #98a6d7;
      }

      .cls-45 {
        fill: #7f8d9e;
      }

      .cls-46 {
        fill: #939598;
      }

      .cls-47 {
        fill: #80b7f9;
      }

      .cls-48 {
        fill: #fff;
      }

      .cls-49 {
        fill: #fffefb;
      }

      .cls-50 {
        fill: #e3e0d7;
      }

      .cls-51 {
        fill: #e6e2d9;
      }

      .cls-52 {
        fill: #ebe7dc;
      }

      .cls-53 {
        fill: #f4ede1;
      }

      .cls-54 {
        fill: #027d4f;
      }

      .cls-55 {
        fill: #0058c6;
      }

      .cls-56 {
        fill: #003d32;
      }

      .cls-57 {
        fill: #003276;
      }

      .cls-58 {
        fill: #0045a6;
      }

      .cls-59 {
        fill: #0071ff;
      }

      .cls-60 {
        fill: #0065e4;
      }

      .cls-61 {
        fill: #006c36;
      }

      .cls-63 {
        fill: #02003f;
      }

      .cls-10 {
        stroke-width: 9px;
      }
    </style>
  </defs>
  <g class="cls-65">
    <g id="Layer_1" data-name="Layer 1">
      <polygon class="cls-45" points="381.94 536.13 142.56 488.43 505.61 703.09 801.53 508.75 563.91 587.37 381.94 536.13"/>
      <polygon class="cls-19" points="141.95 488.17 313.93 588.25 404.03 530.39 464.11 592.12 523.88 627.59 802.15 510.46 823.03 496.97 584.23 292.33 556.92 277.81 281.24 352.4 265.34 356.81 218.52 410.7 230.01 429.25 249.44 439.85 141.95 488.17"/>
      <g>
        <g>
          <path class="cls-51" d="M551.48,570.02c-.09.04-.19.1-.27.15l-8.63,5.68c-1.02.67-1.3,2.04-.63,3.06.42.64,1.13.99,1.85.99.33,0,.66-.07.97-.23.08-.04.16-.09.24-.14l8.63-5.68c1.02-.67,1.3-2.04.63-3.06-.61-.93-1.81-1.25-2.78-.79Z"/>
          <path class="cls-51" d="M516.67,592.9l-8.63,5.68c-1.02.67-1.3,2.04-.63,3.06.42.64,1.13,1,1.85,1,.42,0,.84-.12,1.21-.36l8.63-5.68c.13-.09.25-.19.36-.3.72-.73.85-1.88.27-2.76-.67-1.02-2.04-1.3-3.06-.63Z"/>
          <path class="cls-51" d="M568.71,558.68c-.08.04-.16.08-.23.13l-8.63,5.68c-1.02.67-1.3,2.04-.63,3.06.42.65,1.13,1,1.85,1,.32,0,.64-.07.95-.21.09-.04.18-.09.27-.15l8.63-5.68c1.02-.67,1.3-2.04.63-3.06-.62-.94-1.84-1.26-2.83-.77Z"/>
          <path class="cls-51" d="M534.65,581.23c-.25.06-.49.16-.71.31l-8.63,5.68c-.12.08-.23.17-.33.26-.75.72-.9,1.9-.31,2.8.42.64,1.13.99,1.85.99.42,0,.84-.12,1.21-.36l8.64-5.68c1.02-.67,1.3-2.04.63-3.06-.52-.8-1.47-1.14-2.35-.94Z"/>
          <path class="cls-51" d="M640.61,513.99c-.67-1.02-2.04-1.3-3.06-.63l-8.64,5.68c-1.02.67-1.3,2.04-.63,3.06.42.64,1.13.99,1.85.99.26,0,.52-.05.77-.14.15-.06.3-.13.44-.23l8.63-5.68c.65-.43,1-1.13.99-1.85,0-.41-.12-.83-.36-1.21Z"/>
          <path class="cls-51" d="M620.29,524.72l-8.64,5.68c-1.02.67-1.3,2.04-.63,3.06.42.64,1.13.99,1.85.99.26,0,.51-.04.76-.14.16-.06.31-.13.45-.23l8.63-5.68c.65-.43,1-1.14.99-1.87,0-.41-.12-.82-.36-1.19-.67-1.02-2.04-1.3-3.06-.63Z"/>
          <path class="cls-51" d="M603.28,535.93c-.09.04-.18.09-.27.15l-8.63,5.68c-1.02.67-1.3,2.04-.63,3.06.42.65,1.13,1,1.85,1,.33,0,.67-.07.98-.23.08-.04.16-.08.23-.13l8.63-5.68c1.02-.67,1.3-2.04.63-3.06-.61-.93-1.81-1.25-2.79-.78Z"/>
          <path class="cls-51" d="M585.99,547.31c-.08.04-.17.09-.25.14l-8.64,5.68c-1.02.67-1.3,2.04-.63,3.06.42.64,1.13.99,1.85.99.17,0,.33-.02.5-.06.25-.06.49-.16.72-.31l8.63-5.68c1.02-.67,1.3-2.04.63-3.06-.62-.94-1.83-1.25-2.81-.77Z"/>
        </g>
        <g>
          <path class="cls-51" d="M499.4,604.26l-4.43,2.91c-.64.42-.99,1.13-1,1.85,0,.42.12.84.36,1.21.42.64,1.13,1,1.85,1,.42,0,.84-.12,1.21-.36l4.43-2.91c.64-.42.99-1.13,1-1.85,0-.42-.12-.84-.36-1.21-.67-1.02-2.04-1.3-3.06-.63Z"/>
          <path class="cls-51" d="M653.68,505.4c-.67-1.02-2.04-1.3-3.06-.63l-4.43,2.91c-.65.42-.99,1.13-.99,1.85,0,.42.12.84.36,1.21.42.64,1.13.99,1.85.99.42,0,.84-.12,1.21-.36l4.43-2.91c.65-.42.99-1.13.99-1.85,0-.42-.12-.84-.36-1.21Z"/>
        </g>
      </g>
      <g>
        <path class="cls-3" d="M228.16,533.71l4.53-2.75-4.53,2.75Z"/>
        <path class="cls-4" d="M241.3,525.72l116.33-70.75-116.33,70.75Z"/>
        <path class="cls-3" d="M361.94,452.34l4.53-2.75-4.53,2.75Z"/>
      </g>
      <g class="cls-17">
        <path class="cls-35" d="M384.78,468.73c.42.24.43.65.02.9l-51.67,31.97c-.41.26-1.1.27-1.52.03l-25.48-14.54c-.42-.24-.43-.65-.02-.9l51.67-31.97c.41-.26,1.1-.27,1.52-.03l25.48,14.54Z"/>
        <g class="cls-11">
          <path class="cls-35" d="M358.54,453.76l27.01,15.41-53.18,32.9-27.01-15.41,53.18-32.9h0ZM358.54,451.99c-.32,0-.65.09-.93.26l-53.18,32.9c-.53.33-.85.91-.84,1.53.01.62.35,1.19.89,1.5l27.01,15.41c.27.15.57.23.88.23.32,0,.65-.09.93-.26l53.18-32.9c.53-.33.85-.91.84-1.53-.01-.62-.35-1.19-.89-1.5l-27.01-15.41c-.27-.16-.57-.23-.88-.23h0Z"/>
        </g>
        <g class="cls-64">
          <path class="cls-35" d="M358.54,453.76l27.01,15.41-53.18,32.9-27.01-15.41,53.18-32.9h0ZM358.54,450.22c-.65,0-1.29.18-1.86.53l-53.18,32.9c-1.06.66-1.7,1.82-1.67,3.07.02,1.25.7,2.39,1.78,3.01l27.01,15.41c.54.31,1.15.46,1.75.46.65,0,1.29-.18,1.86-.53l53.18-32.9c1.06-.66,1.7-1.82,1.67-3.07-.02-1.25-.7-2.39-1.78-3.01l-27.01-15.41c-.54-.31-1.15-.46-1.75-.46h0Z"/>
        </g>
      </g>
      <g class="cls-12">
        <path class="cls-35" d="M724.13,477.61c.42.24.43.64.02.9l-58.47,36.66c-.41.26-1.1.28-1.52.04l-26.77-14.95c-.42-.24-.43-.64-.02-.9l58.47-36.67c.41-.26,1.1-.28,1.52-.04l26.77,14.95Z"/>
        <g class="cls-11">
          <path class="cls-35" d="M696.59,462.23l28.31,15.81-59.97,37.6-28.31-15.81,59.97-37.6h0ZM696.59,460.47c-.33,0-.65.09-.94.27l-59.97,37.6c-.53.33-.84.92-.83,1.54.02.62.36,1.19.9,1.5l28.31,15.81c.27.15.56.22.86.22.33,0,.65-.09.94-.27l59.97-37.6c.53-.33.84-.92.83-1.54-.02-.62-.36-1.19-.9-1.5l-28.31-15.81c-.27-.15-.56-.22-.86-.22h0Z"/>
        </g>
        <g class="cls-64">
          <path class="cls-35" d="M696.59,462.23l28.31,15.81-59.97,37.6-28.31-15.81,59.97-37.6h0ZM696.59,458.7c-.65,0-1.3.18-1.88.54l-59.97,37.6c-1.06.66-1.69,1.84-1.66,3.08.03,1.25.72,2.39,1.81,3l28.31,15.81c.54.3,1.13.45,1.72.45.65,0,1.3-.18,1.88-.54l59.97-37.6c1.06-.66,1.69-1.84,1.66-3.08-.03-1.25-.72-2.39-1.81-3l-28.31-15.81c-.54-.3-1.13-.45-1.72-.45h0Z"/>
        </g>
      </g>
      <g>
        <polygon class="cls-37" points="385.12 547.89 464.11 592.12 542.95 543.95 413.1 468.38 261.97 557.3 316.58 589.13 385.12 547.89"/>
        <g class="cls-13">
          <path class="cls-37" d="M413.12,474.52l119.48,69.54-68.61,41.92-76.28-42.71-2.69-1.5-2.64,1.59-65.86,39.62-44.07-25.7,140.66-82.76h0ZM413.1,468.38l-151.13,88.92,54.6,31.84,68.55-41.24,78.98,44.23,78.84-48.17-129.85-75.57h0Z"/>
        </g>
        <polygon class="cls-1" points="385.12 547.89 464.11 592.12 542.95 543.95 413.1 468.38 261.97 557.3 316.58 589.13 385.12 547.89"/>
      </g>
      <g>
        <path class="cls-37" d="M516.97,323.46l306.06,173.51,59.02-37.81-301.58-171.99-63.5,36.29Z"/>
        <g class="cls-13">
          <path class="cls-37" d="M580.48,293.28l291.34,166.15-48.95,31.36-295.18-167.34,52.79-30.17h0ZM580.47,287.17l-63.5,36.29,306.06,173.51,59.02-37.81-301.58-171.99h0Z"/>
        </g>
        <path class="cls-1" d="M516.97,323.46l306.06,173.51,59.02-37.81-301.58-171.99-63.5,36.29Z"/>
      </g>
      <g>
        <polygon class="cls-37" points="290.38 462.3 343.9 428.89 242.2 370.86 178.7 407.15 231.68 437.22 141.95 488.17 195.03 517.81 283.4 466.58 283.47 466.62 288.8 463.29 290.41 462.32 290.38 462.3"/>
        <g class="cls-13">
          <path class="cls-37" d="M242.21,376.96l91.36,52.13-45.99,28.71c-.12.08-.24.16-.35.24l-1.17.71s-.04.02-.05.03l-4.6,2.87c-.22.09-.44.2-.66.32l-85.76,49.72-42.23-23.58,81.55-46.3c1.66-.94,2.68-2.7,2.68-4.61,0-1.91-1.03-3.67-2.68-4.61l-44.89-25.48,52.8-30.17h0ZM242.2,370.86l-63.5,36.29,52.98,30.07-89.73,50.95,53.08,29.64,88.37-51.24.08.04,5.33-3.33,1.6-.97h-.02s53.52-33.43,53.52-33.43l-101.7-58.03h0Z"/>
        </g>
        <polygon class="cls-2" points="290.38 462.3 343.9 428.89 242.2 370.86 178.7 407.15 231.68 437.22 141.95 488.17 195.03 517.81 283.4 466.58 283.47 466.62 288.8 463.29 290.41 462.32 290.38 462.3"/>
      </g>
      <g>
        <path class="cls-37" d="M259.47,357.67l86.32,47.25,211.13-127.12-86.2-49.21-211.25,129.07Z"/>
        <g class="cls-13">
          <path class="cls-37" d="M470.81,234.75l75.63,43.18-200.78,120.89-75.62-41.39,200.77-122.67h0ZM470.72,228.6l-211.25,129.07,86.32,47.25,211.13-127.12-86.2-49.21h0Z"/>
        </g>
        <path class="cls-2" d="M259.47,357.67l86.32,47.25,211.13-127.12-86.2-49.21-211.25,129.07Z"/>
      </g>
      <g>
        <path class="cls-8" d="M367.02,414.45l201.15,116.7,128.19-79.66-198.43-116.06-130.91,79.02Z"/>
        <g class="cls-13">
          <path class="cls-53" d="M497.98,341.6l188.13,110.03-117.97,74.82-190.65-110.61,120.49-74.24h0ZM497.93,335.43l-130.91,79.02,201.15,116.7,128.19-79.66-198.43-116.06h0Z"/>
        </g>
        <path class="cls-5" d="M367.02,414.45l201.15,116.7,128.19-79.66-198.43-116.06-130.91,79.02Z"/>
      </g>
      <g>
        <g class="cls-16">
          <polygon class="cls-36" points="516.58 402.13 498.14 412.84 477.63 401.01 496.07 390.29 516.58 402.13"/>
        </g>
        <g class="cls-11">
          <path class="cls-35" d="M495.86,399.81c-.8,0-1.62-.26-2.45-.77l-.06-.04-11.2-5.22-.41.11c-1.82.48-3.95.74-6.16.74-3.65,0-6.98-.71-8.9-1.9-2.58-1.6-5.19-5.75-4.83-8.91.2-1.69,1.25-2.87,3.13-3.51,1.4-.47,2.93-.71,4.55-.71,5.93,0,11.81,3.1,14.79,4.95,3.22,2,5.23,4.06,5.25,5.39,0,.18.01.72-.95,1.36l-1.53,1.02,11.24,6.75c-.3.16-.73.36-1.3.55-.39.13-.78.2-1.18.2h0Z"/>
          <g class="cls-11">
            <path class="cls-35" d="M469.54,379.59c5.93,0,11.81,3.1,14.79,4.95,3.22,2,5.23,4.06,5.25,5.39,0,.18.01.72-.95,1.36l-1.53,1.02,11.24,6.75c-.3.16-.73.36-1.3.55-.39.13-.78.2-1.18.2-.8,0-1.62-.26-2.45-.77l-.06-.04-11.2-5.22-.41.11c-1.82.48-3.95.74-6.16.74-3.65,0-6.98-.71-8.9-1.9-2.58-1.6-5.19-5.75-4.83-8.91.2-1.69,1.25-2.87,3.13-3.51,1.4-.47,2.93-.71,4.55-.71h0ZM469.54,378.42c-1.75,0-3.4.26-4.92.77-2.93.99-3.75,2.98-3.92,4.48-.43,3.69,2.49,8.26,5.37,10.04,2.1,1.3,5.65,2.08,9.51,2.08,2.31,0,4.55-.27,6.46-.78h0l10.75,5.02h0c1.01.63,2.04.94,3.06.94.53,0,1.05-.09,1.56-.26.56-.19,1.06-.4,1.48-.63.37-.2.6-.58.61-1,.01-.42-.21-.81-.57-1.03l-9.66-5.8c.99-.66,1.48-1.46,1.47-2.36-.04-2.42-3.66-5.02-5.81-6.36-3.08-1.92-9.19-5.13-15.41-5.13h0Z"/>
          </g>
          <g class="cls-64">
            <path class="cls-35" d="M469.54,379.59c5.93,0,11.81,3.1,14.79,4.95,3.22,2,5.23,4.06,5.25,5.39,0,.18.01.72-.95,1.36l-1.53,1.02,11.24,6.75c-.3.16-.73.36-1.3.55-.39.13-.78.2-1.18.2-.8,0-1.62-.26-2.45-.77l-.06-.04-11.2-5.22-.41.11c-1.82.48-3.95.74-6.16.74-3.65,0-6.98-.71-8.9-1.9-2.58-1.6-5.19-5.75-4.83-8.91.2-1.69,1.25-2.87,3.13-3.51,1.4-.47,2.93-.71,4.55-.71h0ZM469.54,376.09c-2,0-3.91.3-5.67.89-3.19,1.08-5.14,3.36-5.5,6.43-.55,4.78,2.93,10.1,6.46,12.3,2.49,1.54,6.4,2.43,10.74,2.43,2.18,0,4.31-.22,6.22-.65l9.89,4.62c1.35.81,2.75,1.22,4.17,1.22.78,0,1.55-.13,2.3-.38.69-.23,1.31-.49,1.84-.78,1.11-.6,1.81-1.74,1.84-3,.03-1.26-.62-2.44-1.7-3.09l-7.38-4.43c.22-.56.33-1.15.32-1.77-.05-2.69-2.37-5.48-6.91-8.3-3.29-2.05-9.84-5.48-16.64-5.48h0Z"/>
          </g>
        </g>
        <g>
          <path class="cls-30" d="M493.58,378.09v21.13c0,1.37,1.58,2.47,3.52,2.47s3.52-1.11,3.52-2.47v-21.13h-7.04Z"/>
          <path class="cls-54" d="M484.78,373.98c0,8.1,5.52,14.67,12.33,14.67s12.33-6.57,12.33-14.67-5.52-24.07-12.33-24.07-12.33,15.96-12.33,24.07Z"/>
        </g>
      </g>
      <g>
        <g class="cls-11">
          <path class="cls-35" d="M518.8,275.05c.44.2.46.57.04.81l-44.58,25.9c-.42.24-1.11.25-1.53,0l-74.79-43.13c-.42-.24-.42-.64,0-.88l36.39-21c.42-.24,1.13-.27,1.57-.07l82.9,38.37Z"/>
          <g class="cls-11">
            <path class="cls-35" d="M435.1,236.31l84.51,39.11-46.11,26.78-76.32-44.01,37.92-21.88h0ZM435.1,234.54c-.31,0-.61.08-.88.24l-37.92,21.88c-.55.32-.88.9-.88,1.53,0,.63.34,1.21.88,1.53l76.32,44.01c.27.16.58.24.88.24s.61-.08.89-.24l46.11-26.78c.57-.33.91-.95.88-1.61-.03-.66-.42-1.24-1.02-1.52l-84.51-39.11c-.24-.11-.49-.16-.74-.16h0Z"/>
          </g>
          <g class="cls-64">
            <path class="cls-35" d="M435.1,236.31l84.51,39.11-46.11,26.78-76.32-44.01,37.92-21.88h0ZM435.1,232.78c-.61,0-1.22.16-1.77.47l-37.92,21.88c-1.09.63-1.77,1.8-1.77,3.06,0,1.26.67,2.43,1.77,3.06l76.32,44.01c.55.32,1.16.47,1.77.47s1.23-.16,1.77-.48l46.11-26.78c1.14-.66,1.82-1.9,1.75-3.22-.06-1.32-.85-2.49-2.05-3.04l-84.51-39.11c-.47-.22-.98-.33-1.48-.33h0Z"/>
          </g>
        </g>
        <g class="cls-65">
          <polygon class="cls-44" points="520 175.43 519.6 275.42 473.13 302.43 473.53 202.44 520 175.43"/>
          <polygon class="cls-57" points="488.82 201.47 488.75 210.71 480.15 215.71 480.23 206.46 488.82 201.47"/>
          <polygon class="cls-57" points="502.29 193.62 502.21 202.86 493.62 207.86 493.69 198.61 502.29 193.62"/>
          <polygon class="cls-57" points="515.01 186.5 514.93 195.74 506.34 200.74 506.41 191.49 515.01 186.5"/>
          <polygon class="cls-57" points="488.82 219.23 488.75 228.47 480.15 233.46 480.23 224.22 488.82 219.23"/>
          <polygon class="cls-57" points="502.29 211.37 502.21 220.62 493.62 225.61 493.69 216.37 502.29 211.37"/>
          <polygon class="cls-57" points="515.01 204.26 514.93 213.5 506.34 218.49 506.41 209.25 515.01 204.26"/>
          <polygon class="cls-57" points="488.82 236.7 488.75 245.94 480.15 250.93 480.23 241.69 488.82 236.7"/>
          <polygon class="cls-57" points="502.29 228.85 502.21 238.09 493.62 243.08 493.69 233.84 502.29 228.85"/>
          <polygon class="cls-57" points="515.01 221.73 514.93 230.97 506.34 235.97 506.41 226.72 515.01 221.73"/>
          <polygon class="cls-57" points="488.82 254.46 488.75 263.7 480.15 268.69 480.23 259.45 488.82 254.46"/>
          <polygon class="cls-57" points="502.29 246.61 502.21 255.85 493.62 260.84 493.69 251.6 502.29 246.61"/>
          <polygon class="cls-57" points="515.01 239.49 514.93 248.73 506.34 253.72 506.41 244.48 515.01 239.49"/>
          <polygon class="cls-57" points="488.82 272.21 488.75 281.45 480.15 286.45 480.23 277.21 488.82 272.21"/>
          <polygon class="cls-57" points="502.29 264.36 502.21 273.6 493.62 278.6 493.69 269.35 502.29 264.36"/>
          <polygon class="cls-57" points="515.01 257.24 514.93 266.48 506.34 271.48 506.41 262.24 515.01 257.24"/>
          <polygon class="cls-63" points="473.53 202.44 473.13 302.43 421.42 272.58 421.82 172.59 473.53 202.44"/>
          <polygon class="cls-40" points="467.26 206.59 467.2 215.71 459.29 211.14 459.35 202.02 467.26 206.59"/>
          <polygon class="cls-40" points="457.13 200.91 457.07 210.03 449.15 205.46 449.21 196.35 457.13 200.91"/>
          <polygon class="cls-40" points="446.38 194.76 446.32 203.88 438.41 199.31 438.47 190.2 446.38 194.76"/>
          <polygon class="cls-40" points="435.66 189.14 435.59 198.26 427.68 193.69 427.74 184.57 435.66 189.14"/>
          <polygon class="cls-40" points="467.26 224.94 467.2 234.06 459.29 229.49 459.35 220.38 467.26 224.94"/>
          <polygon class="cls-40" points="457.13 219.27 457.07 228.38 449.15 223.81 449.21 214.7 457.13 219.27"/>
          <polygon class="cls-40" points="446.38 213.12 446.32 222.23 438.41 217.66 438.47 208.55 446.38 213.12"/>
          <polygon class="cls-40" points="435.66 207.49 435.59 216.61 427.68 212.04 427.74 202.92 435.66 207.49"/>
          <polygon class="cls-40" points="467.26 242.42 467.2 251.53 459.29 246.97 459.35 237.85 467.26 242.42"/>
          <polygon class="cls-43" points="457.13 236.74 457.07 245.85 449.15 241.29 449.21 232.17 457.13 236.74"/>
          <polygon class="cls-42" points="446.38 230.59 446.32 239.7 438.41 235.14 438.47 226.02 446.38 230.59"/>
          <polygon class="cls-42" points="435.66 224.96 435.59 234.08 427.68 229.51 427.74 220.4 435.66 224.96"/>
          <polygon class="cls-40" points="467.26 260.17 467.2 269.29 459.29 264.72 459.35 255.61 467.26 260.17"/>
          <polygon class="cls-40" points="457.13 254.5 457.07 263.61 449.15 259.05 449.21 249.93 457.13 254.5"/>
          <polygon class="cls-42" points="446.38 248.34 446.32 257.46 438.41 252.89 438.47 243.78 446.38 248.34"/>
          <polygon class="cls-42" points="435.66 242.72 435.59 251.84 427.68 247.27 427.74 238.15 435.66 242.72"/>
          <polygon class="cls-40" points="467.26 277.93 467.2 287.04 459.29 282.48 459.35 273.36 467.26 277.93"/>
          <polygon class="cls-40" points="457.13 272.25 457.07 281.37 449.15 276.8 449.21 267.69 457.13 272.25"/>
          <polygon class="cls-42" points="446.38 266.1 446.32 275.22 438.41 270.65 438.47 261.54 446.38 266.1"/>
          <polygon class="cls-42" points="435.66 260.48 435.59 269.59 427.68 265.03 427.74 255.91 435.66 260.48"/>
          <polygon class="cls-39" points="520 175.43 473.53 202.44 421.82 172.59 468.3 145.58 520 175.43"/>
        </g>
        <g class="cls-65">
          <polygon class="cls-47" points="496.15 166.99 495.95 176.04 471.96 189.97 472.16 180.92 496.15 166.99"/>
          <polygon class="cls-63" points="472.16 180.92 471.96 189.97 445.28 174.57 445.48 165.52 472.16 180.92"/>
          <polygon class="cls-23" points="496.15 166.99 472.16 180.92 445.48 165.52 469.47 151.58 496.15 166.99"/>
        </g>
      </g>
      <path class="cls-6" d="M449.96,301.6l40.19,22.53-40.19-22.53Z"/>
      <path class="cls-10" d="M550.66,350.63l27.38-16.34-27.38,16.34Z"/>
      <path class="cls-10" d="M642.53,404.51l27.38-16.34-27.38,16.34Z"/>
      <path class="cls-10" d="M735.28,460.17l27.38-16.34-27.38,16.34Z"/>
      <g>
        <polygon class="cls-36" points="435.67 490.23 421.73 498.33 406.22 489.38 420.16 481.28 435.67 490.23"/>
        <g class="cls-11">
          <path class="cls-36" d="M420.74,488.76c-.69,0-1.23-.17-1.35-.26l-5.03-3.87-.44.15c-3.17,1.04-6.12,1.48-7.34,1.64l-6.62-13.18,21.95,7.36c-.77.64-2.01,1.54-3.84,2.47l-1.22.62,5.64,4.55c-.14.1-.35.22-.64.34-.31.13-.7.19-1.12.19h0Z"/>
          <g class="cls-11">
            <path class="cls-36" d="M399.97,473.23l21.95,7.36c-.77.64-2.01,1.54-3.84,2.46l-1.22.62,5.64,4.55c-.14.1-.35.22-.64.34-.31.13-.7.19-1.12.19-.69,0-1.23-.17-1.35-.26l-5.03-3.87-.44.15c-3.17,1.04-6.12,1.48-7.34,1.64l-6.62-13.18h0ZM399.97,472.35c-.25,0-.5.11-.67.3-.23.27-.28.66-.12.98l6.62,13.18c.15.3.46.49.79.49.04,0,.07,0,.11,0,1.16-.15,4.23-.6,7.5-1.67l4.66,3.58c.38.27,1.14.45,1.89.45.54,0,1.04-.09,1.45-.26.31-.13.58-.27.81-.43.23-.16.37-.42.38-.69.01-.28-.11-.54-.33-.72l-4.58-3.69c1.94-.98,3.25-1.94,4-2.58.25-.21.36-.53.3-.84-.06-.31-.28-.57-.59-.67l-21.95-7.36c-.09-.03-.19-.05-.28-.05h0Z"/>
          </g>
          <g class="cls-64">
            <path class="cls-36" d="M399.97,473.23l21.95,7.36c-.77.64-2.01,1.54-3.84,2.46l-1.22.62,5.64,4.55c-.14.1-.35.22-.64.34-.31.13-.7.19-1.12.19-.69,0-1.23-.17-1.35-.26l-5.03-3.87-.44.15c-3.17,1.04-6.12,1.48-7.34,1.64l-6.62-13.18h0ZM399.97,470.58c-.75,0-1.49.32-2,.91-.7.81-.85,1.97-.37,2.93l6.62,13.18c.45.9,1.38,1.46,2.37,1.46.11,0,.22,0,.33-.02,1.11-.14,3.86-.54,6.94-1.47l3.93,3.02s.05.03.07.05c.98.71,2.47.76,2.9.76.78,0,1.49-.13,2.12-.39.43-.17.82-.38,1.15-.61.69-.48,1.11-1.25,1.14-2.08.03-.83-.33-1.63-.98-2.16l-2.57-2.07c.87-.56,1.54-1.07,2.01-1.47.74-.62,1.08-1.58.9-2.52-.18-.94-.85-1.72-1.76-2.02l-21.95-7.36c-.28-.09-.56-.14-.84-.14h0Z"/>
          </g>
        </g>
        <g>
          <path class="cls-36" d="M418.28,472.06v15.97c0,1.03,1.19,1.87,2.66,1.87s2.66-.84,2.66-1.87v-15.97h-5.33Z"/>
          <path class="cls-56" d="M431.61,478.39s-4.25,2.89-10.84,2.89c-6.24,0-10.84-2.89-10.84-2.89l10.83-32.9,10.86,32.9Z"/>
        </g>
      </g>
      <g class="cls-65">
        <polygon class="cls-59" points="709.15 465.5 663.92 506.61 638.16 491.75 639.77 461.97 709.15 465.5"/>
        <polygon class="cls-55" points="719.71 441.45 662.01 474.48 639.77 461.97 698.29 429.69 719.71 441.45"/>
      </g>
      <g class="cls-65">
        <polygon class="cls-57" points="719.71 441.45 662.01 474.48 663.92 506.61 724.26 470.67 719.71 441.45"/>
      </g>
      <g>
        <g>
          <path class="cls-31" d="M677.93,507.43c-.2,0-.4-.01-.59-.04-1.27-.17-2.38-.87-3.23-2.02-1.31-1.77-1.81-4.45-1.36-7.14.73-4.31,3.65-7.57,6.79-7.57.2,0,.39.01.59.04,1.26.17,2.38.87,3.23,2.02,1.31,1.78,1.82,4.45,1.36,7.15-.73,4.31-3.65,7.57-6.79,7.57Z"/>
          <path class="cls-31" d="M679.54,491.1c.18,0,.35.01.53.04,3.07.41,4.95,4.29,4.21,8.66-.7,4.11-3.47,7.2-6.35,7.2-.18,0-.36-.01-.54-.04-3.07-.41-4.95-4.29-4.21-8.65.7-4.12,3.48-7.2,6.36-7.2h0ZM679.54,490.21h0c-3.35,0-6.46,3.41-7.23,7.94-.48,2.81.06,5.61,1.44,7.48.92,1.25,2.14,2.01,3.53,2.2.22.03.44.04.65.04,3.35,0,6.46-3.41,7.23-7.93.48-2.82-.06-5.61-1.44-7.48-.92-1.25-2.14-2.01-3.53-2.2-.21-.03-.43-.04-.65-.04h0Z"/>
        </g>
        <path class="cls-50" d="M682.15,499.62c-.39,2.28-2.12,3.94-3.86,3.71-1.75-.23-2.85-2.28-2.46-4.56.39-2.28,2.12-3.94,3.86-3.71,1.75.24,2.85,2.28,2.46,4.56Z"/>
      </g>
      <g>
        <g>
          <path class="cls-31" d="M715.38,483.91c-.2,0-.4-.01-.59-.04-1.26-.17-2.38-.87-3.23-2.02-1.31-1.78-1.81-4.45-1.36-7.14.73-4.31,3.65-7.57,6.79-7.57.2,0,.4.01.59.04,1.26.17,2.38.87,3.23,2.02,1.31,1.77,1.82,4.45,1.36,7.15-.73,4.31-3.65,7.57-6.79,7.57Z"/>
          <path class="cls-31" d="M716.99,467.58c.18,0,.36.01.53.04,3.07.41,4.95,4.29,4.21,8.66-.7,4.11-3.47,7.2-6.36,7.2-.18,0-.36-.01-.53-.04-3.07-.41-4.95-4.29-4.21-8.66.7-4.11,3.47-7.2,6.36-7.2h0ZM717,466.69h0c-3.36,0-6.46,3.41-7.23,7.93-.48,2.81.06,5.61,1.44,7.48.92,1.25,2.14,2.01,3.53,2.2.22.03.43.04.65.04,3.35,0,6.46-3.41,7.23-7.94.48-2.82-.06-5.61-1.44-7.48-.92-1.25-2.14-2.01-3.53-2.2-.21-.03-.43-.04-.65-.04h0Z"/>
        </g>
        <path class="cls-50" d="M719.61,476.1c-.39,2.28-2.12,3.94-3.86,3.71-1.75-.24-2.85-2.28-2.47-4.56.39-2.28,2.12-3.94,3.86-3.71,1.75.23,2.85,2.28,2.46,4.56Z"/>
      </g>
      <g>
        <path class="cls-48" d="M660.41,495.09c.25,1.88-.61,3.54-1.93,3.71-1.31.17-2.58-1.22-2.82-3.1-.25-1.88.61-3.54,1.93-3.71,1.31-.17,2.58,1.23,2.83,3.11Z"/>
        <path class="cls-48" d="M659.37,495.36c.25,1.88-.62,3.54-1.93,3.71-1.31.17-2.58-1.22-2.83-3.11-.25-1.88.62-3.54,1.93-3.71,1.31-.17,2.58,1.23,2.83,3.11Z"/>
      </g>
      <g>
        <path class="cls-48" d="M645.94,487.63c.25,1.88-.61,3.54-1.93,3.71-1.31.17-2.58-1.22-2.82-3.1-.25-1.88.61-3.54,1.93-3.71,1.31-.16,2.58,1.23,2.82,3.11Z"/>
        <path class="cls-48" d="M644.9,487.9c.25,1.88-.62,3.54-1.93,3.71-1.31.17-2.58-1.23-2.82-3.11-.25-1.88.61-3.54,1.93-3.71,1.31-.17,2.58,1.23,2.83,3.11Z"/>
      </g>
      <polygon class="cls-40" points="658.84 476.43 642 466.78 641.15 478.36 658.84 488.2 658.84 476.43"/>
      <g>
        <polygon class="cls-40" points="679.2 480.26 687.86 475.18 686.49 463.7 677.82 468.68 679.2 480.26"/>
        <polygon class="cls-40" points="697.19 457.55 688.65 462.46 690.02 473.92 698.54 468.92 697.19 457.55"/>
        <polygon class="cls-40" points="710.88 461.69 718.52 457.21 716.95 446.2 709.54 450.46 710.88 461.69"/>
        <polygon class="cls-40" points="707.38 451.7 699.35 456.31 700.7 467.65 708.72 462.95 707.38 451.7"/>
        <polygon class="cls-40" points="675.66 469.92 666.05 475.45 667.07 487.37 677.04 481.52 675.66 469.92"/>
      </g>
      <polygon class="cls-57" points="649.06 459.27 664.93 468.2 664.93 464.28 649.3 455.73 649.06 459.27"/>
      <polygon class="cls-57" points="664.93 468.2 683.57 457.55 683.57 453.31 664.93 464.28 664.93 467.65 664.93 468.2"/>
      <polygon class="cls-40" points="683.57 453.31 664.93 464.28 649.3 455.73 668.45 445.36 683.57 453.31"/>
      <polygon class="cls-57" points="679.74 446.36 688.92 451.58 688.92 447.93 679.96 443.06 679.74 446.36"/>
      <polygon class="cls-57" points="688.92 451.58 695.97 447.41 695.97 443.45 688.92 447.93 688.92 451.07 688.92 451.58"/>
      <polygon class="cls-40" points="695.97 443.45 688.92 447.93 679.96 443.06 687.5 439.14 695.97 443.45"/>
      <polygon class="cls-57" points="694.25 438.23 703.43 443.45 703.43 439.79 694.47 434.92 694.25 438.23"/>
      <polygon class="cls-57" points="703.43 443.45 710.48 439.27 710.48 435.31 703.43 439.79 703.43 442.94 703.43 443.45"/>
      <polygon class="cls-40" points="710.48 435.31 703.43 439.79 694.47 434.92 702 431.01 710.48 435.31"/>
      <g>
        <polygon class="cls-36" points="357.85 539.67 343.91 547.77 328.4 538.82 342.34 530.72 357.85 539.67"/>
        <g class="cls-11">
          <path class="cls-35" d="M342.18,537.91c-.61,0-1.23-.2-1.85-.58l-.04-.03-8.47-3.95-.31.08c-1.37.36-2.98.56-4.66.56-2.76,0-5.28-.54-6.73-1.44-1.95-1.21-3.93-4.35-3.65-6.74.15-1.28.94-2.17,2.37-2.65,1.06-.36,2.21-.54,3.44-.54,4.48,0,8.93,2.35,11.18,3.74,2.43,1.51,3.95,3.07,3.97,4.07,0,.13,0,.54-.72,1.03l-1.16.77,8.49,5.1c-.23.12-.55.27-.98.41-.29.1-.59.15-.89.15h0Z"/>
          <g class="cls-11">
            <path class="cls-35" d="M322.28,522.63c4.48,0,8.93,2.35,11.18,3.74,2.43,1.51,3.95,3.07,3.97,4.07,0,.13,0,.54-.72,1.03l-1.16.77,8.49,5.1c-.23.12-.55.27-.98.41-.29.1-.59.15-.89.15-.61,0-1.23-.19-1.85-.58l-.04-.03-8.47-3.95-.31.08c-1.37.36-2.98.56-4.66.56-2.76,0-5.28-.54-6.73-1.44-1.95-1.21-3.93-4.35-3.65-6.74.15-1.28.94-2.17,2.37-2.65,1.06-.36,2.21-.54,3.44-.54h0ZM322.28,521.75c-1.32,0-2.58.2-3.72.58-2.21.75-2.83,2.25-2.96,3.39-.32,2.79,1.88,6.24,4.06,7.59,1.59.98,4.27,1.57,7.19,1.57,1.75,0,3.44-.2,4.88-.59h0l8.13,3.79c.77.47,1.54.71,2.32.71.4,0,.79-.07,1.18-.19.43-.15.81-.3,1.12-.47.28-.15.46-.44.46-.76,0-.32-.16-.61-.43-.78l-7.3-4.38c.75-.5,1.12-1.1,1.11-1.78-.03-1.84-2.76-3.8-4.39-4.81-2.33-1.45-6.95-3.88-11.65-3.88h0Z"/>
          </g>
          <g class="cls-64">
            <path class="cls-35" d="M322.28,522.63c4.48,0,8.93,2.35,11.18,3.74,2.43,1.51,3.95,3.07,3.97,4.07,0,.13,0,.54-.72,1.03l-1.16.77,8.49,5.1c-.23.12-.55.27-.98.41-.29.1-.59.15-.89.15-.61,0-1.23-.19-1.85-.58l-.04-.03-8.47-3.95-.31.08c-1.37.36-2.98.56-4.66.56-2.76,0-5.28-.54-6.73-1.44-1.95-1.21-3.93-4.35-3.65-6.74.15-1.28.94-2.17,2.37-2.65,1.06-.36,2.21-.54,3.44-.54h0ZM322.28,519.98c-1.52,0-2.96.23-4.29.68-2.41.81-3.89,2.54-4.15,4.86-.42,3.61,2.21,7.64,4.89,9.3,1.88,1.17,4.84,1.84,8.12,1.84,1.65,0,3.26-.17,4.7-.49l7.48,3.49c1.03.61,2.08.92,3.15.92.59,0,1.17-.1,1.74-.29.53-.18.99-.38,1.4-.59.84-.45,1.37-1.32,1.39-2.27.02-.95-.47-1.84-1.29-2.33l-5.58-3.35c.17-.42.25-.87.24-1.33-.04-2.04-1.79-4.15-5.22-6.28-2.49-1.55-7.44-4.14-12.58-4.14h0Z"/>
          </g>
        </g>
        <g>
          <path class="cls-28" d="M340.46,521.49v15.97c0,1.03,1.19,1.87,2.66,1.87s2.66-.84,2.66-1.87v-15.97h-5.33Z"/>
          <path class="cls-61" d="M333.81,518.39c0,6.13,4.17,11.09,9.32,11.09s9.32-4.97,9.32-11.09-4.17-18.2-9.32-18.2-9.32,12.07-9.32,18.2Z"/>
        </g>
      </g>
      <g>
        <path class="cls-37" d="M523.88,627.59l49.45,28.68,228.82-145.81-52.04-28.92-226.23,146.06Z"/>
        <g class="cls-13">
          <path class="cls-37" d="M750.32,487.71l41.48,23.06-218.6,139.3-39.18-22.72,216.29-139.64h0ZM750.12,481.53l-226.23,146.05,49.45,28.68,228.82-145.81-52.04-28.92h0Z"/>
        </g>
        <path class="cls-2" d="M523.88,627.59l49.45,28.68,228.82-145.81-52.04-28.92-226.23,146.06Z"/>
      </g>
      <g>
        <polygon class="cls-14" points="751.26 519.41 737.32 527.51 721.82 518.56 735.76 510.46 751.26 519.41"/>
        <g class="cls-11">
          <path class="cls-35" d="M735.6,517.65c-.61,0-1.23-.2-1.85-.58l-.04-.03-8.47-3.95-.31.08c-1.37.36-2.98.56-4.66.56-2.76,0-5.28-.54-6.73-1.44-1.95-1.21-3.93-4.35-3.65-6.74.15-1.28.94-2.17,2.37-2.65,1.06-.36,2.21-.54,3.44-.54,4.48,0,8.93,2.35,11.19,3.74,2.43,1.51,3.95,3.07,3.97,4.07,0,.13,0,.54-.72,1.03l-1.16.77,8.49,5.1c-.23.12-.55.27-.99.41-.29.1-.59.15-.89.15Z"/>
          <g class="cls-11">
            <path class="cls-35" d="M715.7,502.37c4.48,0,8.93,2.35,11.19,3.74,2.43,1.51,3.95,3.07,3.97,4.07,0,.13,0,.54-.72,1.03l-1.16.77,8.49,5.1c-.23.12-.55.27-.99.41-.29.1-.59.15-.89.15-.61,0-1.23-.2-1.85-.58l-.04-.03-8.47-3.95-.31.08c-1.37.36-2.98.56-4.66.56-2.76,0-5.28-.54-6.73-1.44-1.95-1.21-3.93-4.35-3.65-6.74.15-1.28.94-2.17,2.37-2.65,1.06-.36,2.21-.54,3.44-.54h0ZM715.7,501.49c-1.32,0-2.58.2-3.72.58-2.21.74-2.83,2.25-2.96,3.39-.32,2.79,1.88,6.24,4.06,7.59,1.59.98,4.28,1.57,7.19,1.57,1.75,0,3.43-.2,4.88-.59h0l8.13,3.79c.77.47,1.55.71,2.32.71.4,0,.79-.07,1.18-.19.43-.14.81-.3,1.12-.47.28-.15.46-.44.46-.76,0-.32-.16-.61-.43-.78l-7.3-4.38c.75-.5,1.12-1.1,1.11-1.78-.03-1.83-2.76-3.8-4.39-4.81-2.33-1.45-6.95-3.88-11.65-3.88h0Z"/>
          </g>
          <g class="cls-64">
            <path class="cls-35" d="M715.7,502.37c4.48,0,8.93,2.35,11.19,3.74,2.43,1.51,3.95,3.07,3.97,4.07,0,.13,0,.54-.72,1.03l-1.16.77,8.49,5.1c-.23.12-.55.27-.99.41-.29.1-.59.15-.89.15-.61,0-1.23-.2-1.85-.58l-.04-.03-8.47-3.95-.31.08c-1.37.36-2.98.56-4.66.56-2.76,0-5.28-.54-6.73-1.44-1.95-1.21-3.93-4.35-3.65-6.74.15-1.28.94-2.17,2.37-2.65,1.06-.36,2.21-.54,3.44-.54h0ZM715.7,499.72c-1.52,0-2.96.23-4.29.68-2.41.81-3.88,2.54-4.15,4.86-.42,3.61,2.21,7.64,4.89,9.3,1.88,1.17,4.84,1.84,8.12,1.84,1.65,0,3.26-.17,4.7-.49l7.48,3.49c1.03.61,2.08.92,3.15.92.59,0,1.18-.1,1.74-.29.52-.17.99-.37,1.39-.59.84-.45,1.37-1.32,1.39-2.27.02-.95-.47-1.84-1.29-2.33l-5.58-3.35c.17-.42.25-.87.24-1.34-.03-2.03-1.79-4.14-5.22-6.27-2.49-1.55-7.44-4.14-12.58-4.14h0Z"/>
          </g>
        </g>
        <g>
          <path class="cls-30" d="M733.88,501.23v15.97c0,1.03,1.19,1.87,2.66,1.87s2.66-.84,2.66-1.87v-15.97h-5.33Z"/>
          <path class="cls-54" d="M724.88,496.37c0,7.67,5.22,13.88,11.66,13.88s11.66-6.22,11.66-13.88-5.22-22.77-11.66-22.77-11.66,15.1-11.66,22.77Z"/>
        </g>
      </g>
      <g>
        <g class="cls-16">
          <polygon class="cls-36" points="626.85 599.83 612.91 607.93 597.41 598.98 611.35 590.88 626.85 599.83"/>
        </g>
        <g class="cls-11">
          <path class="cls-35" d="M611.19,598.08c-.61,0-1.23-.2-1.85-.58l-.04-.03-8.47-3.95-.31.08c-1.37.36-2.98.56-4.66.56-2.76,0-5.28-.54-6.73-1.44-1.95-1.21-3.93-4.35-3.65-6.74.15-1.28.94-2.17,2.37-2.65,1.06-.36,2.21-.54,3.44-.54,4.48,0,8.93,2.35,11.18,3.74,2.43,1.51,3.95,3.07,3.97,4.07,0,.13,0,.54-.72,1.03l-1.16.77,8.49,5.1c-.23.12-.55.27-.98.41-.29.1-.59.15-.89.15Z"/>
          <g class="cls-11">
            <path class="cls-35" d="M591.29,582.79c4.48,0,8.93,2.35,11.18,3.74,2.43,1.51,3.95,3.07,3.97,4.07,0,.13,0,.54-.72,1.03l-1.16.78,8.49,5.1c-.23.12-.55.27-.98.41-.29.1-.59.15-.89.15-.61,0-1.23-.2-1.85-.58l-.04-.03-8.47-3.95-.31.08c-1.37.36-2.98.56-4.66.56-2.76,0-5.28-.54-6.73-1.44-1.95-1.21-3.93-4.35-3.65-6.74.15-1.28.94-2.17,2.37-2.65,1.06-.36,2.21-.54,3.44-.54h0ZM591.29,581.91c-1.32,0-2.58.2-3.72.58-2.21.75-2.83,2.25-2.96,3.39-.32,2.79,1.88,6.24,4.06,7.59,1.59.98,4.28,1.57,7.19,1.57,1.75,0,3.44-.2,4.88-.59l8.13,3.79c.77.47,1.54.71,2.32.71.4,0,.79-.07,1.18-.19.43-.14.8-.3,1.12-.47.28-.15.46-.44.46-.76,0-.32-.16-.61-.43-.78l-7.3-4.38h0c.75-.5,1.12-1.1,1.11-1.78-.03-1.83-2.76-3.8-4.39-4.81-2.33-1.45-6.95-3.88-11.65-3.88h0Z"/>
          </g>
          <g class="cls-64">
            <path class="cls-35" d="M591.29,582.79c4.48,0,8.93,2.35,11.18,3.74,2.43,1.51,3.95,3.07,3.97,4.07,0,.13,0,.54-.72,1.03l-1.16.78,8.49,5.1c-.23.12-.55.27-.98.41-.29.1-.59.15-.89.15-.61,0-1.23-.2-1.85-.58l-.04-.03-8.47-3.95-.31.08c-1.37.36-2.98.56-4.66.56-2.76,0-5.28-.54-6.73-1.44-1.95-1.21-3.93-4.35-3.65-6.74.15-1.28.94-2.17,2.37-2.65,1.06-.36,2.21-.54,3.44-.54h0ZM591.29,580.14c-1.52,0-2.96.23-4.29.68-2.41.81-3.89,2.54-4.15,4.86-.42,3.61,2.21,7.64,4.89,9.3,1.88,1.17,4.84,1.84,8.12,1.84,1.65,0,3.26-.17,4.7-.49l7.48,3.49c1.02.61,2.08.92,3.15.92.59,0,1.18-.1,1.74-.29.52-.18.99-.37,1.39-.59.84-.45,1.37-1.32,1.39-2.27.02-.95-.47-1.84-1.29-2.33l-5.58-3.35c.17-.42.25-.87.24-1.33-.04-2.04-1.79-4.15-5.22-6.28-2.49-1.55-7.44-4.14-12.58-4.14h0Z"/>
          </g>
        </g>
        <g>
          <path class="cls-30" d="M609.47,581.66v15.97c0,1.03,1.19,1.87,2.66,1.87s2.66-.84,2.66-1.87v-15.97h-5.33Z"/>
          <path class="cls-54" d="M601.43,581.73c0,7.03,4.79,12.73,10.7,12.73s10.7-5.7,10.7-12.73-4.79-20.89-10.7-20.89-10.7,13.85-10.7,20.89Z"/>
        </g>
      </g>
      <g>
        <polygon class="cls-14" points="601.56 615.93 587.62 624.02 572.12 615.08 586.06 606.97 601.56 615.93"/>
        <g class="cls-11">
          <path class="cls-35" d="M586.64,614.45c-.69,0-1.23-.17-1.35-.26l-5.03-3.87-.44.15c-3.18,1.04-6.12,1.49-7.34,1.64l-6.62-13.18,21.95,7.36c-.77.64-2.01,1.54-3.84,2.46l-1.22.62,5.64,4.55c-.14.1-.35.22-.64.34-.31.13-.7.19-1.12.19Z"/>
          <g class="cls-11">
            <path class="cls-35" d="M565.86,598.92l21.95,7.36c-.77.64-2.01,1.54-3.84,2.46l-1.22.62,5.64,4.55c-.14.1-.35.22-.64.34-.31.13-.7.19-1.12.19-.69,0-1.23-.17-1.35-.26l-5.03-3.87-.44.15c-3.18,1.04-6.12,1.49-7.34,1.64l-6.62-13.18h0ZM565.86,598.04c-.25,0-.5.11-.67.3-.23.27-.28.66-.12.98l6.62,13.18c.15.3.46.49.79.49.04,0,.07,0,.11,0,1.16-.14,4.22-.6,7.5-1.67l4.66,3.58c.38.27,1.15.45,1.89.45.54,0,1.04-.09,1.45-.26.32-.13.59-.27.81-.43.23-.16.37-.42.38-.69.01-.28-.11-.54-.33-.72l-4.58-3.69c1.94-.98,3.25-1.94,4-2.58.25-.21.36-.53.3-.84-.06-.31-.28-.57-.59-.67l-21.95-7.36c-.09-.03-.19-.05-.28-.05h0Z"/>
          </g>
          <g class="cls-64">
            <path class="cls-35" d="M565.86,598.92l21.95,7.36c-.77.64-2.01,1.54-3.84,2.46l-1.22.62,5.64,4.55c-.14.1-.35.22-.64.34-.31.13-.7.19-1.12.19-.69,0-1.23-.17-1.35-.26l-5.03-3.87-.44.15c-3.18,1.04-6.12,1.49-7.34,1.64l-6.62-13.18h0ZM565.86,596.27c-.75,0-1.49.32-2,.91-.7.81-.85,1.97-.37,2.93l6.62,13.18c.45.9,1.38,1.46,2.37,1.46.11,0,.22,0,.33-.02,1.11-.14,3.86-.54,6.94-1.47l3.93,3.02s.05.04.08.06c.98.7,2.46.76,2.89.76.77,0,1.49-.13,2.12-.39.44-.18.82-.38,1.15-.61.69-.48,1.11-1.25,1.14-2.08s-.33-1.63-.98-2.16l-2.57-2.07c.87-.56,1.54-1.07,2.01-1.47.74-.62,1.08-1.58.9-2.52-.18-.94-.85-1.72-1.76-2.02l-21.95-7.36c-.28-.09-.56-.14-.84-.14h0Z"/>
          </g>
        </g>
        <g>
          <path class="cls-30" d="M584.18,597.75v15.97c0,1.03,1.19,1.87,2.66,1.87s2.66-.84,2.66-1.87v-15.97h-5.33Z"/>
          <path class="cls-56" d="M600.94,606.18s-5.59,3.8-14.27,3.8c-8.22,0-14.27-3.8-14.27-3.8l14.25-43.3,14.29,43.3Z"/>
        </g>
      </g>
      <g>
        <polygon class="cls-14" points="576.63 631.28 562.69 639.38 547.19 630.43 561.12 622.33 576.63 631.28"/>
        <g class="cls-11">
          <path class="cls-35" d="M560.96,629.53c-.6,0-1.23-.2-1.85-.58l-.04-.03-8.47-3.95-.31.08c-1.37.36-2.98.56-4.66.56-2.76,0-5.28-.54-6.73-1.44-1.95-1.21-3.93-4.35-3.65-6.74.15-1.28.94-2.17,2.37-2.65,1.06-.36,2.21-.54,3.44-.54,4.48,0,8.93,2.35,11.19,3.74,2.43,1.51,3.95,3.07,3.97,4.07,0,.13,0,.54-.72,1.03l-1.16.78,8.49,5.1c-.23.12-.55.27-.98.41-.29.1-.59.15-.89.15Z"/>
          <g class="cls-11">
            <path class="cls-35" d="M541.06,614.24c4.48,0,8.93,2.35,11.19,3.74,2.43,1.51,3.95,3.07,3.97,4.07,0,.13,0,.54-.72,1.03l-1.16.78,8.49,5.1c-.23.12-.55.27-.98.41-.29.1-.59.15-.89.15-.6,0-1.23-.2-1.85-.58l-.04-.03-8.47-3.95-.31.08c-1.37.36-2.98.56-4.66.56-2.76,0-5.28-.54-6.73-1.44-1.95-1.21-3.93-4.35-3.65-6.74.15-1.28.94-2.17,2.37-2.65,1.06-.36,2.21-.54,3.44-.54h0ZM541.06,613.36c-1.32,0-2.57.2-3.72.58-2.21.75-2.83,2.25-2.96,3.39-.32,2.79,1.88,6.24,4.06,7.59,1.59.98,4.28,1.57,7.19,1.57,1.75,0,3.44-.2,4.88-.59l8.13,3.79h0c.76.47,1.54.71,2.31.71.4,0,.79-.07,1.18-.19.43-.15.81-.31,1.12-.47.28-.15.46-.44.46-.76,0-.32-.16-.61-.43-.78l-7.3-4.38h0c.75-.5,1.12-1.1,1.11-1.78-.03-1.83-2.76-3.8-4.39-4.81-2.33-1.45-6.95-3.88-11.65-3.88h0Z"/>
          </g>
          <g class="cls-64">
            <path class="cls-35" d="M541.06,614.24c4.48,0,8.93,2.35,11.19,3.74,2.43,1.51,3.95,3.07,3.97,4.07,0,.13,0,.54-.72,1.03l-1.16.78,8.49,5.1c-.23.12-.55.27-.98.41-.29.1-.59.15-.89.15-.6,0-1.23-.2-1.85-.58l-.04-.03-8.47-3.95-.31.08c-1.37.36-2.98.56-4.66.56-2.76,0-5.28-.54-6.73-1.44-1.95-1.21-3.93-4.35-3.65-6.74.15-1.28.94-2.17,2.37-2.65,1.06-.36,2.21-.54,3.44-.54h0ZM541.06,611.59c-1.51,0-2.96.23-4.29.68-2.41.81-3.89,2.54-4.16,4.86-.42,3.61,2.21,7.64,4.89,9.3,1.88,1.17,4.84,1.84,8.12,1.84,1.65,0,3.26-.17,4.7-.49l7.48,3.49c1.01.61,2.07.92,3.15.92.59,0,1.18-.1,1.74-.29.53-.18.99-.38,1.4-.59.84-.45,1.37-1.32,1.39-2.27s-.47-1.84-1.29-2.33l-5.58-3.35c.17-.42.25-.87.24-1.33-.04-2.04-1.79-4.15-5.22-6.28-2.49-1.55-7.44-4.14-12.58-4.14h0Z"/>
          </g>
        </g>
        <g>
          <path class="cls-30" d="M559.24,613.11v15.97c0,1.03,1.19,1.87,2.66,1.87s2.66-.84,2.66-1.87v-15.97h-5.33Z"/>
          <path class="cls-54" d="M552.59,610c0,6.13,4.17,11.09,9.32,11.09s9.32-4.97,9.32-11.09-4.17-18.19-9.32-18.19-9.32,12.07-9.32,18.19Z"/>
        </g>
      </g>
      <g class="cls-11">
        <path class="cls-35" d="M625.1,328.89c.42.24.42.61-.01.83l-32.46,16.7c-.43.22-1.13.21-1.55-.03l-20.8-11.88c-.42-.24-1.16-.43-1.65-.42l-2.04.05c-.49.01-1.23-.18-1.64-.43l-7.26-4.3c-.42-.25-.41-.63.03-.85l.39-.2c.43-.22.44-.6.02-.84l-7.7-4.36c-.42-.24-1.11-.23-1.53.01l-.73.43c-.42.25-1.07.19-1.45-.11l-9.22-7.53c-.38-.31-.34-.75.09-.98l30.69-16.76c.43-.23,1.12-.23,1.55,0l55.28,30.66Z"/>
        <g class="cls-11">
          <path class="cls-35" d="M569.04,297.8l56.83,31.52-34.03,17.5-22.34-12.75-3.81.09-8.78-5.2,1.96-1-9.24-5.23-2.25,1.32-10.58-8.65,32.24-17.6h0ZM569.04,296.03c-.29,0-.58.07-.85.22l-32.24,17.6c-.52.28-.86.8-.91,1.39-.05.59.19,1.16.64,1.53l10.58,8.65c.32.26.72.4,1.12.4.31,0,.62-.08.89-.24l1.37-.81,5.76,3.26c-.16.26-.25.56-.26.87-.02.64.31,1.25.87,1.58l8.78,5.2c.27.16.58.25.9.25.01,0,.03,0,.04,0l3.32-.08,21.91,12.51c.27.15.57.23.88.23.28,0,.55-.07.81-.2l34.03-17.5c.58-.3.95-.89.96-1.54.01-.65-.34-1.26-.91-1.57l-56.83-31.52c-.27-.15-.56-.22-.86-.22h0Z"/>
        </g>
        <g class="cls-64">
          <path class="cls-35" d="M569.04,297.8l56.83,31.52-34.03,17.5-22.34-12.75-3.81.09-8.78-5.2,1.96-1-9.24-5.23-2.25,1.32-10.58-8.65,32.24-17.6h0ZM569.04,294.27c-.58,0-1.17.14-1.69.43l-32.24,17.6c-1.03.56-1.72,1.6-1.82,2.77-.11,1.17.37,2.32,1.28,3.06l10.58,8.65c.65.53,1.44.8,2.24.8.61,0,1.23-.16,1.79-.48l.5-.29,3.71,2.1c-.02,1.26.64,2.44,1.73,3.09l8.78,5.2c.55.32,1.17.49,1.8.49.03,0,.06,0,.08,0l2.83-.07,21.49,12.26c.54.31,1.15.46,1.75.46.55,0,1.11-.13,1.62-.39l34.03-17.5c1.16-.6,1.9-1.78,1.92-3.09.02-1.3-.68-2.51-1.82-3.15l-56.83-31.52c-.53-.3-1.12-.44-1.71-.44h0Z"/>
        </g>
      </g>
      <g class="cls-11">
        <path class="cls-35" d="M720.47,383.47c.42.24.42.61-.01.83l-32.46,16.7c-.43.22-1.13.21-1.55-.03l-20.8-11.88c-.42-.24-1.16-.43-1.65-.42l-2.04.05c-.49.01-1.23-.18-1.64-.43l-7.26-4.3c-.42-.25-.41-.63.03-.85l.39-.2c.43-.22.44-.6.02-.84l-7.7-4.36c-.42-.24-1.11-.23-1.53.01l-.73.43c-.42.25-1.07.19-1.45-.11l-9.22-7.53c-.38-.31-.34-.75.09-.98l30.69-16.76c.43-.23,1.12-.23,1.55,0l55.28,30.66Z"/>
        <g class="cls-11">
          <path class="cls-35" d="M664.42,352.38l56.83,31.52-34.03,17.5-22.34-12.75-3.81.09-8.78-5.2,1.96-1-9.24-5.23-2.25,1.32-10.58-8.65,32.24-17.6h0ZM664.42,350.62c-.29,0-.58.07-.85.22l-32.24,17.6c-.52.28-.86.8-.91,1.39-.05.59.19,1.16.64,1.53l10.58,8.65c.32.26.72.4,1.12.4.31,0,.62-.08.89-.24l1.38-.81,5.76,3.26c-.16.26-.25.56-.26.87-.02.64.31,1.25.87,1.58l8.78,5.2c.27.16.58.25.9.25.01,0,.03,0,.04,0l3.32-.08,21.91,12.51c.27.15.57.23.88.23.28,0,.55-.07.81-.2l34.03-17.5c.58-.3.95-.89.96-1.54.01-.65-.34-1.26-.91-1.57l-56.83-31.52c-.27-.15-.56-.22-.86-.22h0Z"/>
        </g>
        <g class="cls-64">
          <path class="cls-35" d="M664.42,352.38l56.83,31.52-34.03,17.5-22.34-12.75-3.81.09-8.78-5.2,1.96-1-9.24-5.23-2.25,1.32-10.58-8.65,32.24-17.6h0ZM664.42,348.85c-.58,0-1.17.14-1.69.43l-32.24,17.6c-1.03.56-1.72,1.6-1.82,2.77-.11,1.17.37,2.32,1.28,3.06l10.58,8.65c.65.53,1.44.8,2.24.8.61,0,1.23-.16,1.78-.48l.5-.29,3.71,2.1c-.02,1.26.64,2.44,1.73,3.09l8.78,5.2c.55.32,1.17.49,1.8.49.03,0,.06,0,.08,0l2.83-.07,21.49,12.26c.54.31,1.15.46,1.75.46.55,0,1.11-.13,1.62-.39l34.03-17.5c1.16-.6,1.9-1.78,1.92-3.09.02-1.3-.68-2.51-1.82-3.15l-56.83-31.52c-.53-.3-1.12-.44-1.71-.44h0Z"/>
        </g>
      </g>
      <g class="cls-11">
        <path class="cls-35" d="M810.99,438.03c.42.24.42.61-.01.83l-32.46,16.7c-.43.22-1.13.21-1.55-.03l-20.8-11.88c-.42-.24-1.11-.64-1.53-.88l-9.09-5.23c-.42-.24-1.11-.64-1.53-.88l-7.7-4.36c-.42-.24-1.11-.23-1.53.01l-.73.43c-.42.25-1.07.19-1.45-.11l-9.22-7.53c-.38-.31-.34-.75.09-.98l30.69-16.76c.43-.23,1.12-.23,1.55,0l55.28,30.66Z"/>
        <g class="cls-11">
          <path class="cls-35" d="M754.93,406.94l56.83,31.52-34.03,17.5-22.34-12.75-10.62-6.11-9.24-5.23-2.25,1.32-10.58-8.65,32.24-17.6h0ZM754.93,405.17c-.29,0-.58.07-.85.22l-32.24,17.6c-.52.28-.86.8-.91,1.39-.05.59.19,1.16.64,1.53l10.58,8.65c.32.26.72.4,1.12.4.31,0,.62-.08.89-.24l1.37-.8,8.35,4.73,10.61,6.1,22.34,12.75c.27.15.57.23.88.23.28,0,.55-.07.81-.2l34.03-17.5c.58-.3.95-.89.96-1.54.01-.65-.34-1.26-.91-1.57l-56.83-31.52c-.27-.15-.56-.22-.86-.22h0Z"/>
        </g>
        <g class="cls-64">
          <path class="cls-35" d="M754.93,406.94l56.83,31.52-34.03,17.5-22.34-12.75-10.62-6.11-9.24-5.23-2.25,1.32-10.58-8.65,32.24-17.6h0ZM754.93,403.4c-.58,0-1.17.14-1.69.43l-32.24,17.6c-1.03.56-1.72,1.6-1.82,2.77-.11,1.17.37,2.32,1.28,3.06l10.58,8.65c.65.53,1.44.8,2.24.8.61,0,1.23-.16,1.78-.48l.5-.29,7.47,4.23,10.6,6.1,22.35,12.76c.54.31,1.15.46,1.75.46.55,0,1.11-.13,1.62-.39l34.03-17.5c1.16-.6,1.9-1.78,1.92-3.09.02-1.3-.68-2.51-1.82-3.15l-56.83-31.52c-.53-.3-1.12-.44-1.71-.44h0Z"/>
        </g>
      </g>
      <g class="cls-11">
        <path class="cls-35" d="M452.99,316.97c.42.24.42.64,0,.89l-36.15,21.01c-.42.24-1.11.25-1.53,0l-74.79-43.13c-.42-.24-.42-.64,0-.88l36.39-21c.42-.24,1.11-.24,1.53,0l74.54,43.12Z"/>
        <g class="cls-11">
          <path class="cls-35" d="M377.68,273.41l76.07,44-37.67,21.89-76.32-44.01,37.92-21.88h0ZM377.68,271.65c-.3,0-.61.08-.88.24l-37.92,21.88c-.55.32-.88.9-.88,1.53,0,.63.34,1.21.88,1.53l76.32,44.01c.27.16.58.24.88.24s.61-.08.89-.24l37.67-21.89c.54-.32.88-.9.88-1.53,0-.63-.34-1.21-.88-1.53l-76.07-44c-.27-.16-.58-.24-.88-.24h0Z"/>
        </g>
        <g class="cls-64">
          <path class="cls-35" d="M377.68,273.41l76.07,44-37.67,21.89-76.32-44.01,37.92-21.88h0ZM377.68,269.88c-.61,0-1.22.16-1.77.47l-37.92,21.88c-1.09.63-1.77,1.8-1.77,3.06,0,1.26.67,2.43,1.77,3.06l76.32,44.01c.55.32,1.16.47,1.77.47s1.23-.16,1.78-.48l37.67-21.89c1.09-.63,1.76-1.8,1.76-3.06,0-1.26-.67-2.42-1.76-3.06l-76.07-44c-.55-.32-1.16-.47-1.77-.47h0Z"/>
        </g>
      </g>
      <g class="cls-65">
        <polygon class="cls-38" points="278.98 240.19 278.77 412.05 247.44 430.25 247.65 258.4 278.98 240.19"/>
        <polygon class="cls-39" points="258.21 264.41 258.19 288.01 253.89 290.51 253.92 266.91 258.21 264.41"/>
        <polygon class="cls-39" points="266.3 259.87 266.27 283.46 261.97 285.96 262 262.37 266.3 259.87"/>
        <polygon class="cls-39" points="274.05 255.81 274.02 279.4 269.72 281.9 269.75 258.31 274.05 255.81"/>
        <polygon class="cls-39" points="258.21 294.56 258.19 318.16 253.89 320.66 253.92 297.06 258.21 294.56"/>
        <polygon class="cls-39" points="266.3 290.02 266.27 313.61 261.97 316.11 262 292.52 266.3 290.02"/>
        <polygon class="cls-39" points="274.05 285.96 274.02 309.55 269.72 312.05 269.75 288.46 274.05 285.96"/>
        <polygon class="cls-39" points="258.21 324.65 258.19 348.25 253.89 350.75 253.92 327.15 258.21 324.65"/>
        <polygon class="cls-39" points="266.3 320.11 266.27 343.7 261.97 346.2 262 322.61 266.3 320.11"/>
        <polygon class="cls-39" points="274.05 316.05 274.02 339.65 269.72 342.14 269.75 318.55 274.05 316.05"/>
        <polygon class="cls-39" points="258.21 354.81 258.19 378.4 253.89 380.9 253.92 357.31 258.21 354.81"/>
        <polygon class="cls-39" points="266.3 350.26 266.27 373.86 261.97 376.35 262 352.76 266.3 350.26"/>
        <polygon class="cls-39" points="274.05 346.2 274.02 369.8 269.72 372.3 269.75 348.7 274.05 346.2"/>
        <polygon class="cls-39" points="258.21 384.96 258.19 408.55 253.89 411.05 253.92 387.46 258.21 384.96"/>
        <polygon class="cls-39" points="266.3 380.41 266.27 404.01 261.97 406.51 262 382.91 266.3 380.41"/>
        <polygon class="cls-39" points="274.05 376.35 274.02 399.95 269.72 402.45 269.75 378.85 274.05 376.35"/>
        <polygon class="cls-44" points="247.65 258.4 247.44 430.25 204.07 405.21 204.28 201.11 247.65 258.4"/>
        <polygon class="cls-32" points="278.98 240.19 247.65 258.4 204.28 201.11 235.61 182.91 278.98 240.19"/>
        <g>
          <polygon class="cls-57" points="239.23 264.41 239.26 288.01 243.56 290.51 243.53 266.91 239.23 264.41"/>
          <polygon class="cls-57" points="231.15 259.87 231.18 283.46 235.48 285.96 235.45 262.37 231.15 259.87"/>
          <polygon class="cls-57" points="239.23 253.74 239.26 257.37 243.56 259.87 239.23 253.74"/>
          <polygon class="cls-57" points="231.15 243.13 231.18 252.82 235.48 255.32 235.45 249.23 231.15 243.13"/>
          <polygon class="cls-57" points="223.4 255.81 223.43 279.4 227.73 281.9 227.7 258.31 223.4 255.81"/>
          <polygon class="cls-57" points="239.23 294.56 239.26 318.16 243.56 320.66 243.53 297.06 239.23 294.56"/>
          <polygon class="cls-57" points="231.15 290.02 231.18 313.61 235.48 316.11 235.45 292.52 231.15 290.02"/>
          <polygon class="cls-57" points="223.4 285.96 223.43 309.55 227.73 312.05 227.7 288.46 223.4 285.96"/>
          <polygon class="cls-57" points="239.23 324.65 239.26 348.25 243.56 350.75 243.53 327.15 239.23 324.65"/>
          <polygon class="cls-57" points="231.15 320.11 231.18 343.7 235.48 346.2 235.45 322.61 231.15 320.11"/>
          <polygon class="cls-57" points="223.4 316.05 223.43 339.65 227.73 342.14 227.7 318.55 223.4 316.05"/>
          <polygon class="cls-57" points="239.23 354.81 239.26 378.4 243.56 380.9 243.53 357.31 239.23 354.81"/>
          <polygon class="cls-57" points="231.15 350.26 231.18 373.86 235.48 376.35 235.45 352.76 231.15 350.26"/>
          <polygon class="cls-57" points="223.4 346.2 223.43 369.8 227.73 372.3 227.7 348.7 223.4 346.2"/>
          <polygon class="cls-57" points="239.23 384.96 239.26 408.55 243.56 411.05 243.53 387.46 239.23 384.96"/>
          <polygon class="cls-57" points="231.15 380.41 231.18 404.01 235.48 406.51 235.45 382.91 231.15 380.41"/>
          <polygon class="cls-57" points="223.4 376.35 223.43 399.95 227.73 402.45 227.7 378.85 223.4 376.35"/>
          <polygon class="cls-57" points="215.91 251.77 215.94 275.37 220.24 277.87 220.21 254.27 215.91 251.77"/>
          <polygon class="cls-57" points="208.16 247.71 208.19 271.31 212.49 273.81 212.46 250.21 208.16 247.71"/>
          <polygon class="cls-57" points="223.4 235.07 223.43 248.73 227.73 251.23 227.7 241.01 223.4 235.07"/>
          <polygon class="cls-57" points="215.91 226.3 215.94 244.69 220.24 247.19 220.21 232.12 215.91 226.3"/>
          <polygon class="cls-57" points="208.16 217.04 208.19 240.63 212.49 243.13 212.46 223.71 208.16 217.04"/>
          <polygon class="cls-57" points="215.91 281.92 215.94 305.52 220.24 308.02 220.21 284.42 215.91 281.92"/>
          <polygon class="cls-57" points="208.16 277.87 208.19 301.46 212.49 303.96 212.46 280.36 208.16 277.87"/>
          <polygon class="cls-57" points="215.91 312.02 215.94 335.61 220.24 338.11 220.21 314.51 215.91 312.02"/>
          <polygon class="cls-57" points="208.16 307.96 208.19 331.55 212.49 334.05 212.46 310.46 208.16 307.96"/>
          <polygon class="cls-57" points="215.91 342.17 215.94 365.76 220.24 368.26 220.21 344.67 215.91 342.17"/>
          <polygon class="cls-57" points="208.16 338.11 208.19 361.7 212.49 364.2 212.46 340.61 208.16 338.11"/>
          <polygon class="cls-57" points="215.91 372.32 215.94 395.91 220.24 398.41 220.21 374.82 215.91 372.32"/>
          <polygon class="cls-57" points="208.16 368.26 208.19 391.85 212.49 394.35 212.46 370.76 208.16 368.26"/>
        </g>
      </g>
      <g>
        <polygon class="cls-36" points="250.03 478.74 236.09 486.84 220.58 477.89 234.52 469.79 250.03 478.74"/>
        <g class="cls-11">
          <path class="cls-35" d="M234.36,476.99c-.61,0-1.23-.2-1.85-.58l-.04-.03-8.47-3.95-.31.08c-1.37.36-2.98.56-4.66.56-2.76,0-5.28-.54-6.73-1.44-1.95-1.21-3.93-4.35-3.65-6.74.15-1.28.94-2.17,2.37-2.65,1.06-.36,2.21-.54,3.44-.54,4.48,0,8.93,2.35,11.18,3.74,2.43,1.51,3.95,3.07,3.97,4.07,0,.13,0,.54-.72,1.03l-1.16.77,8.49,5.1c-.23.12-.55.27-.98.41-.29.1-.59.15-.89.15h0Z"/>
          <g class="cls-11">
            <path class="cls-35" d="M214.46,461.7c4.48,0,8.93,2.35,11.18,3.74,2.43,1.51,3.95,3.07,3.97,4.07,0,.13,0,.54-.72,1.03l-1.16.77,8.49,5.1c-.23.12-.55.27-.98.41-.29.1-.59.15-.89.15-.61,0-1.23-.2-1.85-.58l-.04-.03-8.47-3.95-.31.08c-1.37.36-2.98.56-4.66.56-2.76,0-5.28-.54-6.73-1.44-1.95-1.21-3.93-4.35-3.65-6.74.15-1.28.94-2.17,2.37-2.65,1.06-.36,2.21-.54,3.44-.54h0ZM214.46,460.82c-1.32,0-2.57.2-3.72.58-2.21.75-2.83,2.25-2.96,3.39-.32,2.79,1.88,6.24,4.06,7.59,1.59.98,4.28,1.57,7.19,1.57,1.75,0,3.44-.2,4.88-.59h0s8.13,3.79,8.13,3.79h0c.76.47,1.54.71,2.31.71.4,0,.79-.07,1.18-.19.42-.14.8-.3,1.12-.47.28-.15.46-.44.47-.76,0-.32-.16-.62-.43-.78l-7.3-4.38c.75-.5,1.12-1.1,1.11-1.78-.03-1.84-2.76-3.8-4.39-4.81-2.33-1.45-6.95-3.88-11.65-3.88h0Z"/>
          </g>
          <g class="cls-64">
            <path class="cls-8" d="M214.46,461.7c4.48,0,8.93,2.35,11.18,3.74,2.43,1.51,3.95,3.07,3.97,4.07,0,.13,0,.54-.72,1.03l-1.16.77,8.49,5.1c-.23.12-.55.27-.98.41-.29.1-.59.15-.89.15-.61,0-1.23-.2-1.85-.58l-.04-.03-8.47-3.95-.31.08c-1.37.36-2.98.56-4.66.56-2.76,0-5.28-.54-6.73-1.44-1.95-1.21-3.93-4.35-3.65-6.74.15-1.28.94-2.17,2.37-2.65,1.06-.36,2.21-.54,3.44-.54h0ZM214.46,459.05c-1.51,0-2.96.23-4.29.68-2.41.81-3.89,2.54-4.16,4.86-.42,3.61,2.21,7.64,4.89,9.3,1.88,1.17,4.84,1.84,8.12,1.84,1.65,0,3.26-.17,4.7-.49l7.48,3.49c1.02.61,2.08.92,3.15.92.59,0,1.18-.1,1.74-.29.51-.17.98-.37,1.39-.59.84-.45,1.37-1.32,1.4-2.27.02-.95-.47-1.85-1.29-2.34l-5.58-3.35c.17-.42.25-.87.24-1.33-.04-2.04-1.79-4.15-5.22-6.28-2.49-1.55-7.44-4.14-12.58-4.14h0Z"/>
          </g>
        </g>
        <g>
          <path class="cls-28" d="M232.64,460.57v15.97c0,1.03,1.19,1.87,2.66,1.87s2.66-.84,2.66-1.87v-15.97h-5.33Z"/>
          <path class="cls-61" d="M225.99,457.46c0,6.13,4.17,11.09,9.32,11.09s9.32-4.97,9.32-11.09-4.17-18.2-9.32-18.2-9.32,12.07-9.32,18.2Z"/>
        </g>
      </g>
      <g>
        <g class="cls-65">
          <polygon class="cls-44" points="453.91 225.34 453.75 317.41 416.08 339.3 416.24 247.24 453.91 225.34"/>
          <g>
            <polygon class="cls-57" points="449.48 236.21 449.36 240.96 421.33 257.25 421.45 252.5 449.48 236.21"/>
            <polygon class="cls-57" points="449.48 250.32 449.36 255.06 421.33 271.35 421.45 266.61 449.48 250.32"/>
            <polygon class="cls-57" points="449.48 264.19 449.36 268.94 421.33 285.23 421.45 280.48 449.48 264.19"/>
            <polygon class="cls-57" points="449.48 278.3 449.36 283.05 421.33 299.33 421.45 294.59 449.48 278.3"/>
            <polygon class="cls-57" points="449.48 292.03 449.36 296.78 421.33 313.07 421.45 308.32 449.48 292.03"/>
            <polygon class="cls-57" points="449.48 306.14 449.36 310.89 421.33 327.17 421.45 322.43 449.48 306.14"/>
          </g>
          <polygon class="cls-40" points="416.24 247.24 416.08 339.3 369.4 312.35 369.55 220.29 416.24 247.24"/>
          <polygon class="cls-32" points="453.91 225.34 416.24 247.24 369.55 220.29 407.23 198.39 453.91 225.34"/>
          <g>
            <polygon class="cls-39" points="373.89 231.46 374 236.21 410.97 257.25 410.86 252.5 373.89 231.46"/>
            <polygon class="cls-39" points="373.89 245.57 374 250.32 410.97 271.36 410.86 266.61 373.89 245.57"/>
            <polygon class="cls-39" points="373.89 259.45 374 264.19 410.97 285.23 410.86 280.48 373.89 259.45"/>
            <polygon class="cls-39" points="373.89 273.55 374 278.3 410.97 299.34 410.86 294.59 373.89 273.55"/>
            <polygon class="cls-39" points="373.89 287.28 374 292.03 410.97 313.07 410.86 308.32 373.89 287.28"/>
            <polygon class="cls-39" points="373.89 301.39 374 306.14 410.97 327.18 410.86 322.43 373.89 301.39"/>
          </g>
        </g>
        <g class="cls-65">
          <polygon class="cls-41" points="430.46 226.78 434.92 223.74 407.74 208.05 407.84 213.63 430.46 226.78"/>
          <polygon class="cls-48" points="407.84 213.63 407.74 208.05 388.55 220.29 393.29 223 407.84 213.63"/>
          <polygon class="cls-63" points="430.46 226.78 407.84 213.63 393.29 223 415.55 235.19 430.46 226.78"/>
        </g>
      </g>
      <polygon class="cls-14" points="374.7 331.88 360.77 339.98 345.26 331.03 359.2 322.93 374.7 331.88"/>
      <g>
        <g class="cls-16">
          <polygon class="cls-30" points="327.08 361.04 313.14 369.14 297.63 360.19 311.57 352.09 327.08 361.04"/>
        </g>
        <g class="cls-11">
          <path class="cls-30" d="M312.16,359.56c-.69,0-1.23-.17-1.35-.26l-5.03-3.87-.44.15c-3.18,1.04-6.12,1.49-7.34,1.64l-6.62-13.18,21.95,7.36c-.76.64-2.01,1.54-3.84,2.46l-1.22.62,5.64,4.55c-.14.1-.35.22-.64.34-.31.13-.7.19-1.12.19h0Z"/>
          <g class="cls-11">
            <path class="cls-30" d="M291.38,344.04l21.95,7.36c-.76.64-2.01,1.54-3.84,2.46l-1.22.62,5.64,4.55c-.14.1-.35.22-.64.34-.31.13-.7.19-1.12.19-.69,0-1.23-.17-1.35-.26l-5.03-3.87-.44.15c-3.18,1.04-6.12,1.49-7.34,1.64l-6.62-13.18h0ZM291.38,343.15c-.25,0-.5.11-.67.3-.23.27-.28.66-.12.98l6.62,13.18c.15.3.46.49.79.49.04,0,.07,0,.11,0,1.16-.14,4.22-.6,7.5-1.67l4.66,3.58c.38.27,1.14.45,1.89.45.54,0,1.04-.09,1.46-.26.31-.13.59-.27.81-.43.23-.16.37-.42.38-.69.01-.28-.11-.54-.33-.72l-4.58-3.69c1.94-.98,3.25-1.94,4-2.58.25-.21.36-.53.3-.84-.06-.31-.28-.57-.59-.67l-21.95-7.36c-.09-.03-.19-.05-.28-.05h0Z"/>
          </g>
          <g class="cls-64">
            <path class="cls-30" d="M291.38,344.04l21.95,7.36c-.76.64-2.01,1.54-3.84,2.46l-1.22.62,5.64,4.55c-.14.1-.35.22-.64.34-.31.13-.7.19-1.12.19-.69,0-1.23-.17-1.35-.26l-5.03-3.87-.44.15c-3.18,1.04-6.12,1.49-7.34,1.64l-6.62-13.18h0ZM291.38,341.39c-.75,0-1.49.32-2,.91-.7.81-.85,1.97-.37,2.93l6.62,13.18c.45.9,1.38,1.46,2.37,1.46.11,0,.22,0,.33-.02,1.11-.14,3.86-.54,6.94-1.47l3.93,3.02s.05.04.07.05c.98.7,2.46.76,2.89.76.78,0,1.49-.13,2.12-.39.43-.18.82-.38,1.15-.61.69-.48,1.11-1.25,1.14-2.08.03-.83-.33-1.63-.98-2.16l-2.57-2.07c.88-.56,1.54-1.07,2.02-1.47.74-.62,1.08-1.58.9-2.52-.18-.94-.85-1.72-1.76-2.02l-21.95-7.36c-.28-.09-.56-.14-.84-.14h0Z"/>
          </g>
        </g>
        <g>
          <path class="cls-30" d="M309.69,342.86v15.97c0,1.03,1.19,1.87,2.66,1.87s2.66-.84,2.66-1.87v-15.97h-5.33Z"/>
          <path class="cls-56" d="M323.02,349.2s-4.25,2.89-10.84,2.89c-6.24,0-10.84-2.89-10.84-2.89l10.83-32.9,10.86,32.9Z"/>
        </g>
      </g>
      <g>
        <polygon class="cls-15" points="406.5 347.08 392.56 355.18 377.06 346.23 390.99 338.13 406.5 347.08"/>
        <g class="cls-11">
          <path class="cls-30" d="M391.58,345.6c-.69,0-1.23-.17-1.35-.26l-5.03-3.87-.44.15c-3.18,1.04-6.12,1.49-7.34,1.64l-6.62-13.18,21.95,7.36c-.76.64-2.01,1.54-3.84,2.46l-1.22.62,5.64,4.55c-.14.1-.35.22-.64.34-.31.13-.7.19-1.12.19Z"/>
          <g class="cls-11">
            <path class="cls-30" d="M370.8,330.07l21.95,7.36c-.76.64-2.01,1.54-3.84,2.46l-1.22.62,5.64,4.55c-.14.1-.35.22-.64.34-.31.13-.7.19-1.12.19-.69,0-1.23-.17-1.35-.26l-5.03-3.87-.44.15c-3.18,1.04-6.12,1.48-7.34,1.64l-6.62-13.18h0ZM370.8,329.19c-.25,0-.5.11-.67.3-.23.27-.28.66-.12.98l6.62,13.18c.15.3.46.49.79.49.04,0,.07,0,.11,0,1.16-.15,4.23-.6,7.5-1.67l4.66,3.58c.37.27,1.14.45,1.89.45.54,0,1.04-.09,1.46-.26.31-.13.59-.27.81-.43.23-.16.37-.42.38-.69.01-.28-.11-.54-.33-.72l-4.58-3.69c1.94-.98,3.25-1.94,4-2.58.25-.21.36-.53.3-.84-.06-.31-.28-.57-.59-.67l-21.95-7.36c-.09-.03-.19-.05-.28-.05h0Z"/>
          </g>
          <g class="cls-64">
            <path class="cls-30" d="M370.8,330.07l21.95,7.36c-.76.64-2.01,1.54-3.84,2.46l-1.22.62,5.64,4.55c-.14.1-.35.22-.64.34-.31.13-.7.19-1.12.19-.69,0-1.23-.17-1.35-.26l-5.03-3.87-.44.15c-3.18,1.04-6.12,1.48-7.34,1.64l-6.62-13.18h0ZM370.8,327.42c-.75,0-1.49.32-2,.91-.7.81-.85,1.97-.37,2.93l6.62,13.18c.45.9,1.38,1.46,2.37,1.46.11,0,.22,0,.33-.02,1.37-.17,3.99-.58,6.94-1.47l3.93,3.02s.05.03.07.05c.98.71,2.47.76,2.9.76.78,0,1.49-.13,2.12-.39.43-.18.82-.38,1.15-.61.69-.48,1.11-1.25,1.14-2.08.03-.83-.33-1.63-.98-2.16l-2.57-2.07c.88-.56,1.54-1.07,2.02-1.47.74-.62,1.08-1.58.9-2.52s-.85-1.72-1.76-2.02l-21.95-7.36c-.28-.09-.56-.14-.84-.14h0Z"/>
          </g>
        </g>
        <g>
          <path class="cls-30" d="M389.11,328.9v15.97c0,1.03,1.19,1.87,2.66,1.87s2.66-.84,2.66-1.87v-15.97h-5.33Z"/>
          <path class="cls-56" d="M402.44,335.23s-4.25,2.89-10.84,2.89c-6.24,0-10.84-2.89-10.84-2.89l10.83-32.9,10.86,32.9Z"/>
        </g>
      </g>
      <g>
        <g class="cls-16">
          <polygon class="cls-30" points="358.02 376.33 344.08 384.43 328.57 375.48 342.51 367.38 358.02 376.33"/>
        </g>
        <g class="cls-11">
          <path class="cls-30" d="M342.35,374.58c-.61,0-1.23-.2-1.85-.58l-.04-.03-8.47-3.95-.31.08c-1.37.36-2.98.56-4.66.56-2.76,0-5.28-.54-6.73-1.44-1.95-1.21-3.93-4.35-3.65-6.74.15-1.28.95-2.17,2.37-2.65,1.06-.36,2.21-.54,3.44-.54,4.48,0,8.93,2.35,11.18,3.74,2.43,1.51,3.95,3.07,3.97,4.07,0,.13,0,.54-.72,1.03l-1.16.77,8.49,5.1c-.23.12-.55.27-.99.41-.29.1-.59.15-.89.15h0Z"/>
          <g class="cls-11">
            <path class="cls-30" d="M322.45,359.29c4.48,0,8.93,2.35,11.18,3.74,2.43,1.51,3.95,3.07,3.97,4.07,0,.14,0,.54-.72,1.03l-1.16.77,8.49,5.1c-.23.12-.55.27-.99.41-.29.1-.59.15-.89.15-.61,0-1.23-.2-1.85-.58l-.04-.03-8.47-3.95-.31.08c-1.37.36-2.98.56-4.66.56-2.76,0-5.28-.54-6.73-1.44-1.95-1.21-3.93-4.35-3.65-6.74.15-1.28.95-2.17,2.37-2.65,1.06-.36,2.21-.54,3.44-.54h0ZM322.45,358.41c-1.32,0-2.57.2-3.72.58-2.21.75-2.83,2.25-2.96,3.39-.32,2.79,1.88,6.24,4.06,7.59,1.59.98,4.27,1.57,7.19,1.57,1.75,0,3.44-.2,4.88-.59h0l8.13,3.79c.77.47,1.54.71,2.32.71.4,0,.8-.07,1.18-.19.43-.14.8-.3,1.12-.47.28-.15.46-.44.47-.76,0-.32-.16-.62-.43-.78l-7.3-4.38c.75-.5,1.12-1.1,1.11-1.78-.03-1.83-2.76-3.8-4.39-4.81-2.33-1.45-6.95-3.88-11.65-3.88h0Z"/>
          </g>
          <g class="cls-64">
            <path class="cls-30" d="M322.45,359.29c4.48,0,8.93,2.35,11.18,3.74,2.43,1.51,3.95,3.07,3.97,4.07,0,.14,0,.54-.72,1.03l-1.16.77,8.49,5.1c-.23.12-.55.27-.99.41-.29.1-.59.15-.89.15-.61,0-1.23-.2-1.85-.58l-.04-.03-8.47-3.95-.31.08c-1.37.36-2.98.56-4.66.56-2.76,0-5.28-.54-6.73-1.44-1.95-1.21-3.93-4.35-3.65-6.74.15-1.28.95-2.17,2.37-2.65,1.06-.36,2.21-.54,3.44-.54h0ZM322.45,356.64c-1.51,0-2.96.23-4.29.68-2.41.81-3.89,2.54-4.16,4.86-.42,3.61,2.21,7.64,4.89,9.3,1.88,1.17,4.84,1.84,8.12,1.84,1.65,0,3.26-.17,4.7-.49l7.48,3.49c1.02.61,2.08.92,3.15.92.59,0,1.18-.1,1.74-.29.52-.17.99-.37,1.39-.59.84-.45,1.37-1.32,1.4-2.27.02-.95-.47-1.85-1.29-2.34l-5.58-3.35c.17-.42.25-.87.24-1.34-.04-2.03-1.79-4.14-5.22-6.27-2.49-1.55-7.44-4.14-12.58-4.14h0Z"/>
          </g>
        </g>
        <g>
          <path class="cls-30" d="M340.63,358.16v15.97c0,1.03,1.19,1.87,2.66,1.87s2.66-.84,2.66-1.87v-15.97h-5.33Z"/>
          <path class="cls-61" d="M333.98,355.05c0,6.13,4.17,11.09,9.32,11.09s9.32-4.97,9.32-11.09-4.17-18.19-9.32-18.19-9.32,12.07-9.32,18.19Z"/>
        </g>
      </g>
      <g>
        <g class="cls-65">
          <polygon class="cls-39" points="626 283.3 625.87 329.32 591.72 346.92 591.85 300.9 626 283.3"/>
          <polygon class="cls-39" points="591.85 300.9 591.72 346.92 558.88 327.96 559.01 281.94 591.85 300.9"/>
          <polygon class="cls-33" points="579.31 310.98 579.23 341.9 565.69 334.16 565.78 303.24 579.31 310.98"/>
          <polygon class="cls-27" points="581.47 309.84 579.23 310.73 579.23 341.9 581.47 341 581.47 309.84"/>
          <polygon class="cls-27" points="581.47 309.84 579.23 310.93 565.78 303.24 568.49 302.27 581.47 309.84"/>
          <g>
            <g>
              <polygon class="cls-48" points="607.77 302.81 615.23 298.93 615.2 309.68 607.74 313.56 607.77 302.81"/>
              <path class="cls-27" d="M614.34,300.39l-.03,8.76-5.69,2.96.02-8.76,5.69-2.96h0ZM616.12,297.47l-9.23,4.8-.04,12.74,9.22-4.8.04-12.75h0Z"/>
            </g>
            <g>
              <polygon class="cls-48" points="607.77 319.1 615.23 315.22 615.2 325.97 607.74 329.85 607.77 319.1"/>
              <path class="cls-27" d="M614.34,316.67l-.03,8.76-5.69,2.96.02-8.76,5.69-2.96h0ZM616.12,313.76l-9.23,4.8-.04,12.75,9.22-4.8.04-12.74h0Z"/>
            </g>
          </g>
          <polygon class="cls-25" points="613.93 296.84 616.12 297.47 606.89 302.27 604.7 301.64 613.93 296.84"/>
          <polygon class="cls-33" points="604.67 314.39 606.85 315.02 606.89 302.27 604.7 301.64 604.67 314.39"/>
          <polygon class="cls-25" points="613.93 313.13 616.12 313.76 606.89 318.56 604.7 317.93 613.93 313.13"/>
          <polygon class="cls-33" points="604.67 330.68 606.85 331.31 606.89 318.56 604.7 317.93 604.67 330.68"/>
        </g>
        <g class="cls-65">
          <polygon class="cls-33" points="612.89 277.98 589.22 303.12 552.92 282.43 556.39 269.15 612.89 277.98"/>
          <g>
            <polygon class="cls-32" points="560.15 269.28 594.3 252.69 623.45 269.52 589.3 286.11 560.15 269.28"/>
            <path class="cls-26" d="M594.23,254.69l25.45,14.7-30.31,14.73-25.45-14.7,30.31-14.73h0ZM594.37,250.69l-37.98,18.45,32.84,18.96,37.98-18.46-32.84-18.96h0Z"/>
          </g>
          <polygon class="cls-27" points="627.22 269.65 630.41 283.4 589.22 303.12 589.23 288.11 627.22 269.65"/>
        </g>
      </g>
      <g class="cls-65">
        <polygon class="cls-39" points="721.41 337.95 721.28 383.97 687.13 401.57 687.26 355.56 721.41 337.95"/>
        <polygon class="cls-39" points="687.26 355.56 687.13 401.57 654.29 382.61 654.42 336.59 687.26 355.56"/>
        <polygon class="cls-33" points="674.72 365.63 674.64 396.55 661.1 388.81 661.19 357.9 674.72 365.63"/>
        <polygon class="cls-27" points="676.88 364.49 674.64 365.38 674.64 396.55 676.88 395.66 676.88 364.49"/>
        <polygon class="cls-27" points="676.88 364.49 674.64 365.58 661.19 357.9 663.9 356.93 676.88 364.49"/>
        <g>
          <g>
            <polygon class="cls-48" points="703.18 357.46 710.63 353.58 710.6 364.33 703.15 368.21 703.18 357.46"/>
            <path class="cls-27" d="M709.75,355.04l-.03,8.76-5.69,2.96.02-8.76,5.69-2.96h0ZM711.52,352.12l-9.23,4.8-.04,12.75,9.22-4.8.04-12.75h0Z"/>
          </g>
          <g>
            <polygon class="cls-48" points="703.18 373.75 710.63 369.87 710.6 380.62 703.15 384.5 703.18 373.75"/>
            <path class="cls-27" d="M709.75,371.32l-.03,8.76-5.69,2.96.02-8.76,5.69-2.96h0ZM711.52,368.41l-9.23,4.8-.04,12.75,9.22-4.8.04-12.75h0Z"/>
          </g>
        </g>
        <polygon class="cls-25" points="709.34 351.49 711.52 352.12 702.3 356.92 700.11 356.29 709.34 351.49"/>
        <polygon class="cls-33" points="700.08 369.04 702.26 369.67 702.3 356.92 700.11 356.29 700.08 369.04"/>
        <polygon class="cls-25" points="709.34 367.78 711.52 368.41 702.3 373.21 700.11 372.58 709.34 367.78"/>
        <polygon class="cls-33" points="700.08 385.33 702.26 385.96 702.3 373.21 700.11 372.58 700.08 385.33"/>
      </g>
      <g class="cls-65">
        <polygon class="cls-33" points="708.3 332.63 684.63 357.77 648.33 337.08 651.8 323.8 708.3 332.63"/>
        <g>
          <polygon class="cls-32" points="655.56 323.93 689.71 307.34 718.86 324.17 684.71 340.76 655.56 323.93"/>
          <path class="cls-26" d="M689.64,309.34l25.45,14.7-30.31,14.73-25.45-14.7,30.31-14.73h0ZM689.78,305.34l-37.98,18.45,32.84,18.96,37.98-18.46-32.84-18.96h0Z"/>
        </g>
        <polygon class="cls-27" points="722.62 324.3 725.82 338.05 684.63 357.77 684.64 342.76 722.62 324.3"/>
      </g>
      <g class="cls-65">
        <polygon class="cls-39" points="811.9 392.41 811.77 438.43 777.62 456.04 777.75 410.02 811.9 392.41"/>
        <polygon class="cls-39" points="777.75 410.02 777.62 456.04 744.78 437.08 744.91 391.06 777.75 410.02"/>
        <polygon class="cls-33" points="765.22 420.1 765.13 451.01 751.59 443.27 751.68 412.36 765.22 420.1"/>
        <polygon class="cls-27" points="767.37 418.95 765.13 419.84 765.13 451.01 767.37 450.12 767.37 418.95"/>
        <polygon class="cls-27" points="767.37 418.95 765.13 420.05 751.68 412.36 754.39 411.39 767.37 418.95"/>
        <g>
          <g>
            <polygon class="cls-48" points="793.67 411.93 801.13 408.04 801.1 418.79 793.64 422.68 793.67 411.93"/>
            <path class="cls-27" d="M800.24,409.5l-.03,8.76-5.68,2.96.02-8.76,5.69-2.96h0ZM802.02,406.59l-9.23,4.8-.03,12.74,9.22-4.8.04-12.75h0Z"/>
          </g>
          <g>
            <polygon class="cls-48" points="793.67 428.21 801.13 424.33 801.1 435.08 793.64 438.96 793.67 428.21"/>
            <path class="cls-27" d="M800.24,425.79l-.03,8.76-5.68,2.96.02-8.76,5.69-2.96h0ZM802.02,422.87l-9.23,4.8-.03,12.75,9.22-4.8.04-12.75h0Z"/>
          </g>
        </g>
        <polygon class="cls-25" points="799.83 405.95 802.02 406.59 792.79 411.39 790.61 410.76 799.83 405.95"/>
        <polygon class="cls-33" points="790.57 423.5 792.76 424.13 792.79 411.39 790.61 410.76 790.57 423.5"/>
        <polygon class="cls-25" points="799.83 422.24 802.02 422.87 792.79 427.68 790.61 427.05 799.83 422.24"/>
        <polygon class="cls-33" points="790.57 439.79 792.76 440.42 792.79 427.68 790.61 427.05 790.57 439.79"/>
      </g>
      <g class="cls-11">
        <path class="cls-35" d="M525.49,542.53c.42.24.43.65.01.9l-49.63,30.44c-.41.25-1.09.26-1.51,0l-26.19-15.75c-.42-.25-1.09-.24-1.5.02l-12.17,7.68c-.41.26-1.09.27-1.51.03l-14.39-8.27c-.42-.24-.42-.64,0-.89l.64-.38c.42-.25.37-.51-.11-.58l-4.18-.62c-.48-.07-1.22-.33-1.64-.57l-7.98-4.62c-.42-.24-.43-.66-.03-.93l11.25-7.52c.4-.27.39-.69-.03-.93l-25.19-14.52c-.42-.24-.42-.64,0-.87l51.91-29.11c.42-.24,1.12-.23,1.54,0l80.73,46.47Z"/>
        <g class="cls-11">
          <path class="cls-35" d="M443.99,495.63l82.26,47.35-51.14,31.37-27.7-16.66-13.67,8.62-15.93-9.15,2.16-1.28-5.93-.88-9.51-5.51,12.72-8.5-26.73-15.4,53.45-29.97h0ZM443.99,493.86c-.3,0-.6.08-.86.23l-53.45,29.97c-.55.31-.9.9-.9,1.53,0,.64.33,1.22.88,1.54l24.26,13.98-10.35,6.92c-.51.34-.8.92-.78,1.53.02.61.35,1.17.88,1.47l9.51,5.51c.19.11.41.19.63.22l2.26.33s0,.05,0,.08c0,.63.34,1.21.89,1.52l15.93,9.15c.27.16.58.24.88.24.33,0,.66-.09.94-.27l12.75-8.04,26.77,16.1c.28.17.6.25.91.25s.64-.09.92-.26l51.14-31.37c.53-.33.85-.91.84-1.53,0-.62-.35-1.2-.89-1.51l-82.26-47.35c-.27-.16-.58-.24-.88-.24h0Z"/>
        </g>
        <g class="cls-64">
          <path class="cls-35" d="M443.99,495.63l82.26,47.35-51.14,31.37-27.7-16.66-13.67,8.62-15.93-9.15,2.16-1.28-5.93-.88-9.51-5.51,12.72-8.5-26.73-15.4,53.45-29.97h0ZM443.99,492.09c-.6,0-1.19.15-1.73.45l-53.45,29.97c-1.11.62-1.8,1.79-1.81,3.06,0,1.27.67,2.45,1.77,3.08l21.8,12.56-7.99,5.34c-1.01.68-1.61,1.83-1.57,3.05.04,1.22.7,2.33,1.76,2.94l9.51,5.51c.39.22.81.37,1.25.44l1.09.16c.3.64.8,1.19,1.44,1.56l15.93,9.15c.55.31,1.15.47,1.76.47.66,0,1.31-.18,1.89-.54l11.83-7.46,25.83,15.53c.56.34,1.19.51,1.82.51s1.28-.17,1.85-.52l51.14-31.37c1.06-.65,1.7-1.81,1.69-3.06-.02-1.25-.69-2.39-1.77-3.01l-82.26-47.35c-.55-.31-1.15-.47-1.76-.47h0Z"/>
        </g>
      </g>
      <polygon class="cls-39" points="528.95 484.83 528.95 543.02 475.03 574.34 475.03 516.15 528.95 484.83"/>
      <polygon class="cls-32" points="490.97 515.49 490.97 543 480.65 548.99 480.65 521.48 490.97 515.49"/>
      <polygon class="cls-32" points="507.14 505.92 507.14 533.43 496.83 539.42 496.83 511.91 507.14 505.92"/>
      <polygon class="cls-32" points="523.57 496.81 523.57 524.32 513.26 530.32 513.26 502.8 523.57 496.81"/>
      <polygon class="cls-32" points="490.97 547.47 490.97 558.4 480.65 564.39 480.65 553.47 490.97 547.47"/>
      <polygon class="cls-32" points="507.14 537.91 507.14 548.83 496.83 554.82 496.83 543.9 507.14 537.91"/>
      <polygon class="cls-32" points="523.57 528.8 523.57 539.72 513.26 545.71 513.26 534.79 523.57 528.8"/>
      <polygon class="cls-47" points="475.03 516.15 475.03 574.34 408.25 535.78 408.25 477.59 475.03 516.15"/>
      <g>
        <polygon class="cls-39" points="410.02 477.59 462.23 447.29 527.18 484.83 475.03 515.13 410.02 477.59"/>
        <path class="cls-49" d="M462.23,448.31l63.19,36.52-50.4,29.28-63.25-36.52,50.45-29.28h0ZM462.23,446.26l-53.98,31.33,66.78,38.56,53.92-31.32-66.72-38.56h0Z"/>
      </g>
      <polygon class="cls-32" points="458.73 515.21 458.73 540.26 469.04 546.26 469.04 521.2 458.73 515.21"/>
      <polygon class="cls-32" points="443.32 506.41 443.32 531.47 453.63 537.46 453.63 512.4 443.32 506.41"/>
      <polygon class="cls-32" points="428.44 497.3 428.44 522.36 438.75 528.35 438.75 503.29 428.44 497.3"/>
      <polygon class="cls-32" points="413.47 488.83 413.47 513.89 423.78 519.88 423.78 494.82 413.47 488.83"/>
      <polygon class="cls-32" points="458.73 547.66 458.73 558.58 469.04 564.57 469.04 553.65 458.73 547.66"/>
      <polygon class="cls-32" points="413.47 521.28 413.47 532.21 423.78 538.2 423.78 527.27 413.47 521.28"/>
      <g class="cls-65">
        <polygon class="cls-47" points="452.31 542.49 452.31 561.13 438.75 569.17 438.75 550.54 452.31 542.49"/>
        <polygon class="cls-47" points="452.31 542.49 438.75 550.54 414.05 536.36 427.64 528.31 452.31 542.49"/>
      </g>
      <g class="cls-65">
        <polygon class="cls-50" points="482.26 463.01 482.26 468.56 467.67 477.03 467.67 471.48 482.26 463.01"/>
        <polygon class="cls-46" points="467.67 471.48 467.67 477.03 449.61 466.6 449.61 461.05 467.67 471.48"/>
        <polygon class="cls-24" points="482.26 463.01 467.67 471.48 449.61 461.05 464.21 452.58 482.26 463.01"/>
      </g>
      <g class="cls-65">
        <polygon class="cls-50" points="457.97 475.71 457.97 481.26 443.38 489.73 443.38 484.18 457.97 475.71"/>
        <polygon class="cls-46" points="443.38 484.18 443.38 489.73 425.32 479.3 425.32 473.75 443.38 484.18"/>
        <polygon class="cls-24" points="457.97 475.71 443.38 484.18 425.32 473.75 439.92 465.27 457.97 475.71"/>
      </g>
      <g class="cls-65">
        <polygon class="cls-50" points="511.82 479.62 511.82 485.17 497.23 493.64 497.23 488.09 511.82 479.62"/>
        <polygon class="cls-46" points="497.23 488.09 497.23 493.64 479.16 483.21 479.16 477.66 497.23 488.09"/>
        <polygon class="cls-24" points="511.82 479.62 497.23 488.09 479.16 477.66 493.77 469.18 511.82 479.62"/>
      </g>
      <g class="cls-65">
        <polygon class="cls-50" points="487.52 492.31 487.52 497.86 472.94 506.34 472.94 500.79 487.52 492.31"/>
        <polygon class="cls-46" points="472.94 500.79 472.94 506.34 454.87 495.91 454.87 490.36 472.94 500.79"/>
        <polygon class="cls-24" points="487.52 492.31 472.94 500.79 454.87 490.36 469.48 481.88 487.52 492.31"/>
      </g>
      <polygon class="cls-32" points="414.05 536.36 414.05 555 417.82 557.16 419.98 555.88 433.75 563.82 433.75 566.3 438.75 569.17 438.75 550.54 414.05 536.36"/>
      <g class="cls-65">
        <polygon class="cls-35" points="433.75 551.83 433.75 563.82 419.98 555.87 419.98 543.88 433.75 551.83"/>
        <polygon class="cls-47" points="419.98 543.88 419.98 555.88 417.82 557.15 417.82 542.69 419.98 543.88"/>
        <g class="cls-16">
          <polygon class="cls-29" points="438.75 551.59 438.75 559.11 414.04 544.45 414.04 536.93 438.75 551.59"/>
        </g>
      </g>
      <polygon class="cls-32" points="414.05 536.36 411.15 540.43 435.85 554.88 438.75 550.54 414.05 536.36"/>
      <g class="cls-65">
        <polygon class="cls-33" points="798.79 387.09 775.12 412.23 738.82 391.54 742.29 378.26 798.79 387.09"/>
        <g>
          <polygon class="cls-32" points="746.06 378.39 780.2 361.8 809.35 378.63 775.21 395.23 746.06 378.39"/>
          <path class="cls-26" d="M780.13,363.8l25.45,14.7-30.31,14.73-25.45-14.7,30.31-14.73h0ZM780.28,359.81l-37.98,18.45,32.84,18.96,37.98-18.46-32.84-18.96h0Z"/>
        </g>
        <polygon class="cls-27" points="813.12 378.77 816.31 392.51 775.12 412.23 775.13 397.22 813.12 378.77"/>
      </g>
      <polygon class="cls-63" points="278.98 234.89 247.65 253.1 204.28 195.81 235.61 177.61 278.98 234.89"/>
      <g class="cls-11">
        <polygon class="cls-35" points="421.4 532.01 449.96 543.64 453.05 560.65 452.31 542.49 427.64 528.31 421.4 532.01"/>
      </g>
      <g class="cls-11">
        <polygon class="cls-35" points="455.48 517.17 452.98 518.69 421.84 500.8 421.62 489.1 423.93 486.99 455.48 505 455.48 517.17"/>
      </g>
      <g>
        <polygon class="cls-24" points="418.47 481.78 421.63 478.9 457.26 499.23 457.26 513.29 453.97 515.28 418.47 481.78"/>
        <path class="cls-24" d="M421.69,479.44l35.13,20.04v13.55l-2.78,1.69-34.91-32.94,2.57-2.34h0ZM421.57,478.36l-.47.43-2.57,2.34-.7.64.69.65,34.91,32.94.49.46.58-.35,2.78-1.69.43-.26v-14.56l-.45-.25-35.13-20.04-.56-.32h0Z"/>
      </g>
      <polygon class="cls-7" points="454.11 515 418.98 494.96 418.98 481.41 454.11 501.45 454.11 515"/>
      <g>
        <path class="cls-52" d="M353.43,613.78c-.76,0-1.5-.39-1.91-1.09-.62-1.05-.26-2.41.79-3.02l31.76-18.61c1.05-.62,2.41-.26,3.02.79.62,1.05.26,2.41-.79,3.02l-31.76,18.61c-.35.21-.74.3-1.11.3Z"/>
        <path class="cls-52" d="M391.69,636.63c-.75,0-1.48-.38-1.9-1.07-.63-1.05-.29-2.4.76-3.03l31.46-18.9c1.05-.63,2.4-.29,3.03.76.63,1.05.29,2.4-.76,3.03l-31.46,18.9c-.36.21-.75.32-1.14.32Z"/>
        <path class="cls-52" d="M429.96,659.48c-.74,0-1.47-.37-1.88-1.05-.64-1.04-.32-2.4.72-3.04l31.17-19.2c1.04-.64,2.4-.32,3.04.72.64,1.04.32,2.4-.72,3.04l-31.17,19.2c-.36.22-.76.33-1.16.33Z"/>
        <path class="cls-52" d="M468.22,682.33c-.73,0-1.45-.36-1.87-1.03-.65-1.03-.34-2.4.69-3.05l30.87-19.49c1.03-.65,2.4-.34,3.05.69.65,1.03.34,2.4-.69,3.05l-30.87,19.49c-.37.23-.77.34-1.18.34Z"/>
      </g>
      <g class="cls-11">
        <path class="cls-35" d="M518.37,616.36c1.01-1.31-.6-3.94-4.03-6.32-3.89-2.7-8.63-4.05-10.6-3.01-1.97,1.04-.41,4.08,3.48,6.78,3.49,2.43,7.67,3.75,9.91,3.25l-.62.35,16.31,9.4c0,.58.7,1.06,1.55,1.06.86,0,1.55-.47,1.55-1.06l-17.56-10.44Z"/>
        <path class="cls-9" d="M518.37,616.36c1.01-1.31-.6-3.94-4.03-6.32-3.89-2.7-8.63-4.05-10.6-3.01-1.97,1.04-.41,4.08,3.48,6.78,3.49,2.43,7.67,3.75,9.91,3.25l-.62.35,16.31,9.4c0,.58.7,1.06,1.55,1.06.86,0,1.55-.47,1.55-1.06l-17.56-10.44Z"/>
      </g>
      <g>
        <path class="cls-32" d="M427.34,491.43l-.43,2.95c-.04.25-.11.42-.21.49-.1.07-.25.05-.44-.07-.18-.11-.33-.25-.44-.44-.11-.18-.17-.38-.17-.58,0-.1.02-.22.05-.35l.67-3.35c.05-.26.14-.42.26-.49.12-.07.32-.02.59.14.46.27.75.69.87,1.26l.84,3.78.78-2.83c.12-.42.4-.49.86-.22.28.17.48.36.61.58s.22.51.27.85l.61,4.15c.02.13.03.24.03.32,0,.21-.06.33-.18.38-.12.05-.27.01-.46-.1-.35-.21-.56-.58-.62-1.1l-.39-3.52c-.26.97-.48,1.72-.64,2.25s-.29.85-.38.94c-.06.05-.13.07-.21.05-.08-.02-.19-.07-.32-.14-.21-.12-.37-.26-.48-.42-.11-.16-.2-.38-.26-.65l-.81-3.87Z"/>
        <path class="cls-32" d="M436.54,499.82l-2.03-1.21-.19.45c-.12.3-.33.36-.6.2-.18-.1-.32-.25-.43-.42-.11-.18-.17-.35-.17-.53,0-.06,0-.12.01-.18,0-.06.02-.11.05-.15l1.43-3.03c.1-.22.23-.35.38-.39.15-.04.34,0,.58.15.44.26.74.69.92,1.28l1.39,4.78c.06.19.08.34.08.44,0,.18-.06.29-.18.32-.12.03-.27,0-.44-.11-.31-.19-.53-.52-.66-1l-.15-.6ZM436.18,498.44l-.63-2.42-.68,1.64,1.31.78Z"/>
        <path class="cls-32" d="M440.22,503.05c-.17-.1-.3-.19-.41-.29s-.2-.19-.26-.29c-.06-.1-.11-.21-.14-.32-.03-.12-.04-.25-.04-.4v-3.89c0-.59.21-.77.63-.52.42.25.63.67.63,1.26v3.52l1.06.63c.59.35.89.72.89,1.11s-.3.4-.89.05l-1.46-.87Z"/>
        <path class="cls-32" d="M444.72,505.73c-.17-.1-.3-.19-.41-.29-.11-.09-.2-.19-.26-.29-.06-.1-.11-.21-.14-.32-.03-.12-.04-.25-.04-.4v-3.89c0-.59.21-.77.63-.52.42.25.63.67.63,1.26v3.52l1.06.63c.59.35.89.72.89,1.11s-.3.4-.89.05l-1.46-.87Z"/>
      </g>
      <path class="cls-34" d="M532.74,599.91v26.75c0,.66.76,1.2,1.7,1.2.94,0,1.7-.53,1.7-1.2v-26.75h-3.41Z"/>
      <g class="cls-11">
        <polygon class="cls-35" points="532.74 611.99 536.15 610.95 536.15 602.2 532.74 602.25 532.74 611.99"/>
      </g>
      <g>
        <path class="cls-48" d="M535.83,576.82c-1.68-.96-3.26-1.24-4.64-.93-.78.17-4.63,2.46-4.63,2.46,0,0-.64,3.37-.64,7.63,0,8.19,4.44,17.36,9.91,20.48.93.53,1.99,2.44,1.99,2.44,0,0,3.21-1.52,4.24-2.18,2.24-1.44,3.68-4.77,3.68-9.43,0-8.19-4.44-17.36-9.91-20.48h0Z"/>
        <path class="cls-47" d="M532.51,607.05c-5.01-2.86-9.08-11.28-9.08-18.77s4.07-11.26,9.08-8.4c5.01,2.86,9.08,11.28,9.08,18.77s-4.07,11.26-9.08,8.4Z"/>
        <path class="cls-58" d="M532.51,581.01c4.59,2.62,8.33,10.35,8.33,17.21s-3.74,10.33-8.33,7.7c-4.59-2.62-8.33-10.34-8.33-17.21s3.74-10.33,8.33-7.7h0ZM532.51,578.76c-5.43-3.1-9.83.97-9.83,9.09s4.4,17.22,9.83,20.32c5.43,3.1,9.83-.97,9.83-9.09s-4.4-17.22-9.83-20.32h0Z"/>
      </g>
      <path class="cls-50" d="M530.34,589.14c0-.27.02-.49.05-.67.03-.18.08-.31.16-.39.08-.08.18-.12.31-.1.13.02.3.08.5.2l1.32.75c.37.21.7.47.99.79.29.32.54.68.74,1.08.2.4.35.83.46,1.29.1.46.16.94.16,1.44,0,1.01-.19,1.69-.58,2.05-.39.36-.94.34-1.65-.07l-.98-.56v1.65c0,1.03-.24,1.41-.73,1.13-.49-.28-.73-.93-.73-1.97v-6.62ZM532.44,593.33c.67.38,1,.15,1-.69,0-.43-.08-.79-.24-1.08-.16-.29-.41-.54-.76-.73l-.63-.36v2.51l.63.36Z"/>
      <path class="cls-18" d="M513.26,529.69c3.33-7.17,6.77-14.29,10.31-21.36v-9.76c-3.53,6.89-6.97,13.82-10.31,20.79v10.32Z"/>
      <path class="cls-18" d="M496.83,519.64v13.63c3.03-9.02,6.15-18,9.52-26.89l-6.03,3.5c-1.19,3.24-2.35,6.5-3.49,9.76Z"/>
      <path class="cls-18" d="M490.97,521.52v-6.03l-3.28,1.91c-2.49,7.47-4.78,15.01-7.03,22.56v9.04l2.32-1.35c2.6-8.73,5.17-17.47,7.99-26.13Z"/>
      <g>
        <g class="cls-65">
          <polygon class="cls-57" points="365.68 455.7 322.44 495 297.8 480.8 299.34 468.15 365.68 455.7"/>
          <polygon class="cls-59" points="375.77 448.53 320.6 480.11 299.34 468.15 355.3 437.28 375.77 448.53"/>
        </g>
        <g class="cls-65">
          <polygon class="cls-60" points="349.47 450.99 333.02 473.26 311.21 461.54 312.88 450.23 349.47 450.99"/>
          <polygon class="cls-55" points="360.15 443.4 331.44 460.42 312.88 450.23 341.59 433.21 360.15 443.4"/>
          <polygon class="cls-57" points="375.77 448.53 364.69 454.87 360.15 443.4 331.44 460.42 332.99 473.02 320.6 480.11 322.44 495 380.13 460.64 375.77 448.53"/>
        </g>
        <polygon class="cls-40" points="329.53 461.48 330.58 469.93 313.38 460.66 314.32 453.28 329.53 461.48"/>
        <g>
          <path class="cls-31" d="M341.9,488.48c-.71,4.18-3.66,7.24-6.59,6.85-2.93-.39-4.73-4.1-4.03-8.28.71-4.18,3.66-7.24,6.59-6.85,2.93.39,4.73,4.1,4.03,8.28Z"/>
          <path class="cls-46" d="M339.86,488.32c-.37,2.18-2.02,3.77-3.69,3.54-1.67-.22-2.73-2.18-2.36-4.36.37-2.18,2.02-3.77,3.69-3.54,1.67.22,2.72,2.18,2.36,4.36Z"/>
        </g>
        <g>
          <path class="cls-31" d="M376.85,466.86c-.71,4.18-3.66,7.24-6.59,6.85-2.93-.39-4.73-4.1-4.03-8.28.71-4.18,3.66-7.24,6.59-6.85,2.93.39,4.73,4.1,4.03,8.28Z"/>
          <path class="cls-46" d="M374.81,466.7c-.37,2.18-2.02,3.77-3.69,3.54-1.67-.22-2.73-2.18-2.36-4.36.37-2.18,2.02-3.77,3.69-3.54,1.67.22,2.72,2.18,2.35,4.36Z"/>
        </g>
        <g>
          <polygon class="cls-40" points="349.45 463.15 361.69 455.86 358.36 447.37 348.24 453.31 349.45 463.15"/>
          <polygon class="cls-40" points="346.38 454.4 334.68 461.27 335.91 471.22 347.6 464.26 346.38 454.4"/>
        </g>
        <g>
          <path class="cls-40" d="M319.08,483.99c.24,1.8-.59,3.39-1.84,3.54-1.25.16-2.46-1.17-2.7-2.97-.24-1.8.59-3.39,1.84-3.55,1.25-.16,2.46,1.17,2.7,2.97Z"/>
          <path class="cls-48" d="M318.08,484.24c.24,1.8-.59,3.39-1.84,3.55-1.25.16-2.46-1.17-2.7-2.97-.24-1.8.59-3.39,1.84-3.55,1.26-.16,2.46,1.17,2.7,2.97Z"/>
        </g>
        <g>
          <path class="cls-40" d="M305.24,476.86c.24,1.8-.59,3.39-1.84,3.54-1.25.16-2.46-1.17-2.7-2.97-.24-1.8.59-3.39,1.84-3.55,1.25-.16,2.46,1.17,2.7,2.97Z"/>
          <path class="cls-48" d="M304.24,477.11c.24,1.8-.59,3.39-1.84,3.54-1.25.16-2.46-1.17-2.7-2.97-.24-1.8.59-3.39,1.84-3.55,1.26-.16,2.47,1.17,2.7,2.97Z"/>
        </g>
      </g>
      <line class="cls-62" x1="343.12" y1="381.03" x2="371.79" y2="425.95"/>
      <path class="cls-22" d="M763.04,199.66c8.42,4.03,15.56,12.67,18.45,21.43,1.73.15,3.62.68,5.59,1.62,8.5,4.06,15.39,14.25,15.39,22.75s-14.57,14.27-20.04,11.65c-5.47-2.61-.09-6.45-2.14-8.45-2.86,2.61-7.53,2.97-12.82.45-5.84-2.81-10.95-8.42-13.67-14.45-2.22.33-2.26,1.12-7.65-1.46-5.39-2.58-25.14-16.3-22.43-23.62,2.72-7.32,11.82-9.84,15.66-8.11,2.83-6.11,15.23-5.83,23.66-1.8h0Z"/>
      <path class="cls-21" d="M754.23,201.87c8.38,4.02,15.56,12.67,18.45,21.41,1.73.16,3.62.68,5.59,1.62,8.5,4.07,15.39,14.25,15.39,22.76s-6.88,12.08-15.39,8.03c-2.44-1.17-4.75-2.85-6.8-4.84-2.86,2.62-7.53,2.98-12.82.45-5.84-2.79-10.94-8.42-13.67-14.44-2.22.32-4.84-.13-7.65-1.48-7.99-3.82-14.45-13.39-14.45-21.37,0-7.43,5.62-10.86,12.83-8.22,2.83-6.11,10.06-7.97,18.53-3.91h0Z"/>
      <path class="cls-22" d="M333.49,128.4c-6.04,2.88-11.13,9.06-13.18,15.3-1.25.12-2.6.48-4.01,1.17-6.06,2.9-10.99,10.19-10.99,16.24s10.43,10.19,14.33,8.33c3.9-1.87.06-4.63,1.53-6.06,2.03,1.87,5.37,2.13,9.16.32,4.17-1.99,7.81-6,9.76-10.31,1.57.22,1.61.78,5.46-1.07,3.86-1.83,17.98-11.64,16.02-16.87-1.93-5.21-8.43-7.02-11.19-5.78-2.01-4.37-10.87-4.17-16.89-1.29h0Z"/>
      <path class="cls-20" d="M339.77,129.97c-6,2.88-11.11,9.06-13.19,15.3-1.23.12-2.58.5-3.99,1.17-6.08,2.9-10.99,10.19-10.99,16.24s4.91,8.66,10.99,5.74c1.75-.83,3.38-2.03,4.85-3.44,2.05,1.85,5.39,2.11,9.16.32,4.19-2.01,7.83-6.02,9.76-10.33,1.59.22,3.46-.1,5.48-1.05,5.7-2.74,10.33-9.56,10.33-15.28,0-5.29-4.01-7.75-9.16-5.88-2.03-4.37-7.19-5.7-13.25-2.8h0Z"/>
    </g>
  </g>
</svg>